<?xml version="1.0" encoding="UTF-8"?>
<svg width="1440px" height="238px" viewBox="0 0 1440 238" version="1.1" xmlns="http://www.w3.org/2000/svg"
>
    <title>assets/interferer/flower-top</title>
    <g id="00-Assets" stroke="none" stroke-width="1" fill="none" fill-rule="evenodd">
        <g id="Group" fill="#E7F5EE">
            <path d="M0,166 C240,183.116564 480,191.674847 720,191.674847 C960,191.674847 1200,183.116564 1440,166 L1440,238 L0,238 L0,166 Z"
                  id="Rectangle"></path>
            <g id="Group-3" transform="translate(100.000000, 0.000000)">
                <path d="M761.952713,155.720727 C767.402713,153.421727 772.322713,149.535727 777.092813,145.777727 C778.312713,144.816727 779.512813,143.866727 780.702713,142.963727 C787.722813,137.635727 797.092813,131.482727 806.152713,125.529727 C825.533013,112.801727 843.843013,100.779727 845.303013,93.4727269 C845.413013,92.9247269 845.193013,92.3627269 844.733013,92.0397269 C844.273013,91.7147269 843.673013,91.6897269 843.193013,91.9757269 C835.283013,96.6567269 826.153013,99.3387269 817.323013,101.930727 C807.303013,104.872727 796.942713,107.915727 788.122813,113.897727 C781.562713,118.353727 775.552713,124.681727 769.752813,133.246727 C769.342813,133.855727 768.782713,134.630727 768.142713,135.522727 C765.952713,138.546727 763.832813,141.596727 762.232813,144.450727 C762.632813,137.000727 763.242813,129.840727 764.052713,122.941727 C763.942713,124.225727 763.912713,125.503727 764.012813,126.765727 C764.052713,127.256727 764.342813,127.692727 764.782713,127.916727 C764.982813,128.020727 765.202713,128.071727 765.422713,128.071727 C765.682713,128.071727 765.942713,128.002727 766.162713,127.863727 C780.622813,119.036727 792.132813,95.9537269 799.792713,80.5857269 C803.352813,73.4517269 806.522713,65.7417269 805.622813,57.7147269 C805.552713,57.1447269 805.152713,56.6687269 804.602813,56.5107269 C804.062713,56.3597269 803.452713,56.5437269 803.102813,56.9967269 C793.862813,68.7147269 785.152713,81.0427269 777.212813,93.6377269 L776.302713,95.0767269 C771.622813,102.464727 765.512813,112.153727 764.212813,121.560727 C766.172713,105.624727 769.252813,91.0967269 773.522713,77.6527269 C774.002813,77.9067269 774.532713,78.0577269 775.092813,78.0577269 L775.292713,78.0527269 C776.342813,77.9867269 777.252813,77.4577269 777.822713,76.5967269 C784.932713,65.7507269 787.512813,48.6367269 789.402713,36.1397269 L789.662713,34.4297269 C789.782713,33.6557269 789.242813,32.9337269 788.472813,32.8167269 C787.702713,32.7027269 786.972813,33.2287269 786.862813,34.0037269 L786.862813,34.0077269 C786.542713,36.0497269 783.982813,40.5617269 781.262813,45.3377269 C775.472813,55.5227269 768.392713,67.9757269 771.392713,75.0067269 C769.852813,79.7077269 768.462813,84.5457269 767.212813,89.5187269 C766.362813,79.1267269 762.482813,67.5117269 759.272713,57.9137269 L758.852813,56.6627269 C753.192713,39.7057269 744.952713,26.1517269 734.372813,16.3777269 C733.902713,15.9377269 733.182713,15.8747269 732.642713,16.2277269 C732.102813,16.5777269 731.862813,17.2537269 732.072713,17.8657269 C735.452713,28.0097269 737.292713,38.7977269 739.072713,49.2317269 C741.302713,62.3407269 743.622813,75.8957269 749.012813,88.4697269 C750.502813,91.9547269 757.242813,103.607727 762.662713,103.607727 C762.892713,103.607727 763.122813,103.587727 763.342813,103.542727 C763.652713,103.483727 763.932713,103.376727 764.192713,103.250727 C762.462813,112.372727 761.152713,121.967727 760.262813,132.105727 C758.732813,127.872727 756.272713,122.661727 753.222813,116.690727 C752.782713,115.845727 752.432713,115.156727 752.192713,114.673727 L752.192713,114.672727 C748.852813,107.836727 744.572713,99.9937269 738.132813,93.6697269 C733.742813,89.3637269 728.552713,85.9767269 723.522713,82.6997269 C718.642713,79.5117269 713.582813,76.2157269 709.402713,72.1277269 C708.972813,71.7017269 708.312713,71.6017269 707.782713,71.8747269 C707.232813,72.1467269 706.932713,72.7327269 707.012813,73.3327269 C708.492813,84.0987269 712.632813,89.5167269 716.632813,94.7557269 C719.012813,97.8787269 721.272713,100.828727 722.852813,104.826727 C726.392713,113.812727 731.192713,122.240727 737.112813,129.877727 C737.242813,130.044727 748.572713,144.325727 756.932713,144.325727 C757.802713,144.325727 758.642713,144.156727 759.432713,143.814727 C759.302713,146.180727 759.182713,148.564727 759.092813,150.988727 C758.442713,168.923727 759.152713,189.450727 769.372813,205.704727 C769.642713,206.132727 770.102813,206.366727 770.572713,206.366727 C770.832813,206.366727 771.092813,206.296727 771.322713,206.149727 C771.992813,205.733727 772.182713,204.858727 771.772713,204.195727 C762.812713,189.960727 761.482813,172.071727 761.802713,155.751727 L761.952713,155.720727 Z M804.592813,123.161727 C795.492813,129.139727 786.082813,135.320727 778.992813,140.705727 C777.782713,141.620727 776.562713,142.580727 775.332813,143.552727 C771.162713,146.847727 766.852813,150.242727 762.302713,152.452727 C762.292713,152.325727 762.312713,152.183727 762.322713,152.048727 C762.542713,151.874727 762.792713,151.705727 762.982813,151.580727 C763.112813,151.499727 763.222813,151.423727 763.322713,151.355727 C767.122813,148.662727 770.302713,145.148727 773.372813,141.750727 C774.022713,141.031727 774.672713,140.315727 775.332813,139.605727 C789.852813,123.844727 807.983013,111.141727 827.763013,102.870727 L828.563013,102.536727 C831.153013,101.460727 833.823013,100.344727 836.093013,98.6347269 C837.503013,98.0477269 838.893013,97.4357269 840.263013,96.7657269 C834.453013,103.552727 818.753013,113.867727 804.592813,123.161727 Z M818.123013,104.649727 C822.753013,103.288727 827.473013,101.903727 832.073013,100.215727 C830.833013,100.821727 829.553013,101.358727 828.293013,101.882727 L827.493013,102.216727 C807.623013,110.527727 789.402713,123.289727 774.802713,139.125727 C774.152713,139.836727 773.502813,140.554727 772.852813,141.274727 C769.902713,144.533727 766.852813,147.900727 763.272713,150.513727 C776.082813,132.160727 793.002813,117.017727 812.613013,106.294727 C814.453013,105.733727 816.293013,105.186727 818.123013,104.649727 Z M770.432713,137.182727 C771.102813,136.261727 771.682713,135.461727 772.102813,134.834727 C777.692713,126.573727 783.452713,120.492727 789.712813,116.241727 C795.642713,112.220727 802.402713,109.564727 809.303013,107.337727 C790.872813,117.981727 774.952713,132.582727 762.742813,150.068727 C764.112813,145.943727 768.312713,140.120727 770.432713,137.182727 Z M739.352813,128.142727 C733.602813,120.716727 728.932713,112.522727 725.482813,103.786727 C723.762813,99.4217269 721.282713,96.1747269 718.882813,93.0357269 C715.702713,88.8667269 712.422713,84.5697269 710.652713,77.3237269 C716.032713,85.7427269 721.532713,94.2207269 727.052713,102.558727 C735.612813,115.490727 744.152713,128.014727 754.502813,139.081727 C755.362813,140.001727 756.342813,140.911727 757.422713,141.444727 C752.472813,142.036727 743.392713,133.365727 739.352813,128.142727 Z M758.852813,140.921727 C758.752813,140.991727 758.642713,141.048727 758.532713,141.104727 C757.232813,140.781727 756.052713,139.695727 755.022713,138.596727 C744.702713,127.570727 736.182713,115.073727 727.642713,102.168727 C722.382813,94.2187269 717.142713,86.1427269 711.992813,78.1097269 C714.032713,79.7057269 716.132813,81.1957269 718.262813,82.6217269 C723.372813,88.8077269 728.492813,95.1147269 733.522713,101.439727 C738.502813,107.701727 743.302713,113.875727 747.402713,120.568727 C749.612813,124.176727 751.622813,127.955727 753.562713,131.610727 C754.452713,133.297727 755.512813,135.005727 756.542713,136.656727 C757.372813,138.009727 758.222813,139.400727 759.002813,140.781727 L758.852813,140.921727 Z M736.142713,95.6927269 C742.282713,101.715727 746.412713,109.296727 749.652713,115.918727 C749.892713,116.411727 750.252813,117.115727 750.692713,117.979727 C758.082813,132.435727 759.412713,137.841727 759.272713,139.850727 C758.582813,138.651727 757.862813,137.453727 757.142713,136.283727 C756.122813,134.642727 755.072713,132.944727 754.182713,131.278727 C752.242813,127.613727 750.222813,123.825727 748.002813,120.197727 C743.892713,113.471727 739.062713,107.278727 734.072713,100.999727 C729.532713,95.2857269 724.912713,89.5827269 720.302713,83.9737269 C720.862813,84.3407269 721.422713,84.7107269 721.982813,85.0737269 C726.882813,88.2737269 731.962813,91.5827269 736.142713,95.6927269 Z M766.812713,123.982727 L767.042713,123.844727 L766.802713,124.024727 L766.812713,123.982727 Z M797.212813,79.4157269 C790.612813,92.6607269 779.812713,114.298727 767.092813,123.804727 L767.322713,123.601727 C775.902713,113.899727 783.132813,103.074727 788.802713,91.4287269 C789.502813,89.9887269 790.172713,88.5357269 790.852813,87.0837269 C792.062713,84.4987269 793.302713,81.8267269 794.672713,79.2757269 C795.342813,78.0067269 796.062713,76.7487269 796.782713,75.4897269 C799.182713,71.2847269 801.642713,66.9407269 802.662713,62.1677269 C802.742813,62.0647269 802.822713,61.9577269 802.902713,61.8547269 C802.562713,67.8507269 800.032713,73.7717269 797.212813,79.4157269 Z M778.702713,96.5927269 L779.612813,95.1487269 C786.412713,84.3607269 793.792713,73.7857269 801.572713,63.6117269 C800.412713,67.6707269 798.272713,71.4587269 796.172713,75.1387269 C795.442713,76.4047269 794.722813,77.6677269 794.042713,78.9407269 C792.662713,81.5097269 791.422713,84.1907269 790.212813,86.7827269 C789.542713,88.2337269 788.862813,89.6817269 788.162713,91.1197269 C782.542713,102.658727 775.392713,113.386727 766.892713,123.007727 C767.742813,113.918727 773.982813,104.039727 778.702713,96.5927269 Z M751.612813,87.3517269 C746.352813,75.0877269 744.072713,61.7007269 741.862813,48.7547269 C740.412713,40.2527269 738.922713,31.5167269 736.582813,23.0237269 C738.632813,27.2737269 740.322713,31.7027269 741.582813,36.2477269 C743.112813,41.7557269 744.072713,47.5277269 745.002813,53.1107269 C746.392713,61.5057269 747.822713,70.1867269 751.242813,78.1297269 C752.492813,81.0277269 754.002813,83.8267269 755.462813,86.5307269 L763.062713,100.641727 L762.802713,100.760727 C760.392713,101.269727 754.162713,93.2927269 751.612813,87.3517269 Z M756.582813,58.8117269 C760.242813,69.7477269 764.802713,83.3587269 764.552713,94.3747269 C764.482813,97.3997269 764.052713,99.1617269 763.542713,100.046727 L756.082813,86.1947269 C754.632813,83.5037269 753.132813,80.7187269 751.902713,77.8507269 C748.512813,69.9857269 747.082813,61.3477269 745.692713,52.9947269 C744.772713,47.3937269 743.812713,41.6017269 742.262813,36.0567269 C741.142713,31.9977269 739.682713,28.0197269 737.932713,24.1837269 C745.552713,32.9797269 751.682713,44.1487269 756.162713,57.5597269 L756.582813,58.8117269 Z M775.452713,75.0417269 C775.362813,75.1887269 775.202713,75.2187269 775.122813,75.2247269 L774.942713,75.2017269 C777.592813,69.2777269 779.682713,63.0287269 781.702713,56.9317269 L784.492813,48.5157269 C782.692713,58.0377269 780.052713,68.0247269 775.452713,75.0417269 Z M783.722813,46.7397269 C784.242813,45.8337269 784.732813,44.9667269 785.202713,44.1277269 L781.012813,56.7547269 C779.042713,62.7007269 776.992813,68.8337269 774.402713,74.6467269 C770.872813,69.3557269 778.572713,55.7957269 783.722813,46.7397269 Z M770.462813,63.7207269 C770.702713,63.7207269 770.932713,63.6787269 771.172713,63.5877269 C772.772713,62.9807269 772.872813,60.8677269 772.752813,58.8817269 C772.482813,54.3827269 771.332813,49.7017269 770.402713,45.9427269 C769.152713,40.8687269 767.522713,35.8407269 765.582813,30.9997269 C764.462813,28.2077269 762.712813,28.2357269 762.002813,28.3787269 C761.452713,28.4927269 761.012813,28.9267269 760.902713,29.4827269 C760.242813,32.7417269 760.422713,36.0777269 760.682713,39.4947269 C761.272713,47.1597269 762.262813,55.1627269 767.152713,61.3667269 C767.732813,62.1127269 769.002813,63.7207269 770.462813,63.7207269 Z M763.312713,32.9697269 C765.052713,37.4057269 766.512813,41.9937269 767.652713,46.6207269 C768.552713,50.2687269 769.672713,54.8087269 769.922713,59.0507269 C769.952713,59.5737269 769.952713,59.9777269 769.942713,60.2877269 C769.782713,60.1137269 769.592813,59.8937269 769.372813,59.6157269 C764.982813,54.0337269 764.072713,46.5067269 763.502813,39.2777269 C763.332813,37.0487269 763.202713,34.9707269 763.312713,32.9697269 Z"
                      id="Fill-1"></path>
                <path d="M439.071205,119.973011 C441.525205,120.479011 445.812205,122.140011 446.957205,127.563011 C447.389205,129.606011 447.146205,131.977011 446.191205,135.027011 C445.004205,138.827011 443.374205,141.272011 441.213205,142.503011 C437.615205,144.558011 432.861205,143.048011 429.504205,141.419011 C427.811205,140.597011 425.686205,139.431011 424.252205,137.699011 C421.554205,134.439011 421.546205,129.115011 424.230205,125.314011 C427.188205,121.135011 433.570205,118.843011 439.071205,119.973011 Z M441.774205,166.663011 C441.683205,167.207011 441.459205,167.968011 440.919205,168.516011 C440.515205,168.924011 439.945205,169.130011 439.491205,169.063011 C439.231205,169.020011 438.935205,168.881011 438.589205,168.642011 C437.756205,168.062011 437.026205,166.967011 437.314205,166.074011 C437.474205,165.581011 437.970205,165.141011 438.578205,164.953011 C439.635205,164.631011 440.817205,164.772011 441.404205,165.286011 C441.630205,165.485011 441.913205,165.842011 441.774205,166.663011 Z M405.222205,145.897011 C405.086205,146.117011 404.818205,146.409011 404.082205,146.409011 L404.076205,146.409011 C403.362205,146.406011 402.726205,146.231011 402.280205,145.916011 C401.862205,145.620011 401.591205,145.162011 401.591205,144.758011 C401.591205,144.516011 401.674205,144.224011 401.837205,143.885011 C402.203205,143.110011 402.980205,142.347011 403.758205,142.347011 L403.927205,142.360011 C404.381205,142.428011 404.837205,142.800011 405.092205,143.311011 L405.092205,143.312011 C405.540205,144.209011 405.593205,145.296011 405.222205,145.897011 Z M404.544205,127.805011 C404.447205,127.855011 404.226205,127.979011 403.755205,127.722011 C403.290205,127.467011 402.936205,127.131011 402.759205,126.768011 C402.612205,126.466011 402.593205,126.114011 402.715205,125.889011 C402.789205,125.752011 402.942205,125.601011 403.160205,125.443011 C403.556205,125.155011 404.021205,125.000011 404.408205,125.000011 C404.633205,125.000011 404.829205,125.052011 404.973205,125.160011 C405.205205,125.336011 405.355205,125.711011 405.341205,126.096011 C405.310205,126.930011 404.906205,127.599011 404.544205,127.805011 Z M429.098205,102.032011 C428.824205,101.633011 428.987205,100.826011 429.457205,100.236011 C429.670205,99.9700112 429.831205,99.8580112 429.925205,99.8110112 C430.016205,99.7660112 430.127205,99.7440112 430.246205,99.7440112 C430.429205,99.7440112 430.631205,99.7960112 430.811205,99.8950112 C431.157205,100.083011 431.478205,100.453011 431.713205,100.931011 C431.951205,101.419011 431.818205,101.632011 431.760205,101.723011 C431.500205,102.134011 430.763205,102.441011 430.041205,102.441011 L430.016205,102.441011 C429.635205,102.438011 429.264205,102.274011 429.098205,102.032011 Z M461.060205,114.296011 C461.361205,113.920011 462.177205,113.835011 462.891205,114.120011 C463.140205,114.217011 463.320205,114.325011 463.428205,114.438011 C463.600205,114.624011 463.672205,114.978011 463.603205,115.306011 C463.525205,115.695011 463.265205,116.110011 462.877205,116.475011 C462.482205,116.849011 462.238205,116.783011 462.136205,116.752011 C461.660205,116.623011 461.145205,115.998011 460.938205,115.296011 C460.830205,114.927011 460.877205,114.524011 461.060205,114.296011 Z M470.025205,130.716011 C470.261205,130.527011 470.672205,130.313011 471.452205,130.595011 C471.962205,130.781011 472.672205,131.133011 473.112005,131.764011 C473.452005,132.233011 473.562005,132.821011 473.402005,133.263011 C473.312005,133.513011 473.122005,133.788011 472.832205,134.079011 C472.112205,134.796011 470.902205,135.325011 470.078205,134.883011 C469.621205,134.638011 469.275205,134.072011 469.198205,133.441011 C469.068205,132.351011 469.414205,131.204011 470.025205,130.716011 Z M460.077205,154.445011 L460.243205,154.454011 C460.539205,154.489011 460.977205,154.622011 461.330205,155.377011 C461.660205,156.081011 461.784205,156.795011 461.682205,157.385011 C461.580205,157.952011 461.242205,158.446011 460.816205,158.647011 C460.578205,158.759011 460.160205,158.860011 459.834205,158.814011 C458.821205,158.813011 457.597205,158.327011 457.326205,157.426011 C457.177205,156.932011 457.335205,156.289011 457.728205,155.789011 C458.361205,154.987011 459.319205,154.445011 460.077205,154.445011 Z M423.043205,159.675011 C422.691205,160.075011 422.284205,160.345011 421.897205,160.436011 C421.571205,160.519011 421.217205,160.451011 421.028205,160.288011 C420.948205,160.216011 420.824205,160.063011 420.688205,159.751011 C420.389205,159.054011 420.444205,158.233011 420.815205,157.922011 C420.968205,157.793011 421.203205,157.724011 421.452205,157.724011 C421.571205,157.724011 421.693205,157.739011 421.809205,157.771011 C422.617205,157.984011 423.178205,158.526011 423.300205,158.926011 C423.331205,159.029011 423.403205,159.269011 423.043205,159.675011 Z M387.016205,132.973011 C385.544205,134.036011 383.670205,134.301011 382.356205,134.335011 C379.888205,134.432011 377.295205,133.737011 375.139205,132.460011 C374.466205,132.064011 373.595205,132.282011 373.199205,132.957011 C372.798205,133.629011 373.022205,134.498011 373.695205,134.898011 C376.179205,136.372011 379.118205,137.174011 382.013205,137.174011 C382.154205,137.174011 382.292205,137.172011 382.433205,137.169011 C384.888205,137.102011 387.047205,136.447011 388.677205,135.270011 C390.149205,134.207011 391.128205,132.796011 391.786205,131.412011 C397.478205,135.446011 404.467205,137.624011 411.459205,137.624011 C414.337205,137.624011 417.212205,137.260011 419.993205,136.512011 C420.096205,136.484011 420.177205,136.422011 420.268205,136.374011 C420.487205,136.944011 420.744205,137.493011 421.047205,138.017011 C416.938205,140.225011 412.384205,141.731011 407.774205,142.390011 C407.725205,142.276011 407.683205,142.159011 407.627205,142.047011 C406.963205,140.715011 405.706205,139.760011 404.347205,139.557011 C402.034205,139.200011 400.102205,140.927011 399.278205,142.666011 C398.937205,143.380011 398.760205,144.078011 398.758205,144.749011 C398.758205,146.072011 399.480205,147.405011 400.642205,148.229011 C401.572205,148.888011 402.756205,149.238011 404.082205,149.242011 C405.629205,149.242011 406.888205,148.585011 407.629205,147.389011 C408.024205,146.753011 408.235205,145.987011 408.282205,145.179011 C413.330205,144.442011 418.314205,142.760011 422.786205,140.296011 C423.057205,140.569011 423.340205,140.826011 423.628205,141.071011 C420.459205,147.551011 414.838205,152.718011 408.098205,155.285011 C407.959205,155.187011 407.802205,155.116011 407.634205,155.074011 C405.121205,152.152011 400.765205,150.769011 395.739205,151.410011 C392.852205,151.776011 390.088205,152.656011 387.517205,154.024011 C386.828205,154.392011 386.565205,155.250011 386.933205,155.942011 C387.301205,156.632011 388.159205,156.886011 388.851205,156.526011 C391.114205,155.319011 393.552205,154.544011 396.093205,154.222011 C398.099205,153.966011 400.436205,154.092011 402.447205,154.853011 C398.044205,155.298011 393.773205,157.295011 390.743205,160.499011 C390.207205,161.068011 390.232205,161.965011 390.799205,162.503011 C391.369205,163.041011 392.263205,163.015011 392.803205,162.448011 C395.868205,159.204011 400.412205,157.414011 404.901205,157.593011 C401.782205,162.244011 397.584205,165.999011 392.907205,168.288011 C392.205205,168.632011 391.914205,169.480011 392.257205,170.183011 C392.503205,170.686011 393.007205,170.977011 393.530205,170.977011 C393.740205,170.977011 393.954205,170.932011 394.153205,170.834011 C399.097205,168.413011 403.531205,164.505011 406.887205,159.684011 C407.374205,161.712011 407.045205,163.925011 406.412205,165.616011 C405.305205,168.566011 403.210205,171.126011 401.184205,173.599011 C400.689205,174.205011 400.778205,175.098011 401.384205,175.594011 C401.647205,175.809011 401.965205,175.914011 402.280205,175.914011 C402.690205,175.914011 403.097205,175.737011 403.376205,175.395011 C405.446205,172.865011 407.792205,169.998011 409.063205,166.611011 C410.209205,163.556011 410.262205,160.442011 409.295205,157.858011 C416.473205,155.068011 422.491205,149.602011 425.976205,142.741011 C426.444205,143.022011 426.907205,143.275011 427.355205,143.508011 L427.266205,143.723011 C426.471205,147.725011 424.875205,151.635011 422.658205,155.070011 L422.539205,155.031011 C421.266205,154.694011 419.916205,154.974011 418.989205,155.754011 C417.425205,157.072011 417.423205,159.329011 418.084205,160.867011 C418.361205,161.513011 418.709205,162.016011 419.155205,162.411011 C419.819205,162.994011 420.691205,163.304011 421.607205,163.304011 C421.919205,163.304011 422.235205,163.268011 422.550205,163.193011 C423.516205,162.965011 424.421205,162.398011 425.165205,161.552011 C426.073205,160.529011 426.375205,159.304011 426.012205,158.107011 C425.840205,157.537011 425.512205,157.005011 425.079205,156.539011 C427.386205,152.948011 429.060205,148.882011 429.946205,144.714011 C430.310205,144.864011 430.671205,145.004011 431.029205,145.133011 C431.379205,155.360011 430.896205,166.912011 425.546205,176.490011 C425.370205,176.491011 425.203205,176.534011 425.038205,176.600011 C421.426205,175.573011 417.281205,176.532011 412.392205,179.578011 C411.728205,179.992011 411.525205,180.867011 411.938205,181.531011 C412.358205,182.198011 413.239205,182.394011 413.892205,181.983011 C416.823205,180.155011 419.368205,179.192011 421.608205,179.052011 C418.841205,181.649011 416.912205,185.176011 416.343205,188.912011 C416.224205,189.685011 416.756205,190.408011 417.531205,190.525011 C418.289205,190.649011 419.028205,190.115011 419.144205,189.338011 C419.697205,185.708011 421.787205,182.306011 424.734205,180.105011 C425.177205,182.040011 425.262205,184.138011 424.958205,186.078011 C424.548205,188.710011 423.674205,191.320011 422.827205,193.843011 C422.578205,194.586011 422.977205,195.389011 423.718205,195.638011 C423.868205,195.688011 424.020205,195.711011 424.169205,195.711011 C424.761205,195.711011 425.315205,195.338011 425.511205,194.745011 C426.397205,192.110011 427.310205,189.384011 427.758205,186.517011 C428.008205,184.925011 428.029205,183.242011 427.846205,181.593011 C428.608205,182.434011 429.242205,183.442011 429.676205,184.563011 C430.587205,186.920011 430.647205,189.719011 429.842205,192.240011 C429.604205,192.986011 430.016205,193.783011 430.761205,194.020011 C430.905205,194.068011 431.048205,194.088011 431.192205,194.088011 C431.793205,194.088011 432.349205,193.705011 432.543205,193.103011 C433.542205,189.976011 433.459205,186.491011 432.319205,183.541011 C431.427205,181.232011 429.870205,179.262011 427.974205,177.959011 C433.538205,168.059011 434.193205,156.383011 433.893205,145.961011 C434.444205,146.077011 434.983205,146.161011 435.512205,146.222011 C437.394205,151.268011 438.319205,156.759011 438.194205,162.135011 C438.044205,162.170011 437.894205,162.200011 437.742205,162.247011 C436.254205,162.705011 435.058205,163.840011 434.618205,165.202011 C433.868205,167.518011 435.313205,169.815011 436.976205,170.971011 C437.676205,171.455011 438.349205,171.745011 439.029205,171.858011 C439.251205,171.895011 439.472205,171.911011 439.694205,171.911011 C440.864205,171.911011 442.040205,171.412011 442.934205,170.509011 C443.775205,169.658011 444.340205,168.492011 444.569205,167.134011 C444.838205,165.536011 444.376205,164.122011 443.272205,163.155011 C442.666205,162.624011 441.884205,162.270011 441.028205,162.089011 C441.137205,156.749011 440.271205,151.311011 438.523205,146.249011 C438.810205,146.219011 439.086205,146.163011 439.364205,146.113011 C449.905205,166.420011 454.651205,190.085011 452.710205,212.878011 C452.644205,213.659011 453.223205,214.343011 454.003205,214.409011 L454.125205,214.415011 C454.853205,214.415011 455.470205,213.858011 455.533205,213.118011 C457.504205,189.951011 452.724205,165.907011 442.085205,145.221011 C442.261205,145.134011 442.445205,145.063011 442.616205,144.966011 C443.623205,144.392011 444.529205,143.634011 445.348205,142.701011 C449.430205,145.692011 453.029205,149.462011 455.810205,153.687011 C455.707205,153.802011 455.599205,153.912011 455.503205,154.035011 C454.537205,155.260011 454.197205,156.874011 454.615205,158.245011 C455.315205,160.578011 457.808205,161.645011 459.847205,161.648011 C460.689205,161.648011 461.403205,161.504011 462.025205,161.211011 C463.293205,160.614011 464.206205,159.369011 464.471205,157.877011 C464.679205,156.699011 464.480205,155.420011 463.896205,154.175011 C463.207205,152.707011 462.025205,151.806011 460.567205,151.638011 C459.758205,151.546011 458.915205,151.699011 458.110205,152.034011 C455.146205,147.555011 451.321205,143.559011 446.984205,140.387011 C447.612205,139.288011 448.161205,138.018011 448.647205,136.597011 C456.337205,138.885011 463.774205,142.020011 470.772205,145.938011 C470.462205,146.374011 470.186205,146.833011 469.953205,147.323011 C468.968205,149.393011 468.661205,151.881011 469.095205,154.327011 C469.273205,155.352011 469.558205,156.202011 469.959205,156.920011 C470.412205,157.724011 471.012205,158.388011 471.612205,158.983011 C472.772205,160.155011 474.032005,161.251011 475.352005,162.242011 C475.612005,162.432011 475.912005,162.525011 476.202005,162.525011 C476.632005,162.525011 477.062005,162.328011 477.342005,161.958011 C477.802005,161.332011 477.682005,160.444011 477.052005,159.975011 C475.842005,159.066011 474.682005,158.060011 473.622005,156.986011 C473.202005,156.566011 472.732205,156.072011 472.432205,155.539011 C472.192205,155.100011 472.012205,154.544011 471.882205,153.837011 C471.652205,152.535011 471.712205,151.238011 472.002205,150.045011 C474.342005,154.151011 478.382005,157.235011 482.982005,158.347011 C483.092005,158.374011 483.212005,158.387011 483.312005,158.387011 C483.952005,158.387011 484.532005,157.951011 484.692005,157.302011 C484.872005,156.542011 484.412005,155.776011 483.652005,155.593011 C479.572005,154.608011 476.012005,151.791011 474.112005,148.054011 C473.862005,147.550011 473.852005,147.369011 473.862005,147.328011 C473.922005,147.164011 473.932005,146.995011 473.932005,146.829011 C474.042005,146.874011 474.152005,146.929011 474.272005,146.944011 C477.942005,147.402011 481.482005,148.750011 484.522005,150.842011 C484.762005,151.012011 485.042005,151.092011 485.322005,151.092011 C485.772005,151.092011 486.212005,150.878011 486.492005,150.479011 C486.932005,149.834011 486.772005,148.951011 486.132005,148.509011 C483.642005,146.797011 480.852005,145.534011 477.962005,144.769011 C479.772005,144.543011 481.442005,144.626011 482.912005,145.010011 C484.552005,145.436011 485.952005,146.236011 486.962005,147.319011 C487.492005,147.889011 488.392005,147.924011 488.962005,147.387011 C489.532005,146.853011 489.562005,145.956011 489.032005,145.385011 C487.652005,143.909011 485.782005,142.830011 483.632005,142.267011 C481.802005,141.794011 479.782005,141.692011 477.612005,141.957011 C476.702005,142.071011 475.972005,142.227011 475.302005,142.453011 C474.362005,142.767011 473.492005,143.256011 472.712205,143.872011 C472.612205,143.771011 472.522205,143.669011 472.392205,143.597011 C465.144205,139.513011 457.429205,136.253011 449.449205,133.880011 C449.505205,133.648011 449.557205,133.409011 449.607205,133.167011 C449.746205,133.185011 449.886205,133.202011 450.029205,133.179011 C455.375205,132.176011 461.019205,132.232011 466.357205,133.320011 C466.365205,133.473011 466.368205,133.627011 466.386205,133.782011 C466.572205,135.325011 467.477205,136.704011 468.744205,137.382011 C469.392205,137.728011 470.073205,137.877011 470.752205,137.877011 C472.312205,137.877011 473.842005,137.080011 474.842005,136.081011 C475.432005,135.481011 475.842005,134.870011 476.072005,134.215011 C476.532005,132.914011 476.292005,131.349011 475.432005,130.132011 C474.742005,129.153011 473.702005,128.391011 472.402205,127.928011 C470.882205,127.380011 469.408205,127.584011 468.257205,128.502011 C467.627205,129.005011 467.141205,129.712011 466.811205,130.524011 C461.303205,129.416011 455.502205,129.347011 449.970205,130.318011 C450.000205,129.679011 449.994205,129.028011 449.934205,128.368011 C456.501205,127.808011 462.961205,126.372011 469.148205,124.084011 C473.212005,122.583011 478.212005,120.282011 481.142005,115.834011 C482.372005,116.804011 483.742005,117.469011 485.142005,117.727011 C485.692005,117.828011 486.242005,117.871011 486.772005,117.871011 C488.222005,117.871011 489.562005,117.558011 490.662005,117.254011 C492.992005,116.604011 495.241005,115.658011 497.332005,114.443011 C498.012005,114.051011 498.241005,113.183011 497.851005,112.507011 C497.452005,111.825011 496.582005,111.600011 495.912005,111.991011 C494.022005,113.085011 492.002005,113.939011 489.892005,114.526011 C488.112005,115.021011 486.812005,115.153011 485.662005,114.941011 C484.492005,114.725011 483.342005,114.083011 482.332005,113.126011 C482.562005,113.143011 482.792005,113.163011 483.022005,113.163011 C486.682005,113.163011 489.842005,111.007011 491.102005,110.016011 C492.032005,109.284011 493.302005,108.114011 493.652005,106.405011 C493.812005,105.637011 493.312005,104.890011 492.542005,104.735011 C491.802005,104.577011 491.032005,105.076011 490.872005,105.844011 C490.752005,106.448011 490.272005,107.068011 489.352005,107.790011 C487.072005,109.582011 484.482005,110.512011 482.342005,110.293011 C482.182005,110.277011 482.112005,110.239011 482.042005,110.252011 C482.032005,109.781011 482.642005,108.430011 483.752005,107.138011 C485.122005,105.550011 487.002005,104.360011 488.832005,103.311011 C489.522005,102.923011 489.752005,102.056011 489.362005,101.377011 C488.972005,100.696011 488.102005,100.462011 487.432005,100.851011 C485.382005,102.027011 483.252005,103.379011 481.602005,105.293011 C481.232005,105.722011 480.462005,106.681011 479.902005,107.812011 C479.922005,107.530011 479.932005,107.251011 479.982005,106.938011 C480.362005,104.727011 481.492005,102.676011 483.152005,101.164011 C483.732005,100.638011 483.772005,99.7420112 483.242005,99.1630112 C482.722005,98.5850112 481.832005,98.5420112 481.242005,99.0690112 C479.112005,101.002011 477.672005,103.627011 477.192005,106.462011 C476.982005,107.693011 476.982005,108.782011 477.182005,109.792011 C477.402005,110.908011 477.892005,112.009011 478.672005,113.157011 C478.822005,113.393011 479.002005,113.614011 479.172005,113.835011 C479.082005,113.917011 478.982005,113.992011 478.912005,114.099011 C476.452005,117.981011 471.872205,120.055011 468.163205,121.427011 C462.103205,123.668011 455.770205,125.064011 449.332205,125.579011 C449.118205,124.921011 448.864205,124.289011 448.559205,123.695011 C452.548205,122.671011 456.404205,120.924011 459.801205,118.600011 C460.279205,119.019011 460.819205,119.331011 461.394205,119.487011 C461.696205,119.569011 461.998205,119.609011 462.296205,119.609011 C463.196205,119.609011 464.067205,119.244011 464.817205,118.541011 C465.639205,117.767011 466.182205,116.846011 466.378205,115.882011 C466.635205,114.656011 466.298205,113.364011 465.498205,112.507011 C465.094205,112.073011 464.579205,111.738011 463.929205,111.483011 C462.371205,110.868011 460.116205,110.934011 458.840205,112.534011 C458.076205,113.496011 457.844205,114.828011 458.220205,116.101011 L458.263205,116.220011 C454.896205,118.536011 451.032205,120.244011 447.054205,121.156011 L446.864205,121.242011 C446.405205,120.725011 445.905205,120.248011 445.359205,119.816011 C447.750205,117.180011 449.605205,114.125011 450.759205,110.930011 C450.903205,110.986011 451.027205,111.050011 451.178205,111.104011 C452.188205,111.462011 453.037205,111.670011 453.853205,111.754011 C454.133205,111.784011 454.415205,111.797011 454.700205,111.797011 C456.648205,111.797011 458.674205,111.127011 460.487205,109.868011 C462.078205,108.764011 463.497205,107.252011 464.953205,105.112011 C465.390205,104.465011 465.224205,103.584011 464.577205,103.144011 C463.937205,102.707011 463.055205,102.870011 462.606205,103.520011 C461.355205,105.363011 460.168205,106.640011 458.871205,107.541011 C457.351205,108.596011 455.691205,109.100011 454.144205,108.934011 C453.780205,108.897011 453.377205,108.805011 452.947205,108.685011 L453.001205,108.656011 C454.302205,107.941011 455.799205,107.083011 457.108205,105.927011 C458.588205,104.619011 459.620205,103.084011 460.096205,101.489011 C460.318205,100.739011 459.892205,99.9510112 459.142205,99.7280112 C458.384205,99.5020112 457.603205,99.9320112 457.379205,100.681011 C457.055205,101.767011 456.313205,102.847011 455.232205,103.803011 C454.321205,104.606011 453.245205,105.270011 452.199205,105.860011 C452.747205,103.728011 453.486205,101.577011 454.833205,99.9160112 C455.326205,99.3080112 455.232205,98.4160112 454.626205,97.9240112 C454.020205,97.4320112 453.128205,97.5210112 452.630205,98.1310112 C450.588205,100.651011 449.755205,103.772011 449.098205,106.640011 C448.984205,106.520011 448.859205,106.404011 448.764205,106.276011 C447.979205,105.212011 447.818205,103.861011 447.824205,102.916011 C447.835205,101.565011 448.161205,100.169011 448.496205,98.8560112 C448.690205,98.0980112 448.233205,97.3270112 447.475205,97.1340112 C446.717205,96.9430112 445.945205,97.3980112 445.751205,98.1560112 C445.372205,99.6380112 445.001205,101.225011 444.990205,102.896011 C444.979205,104.873011 445.496205,106.625011 446.490205,107.965011 C446.947205,108.581011 447.532205,109.123011 448.225205,109.613011 C447.172205,112.698011 445.377205,115.659011 443.028205,118.176011 L442.944205,118.313011 C441.928205,117.831011 440.834205,117.445011 439.644205,117.199011 C439.149205,117.096011 438.648205,117.023011 438.146205,116.966011 C440.569205,108.074011 440.621205,98.4380112 438.274205,89.5420112 C439.818205,89.0420112 441.291205,88.2510112 442.569205,87.1700112 C445.549205,84.6460112 447.436205,80.7510112 447.749205,76.4870112 C447.804205,75.7050112 447.218205,75.0270112 446.437205,74.9710112 C445.729205,74.8930112 444.979205,75.4980112 444.921205,76.2800112 C444.666205,79.7910112 443.141205,82.9720112 440.737205,85.0070112 C440.175205,85.4840112 439.560205,85.8780112 438.921205,86.2130112 C439.988205,82.0150112 440.495205,77.7070112 440.374205,73.3770112 C440.352205,72.5950112 439.613205,71.9970112 438.919205,72 C438.136205,72.0220112 437.518205,72.6750112 437.541205,73.4570112 C437.668205,77.9290112 437.112205,82.3830112 435.891205,86.6910112 L435.877205,86.7380112 C435.745205,86.5360112 435.626205,86.3140112 435.512205,86.0970112 C433.761205,82.6850112 432.950205,78.8630112 433.166205,75.0400112 C433.210205,74.2580112 432.612205,73.5900112 431.832205,73.5450112 C430.988205,73.5340112 430.382205,74.1010112 430.337205,74.8790112 C430.096205,79.1270112 430.983205,83.3720112 432.890205,87.1770112 C432.508205,87.1020112 432.133205,87.0010112 431.768205,86.8710112 C430.819205,86.5340112 429.823205,85.9740112 428.724205,85.1640112 C427.470205,84.2350112 426.535205,83.3150112 425.871205,82.3530112 C425.340205,81.5830112 424.703205,80.3670112 424.681205,78.9490112 C424.670205,78.1740112 424.036205,77.5530112 423.242205,77.5530112 C422.462205,77.5630112 421.836205,78.2080112 421.847205,78.9900112 C421.872205,80.6750112 422.456205,82.3940112 423.538205,83.9630112 C424.385205,85.1870112 425.531205,86.3260112 427.042205,87.4410112 C428.367205,88.4220112 429.604205,89.1100112 430.819205,89.5410112 C431.989205,89.9580112 433.232205,90.1600112 434.488205,90.1600112 C434.825205,90.1600112 435.163205,90.1430112 435.501205,90.1140112 C437.818205,98.7930112 437.730205,108.232011 435.243205,116.877011 C434.965205,116.890011 434.688205,116.904011 434.411205,116.930011 C434.628205,112.759011 434.090205,108.489011 432.841205,104.496011 C433.382205,104.162011 433.840205,103.736011 434.159205,103.233011 C434.826205,102.174011 434.859205,100.915011 434.256205,99.6820112 C433.755205,98.6660112 433.033205,97.8810112 432.169205,97.4090112 C431.057205,96.7970112 429.751205,96.7430112 428.683205,97.2650112 C428.157205,97.5220112 427.686205,97.9140112 427.246205,98.4650112 C426.200205,99.7750112 425.603205,101.951011 426.762205,103.637011 C427.448205,104.636011 428.688205,105.263011 429.992205,105.275011 L430.044205,105.275011 L430.118205,105.270011 C431.346205,109.171011 431.846205,113.363011 431.550205,117.428011 C430.828205,117.609011 430.119205,117.828011 429.429205,118.090011 C427.409205,109.851011 423.233205,102.307011 417.290205,96.2440112 C417.137205,96.0890112 416.955205,95.9870112 416.763205,95.9160112 C417.263205,94.9370112 417.610205,93.8820112 417.766205,92.7840112 C418.040205,90.8530112 417.782205,88.7680112 416.980205,86.4130112 C416.152205,83.9840112 414.506205,80.6420112 411.357205,78.5190112 C410.712205,78.0890112 409.829205,78.2500112 409.389205,78.9030112 C408.952205,79.5520112 409.124205,80.4320112 409.774205,80.8690112 C412.267205,82.5520112 413.609205,85.3090112 414.296205,87.3260112 C414.951205,89.2510112 415.170205,90.9070112 414.960205,92.3890112 C414.872205,93.0080112 414.672205,93.6050112 414.420205,94.1820112 C412.231205,89.6050112 409.423205,86.1490112 406.043205,83.9240112 C405.388205,83.4930112 404.511205,83.6720112 404.079205,84.3280112 C403.650205,84.9810112 403.830205,85.8600112 404.483205,86.2900112 C407.236205,88.1020112 409.661205,91.0150112 411.570205,94.7810112 C407.848205,94.5820112 404.226205,92.8640112 401.768205,90.0470112 C401.253205,89.4560112 400.354205,89.3980112 399.768205,89.9090112 C399.178205,90.4240112 399.117205,91.3200112 399.632205,91.9090112 C402.633205,95.3470112 407.075205,97.4040112 411.619205,97.5960112 C410.641205,98.2860112 409.522205,98.7820112 408.335205,98.9760112 C405.084205,99.5050112 401.453205,97.9060112 399.496205,95.0730112 C399.051205,94.4270112 398.165205,94.2730112 397.526205,94.7120112 C396.881205,95.1560112 396.721205,96.0390112 397.166205,96.6840112 C399.416205,99.9440112 403.227205,101.914011 407.043205,101.914011 C407.627205,101.914011 408.213205,101.867011 408.794205,101.771011 C411.311205,101.359011 413.582205,100.024011 415.223205,98.1650112 L415.264205,98.2280112 C420.990205,104.066011 424.986205,111.360011 426.827205,119.324011 C425.435205,120.123011 424.178205,121.098011 423.119205,122.228011 C420.276205,120.623011 417.768205,118.385011 415.867205,115.724011 C415.769205,115.587011 415.645205,115.484011 415.514205,115.393011 C416.017205,113.691011 415.831205,111.724011 414.943205,109.829011 C414.055205,107.935011 412.644205,106.398011 411.398205,105.041011 C410.870205,104.463011 409.970205,104.428011 409.398205,104.954011 C408.822205,105.482011 408.783205,106.379011 409.312205,106.956011 C410.471205,108.222011 411.672205,109.531011 412.378205,111.034011 C412.985205,112.327011 413.089205,113.654011 412.735205,114.709011 C412.458205,113.716011 411.940205,112.756011 411.412205,112.088011 C410.435205,110.852011 409.395205,109.659011 408.318205,108.541011 C407.773205,107.977011 406.879205,107.965011 406.315205,108.503011 C405.750205,109.045011 405.734205,109.942011 406.276205,110.506011 C407.289205,111.558011 408.268205,112.682011 409.190205,113.845011 C409.378205,114.084011 409.555205,114.376011 409.702205,114.677011 C407.508205,114.436011 405.366205,113.500011 403.739205,112.033011 C403.157205,111.511011 402.264205,111.559011 401.738205,112.136011 C401.212205,112.719011 401.259205,113.614011 401.840205,114.138011 C403.824205,115.926011 406.321205,117.057011 408.942205,117.429011 C408.179205,117.555011 407.326205,117.597011 406.323205,117.538011 C403.957205,117.397011 402.189205,116.781011 401.063205,115.709011 C400.501205,115.169011 399.605205,115.188011 399.059205,115.756011 C398.520205,116.323011 398.542205,117.220011 399.109205,117.759011 C400.730205,119.306011 403.102205,120.183011 406.152205,120.366011 C406.542205,120.389011 406.913205,120.401011 407.272205,120.401011 C408.703205,120.401011 409.912205,120.215011 411.019205,119.829011 C412.190205,119.423011 413.194205,118.752011 413.989205,117.936011 C415.994205,120.578011 418.528205,122.827011 421.385205,124.501011 C420.669205,125.693011 420.154205,126.983011 419.828205,128.309011 C415.874205,128.371011 411.868205,127.680011 408.163205,126.325011 L408.174205,126.197011 C408.219205,124.872011 407.663205,123.639011 406.683205,122.899011 C405.056205,121.669011 402.848205,122.166011 401.494205,123.150011 C400.924205,123.565011 400.509205,124.016011 400.230205,124.531011 C399.660205,125.574011 399.654205,126.879011 400.216205,128.017011 C400.653205,128.910011 401.406205,129.668011 402.397205,130.208011 C403.016205,130.547011 403.650205,130.717011 404.270205,130.717011 C404.851205,130.717011 405.416205,130.569011 405.941205,130.271011 C406.459205,129.977011 406.906205,129.539011 407.265205,129.013011 C411.125205,130.414011 415.290205,131.154011 419.429205,131.154011 C419.397205,132.030011 419.442205,132.902011 419.572205,133.755011 C419.467205,133.759011 419.362205,133.746011 419.257205,133.775011 C410.252205,136.199011 400.173205,134.214011 392.746205,128.626011 C393.965205,123.453011 392.523205,117.831011 388.937205,113.903011 C388.411205,113.326011 387.517205,113.284011 386.936205,113.812011 C386.357205,114.339011 386.316205,115.236011 386.845205,115.812011 C389.446205,118.663011 390.701205,122.754011 390.239205,126.594011 C390.029205,126.377011 389.812205,126.162011 389.592205,125.945011 C388.457205,124.813011 387.270205,123.734011 386.065205,122.678011 C385.225205,121.943011 383.734205,120.075011 382.506205,120.126011 C382.126205,120.142011 381.762205,120.370011 381.583205,120.705011 C381.419205,121.009011 381.407205,121.370011 381.422205,121.715011 C381.468205,122.818011 382.994205,123.762011 383.768205,124.435011 C385.127205,125.617011 386.465205,126.826011 387.741205,128.097011 C387.962205,128.318011 388.187205,128.539011 388.394205,128.763011 C388.007205,128.849011 387.550205,128.902011 387.016205,128.922011 C383.407205,129.078011 379.727205,128.006011 376.722205,125.950011 C376.102205,125.524011 375.261205,125.657011 374.799205,126.256011 C374.339205,126.852011 374.428205,127.702011 374.998205,128.193011 L375.305205,128.454011 C375.449205,128.578011 375.612205,128.666011 375.784205,128.722011 C378.944205,130.701011 382.652205,131.768011 386.380205,131.768011 C386.628205,131.768011 386.878205,131.763011 387.127205,131.753011 C387.481205,131.740011 387.885205,131.710011 388.310205,131.651011 C387.917205,132.164011 387.496205,132.628011 387.016205,132.973011 Z"
                      id="Fill-1"
                      transform="translate(435.520458, 143.207506) rotate(18.000000) translate(-435.520458, -143.207506) "></path>
                <path d="M23.5904888,59.3350617 C23.5824888,57.1040617 24.2684888,54.8900617 25.4194888,53.1020617 L29.3874888,56.8950617 C28.3064888,58.6800617 27.1554888,60.2580617 25.5364888,61.1830617 L23.5684888,59.4490617 L23.5904888,59.3350617 Z M36.2434888,54.6340617 C37.7754888,56.3870617 39.4624888,58.5040617 40.3504888,60.8930617 C41.1174888,62.9650617 40.8014888,66.9400617 39.7214888,69.0090617 C38.1714888,70.8850617 36.7694888,72.8740617 35.5224888,74.9550617 C35.4134888,73.3680617 35.0614888,71.7860617 34.3244888,70.3010617 C33.1104888,67.8540617 31.0584888,66.0470617 29.2474888,64.4520617 L27.7514888,63.1330617 C29.9624888,61.5590617 31.3424888,59.1980617 32.6764888,56.8980617 C33.2264888,55.9470617 33.7754888,54.9960617 34.3864888,54.1150617 C34.5924888,53.8150617 34.7414888,53.6460617 34.8214888,53.6070617 C34.9184888,53.5600617 35.4424888,53.7200617 36.2434888,54.6340617 Z M37.6904888,106.262562 C35.8554888,108.213562 34.1494888,109.570562 32.4454888,110.434562 C32.6244888,109.446662 32.7624888,108.454562 32.8704888,107.458562 C38.9244888,102.245662 43.2614888,95.1815617 45.0914888,87.3975617 C45.9694888,83.6840617 46.3654888,79.4900617 46.3444888,74.2050617 C46.3334888,71.6230617 46.2124888,69.0240617 46.0214888,66.4520617 L46.0284888,66.4440617 C50.8114888,79.8860617 47.4684888,95.8725617 37.6904888,106.262562 Z M21.4904888,105.018562 C20.4864888,104.321662 19.4604888,103.645562 18.4344888,102.969662 C15.4444888,101.001562 12.6224888,99.1465617 10.2724888,96.7085617 C4.57748881,90.8015617 1.96148881,81.3640617 3.09348881,70.8140617 C3.22448881,69.5940617 3.56348881,69.1340617 3.70748881,69.1040617 C3.90248881,69.0610617 4.42548881,69.3030617 4.67648881,69.4190617 L11.4194888,72.5460617 C14.7914888,74.1090617 18.2654888,75.7210617 21.0354888,78.1360617 C21.3904888,78.4450617 21.7334888,78.7680617 22.0654888,79.1070617 C23.6064888,80.6830617 24.9794888,82.7160617 26.2614888,85.3220617 C30.3614888,93.6695617 31.3674888,103.333562 29.1514888,112.325562 C27.3064888,109.452562 24.6954888,107.250562 21.4904888,105.018562 Z M17.1854888,59.0600617 C15.6764888,61.8240617 15.7604888,65.2430617 16.0114888,68.7940617 C16.0764888,69.7280617 16.1584888,70.7930617 16.4374888,71.8140617 C15.1444888,71.1550617 13.8504888,70.5500617 12.6104888,69.9750617 L10.5124888,69.0030617 C10.8724888,65.0520617 14.0844888,61.6830617 17.1854888,59.0600617 Z M17.3334888,72.2810617 C16.8904888,71.1450617 16.7944888,69.8470617 16.7164888,68.7440617 C16.4644888,65.1590617 16.3824888,61.7200617 17.9994888,59.0650617 C18.5934888,62.4220617 20.1004888,65.0560617 21.6914888,67.8340617 C22.1834888,68.6920617 22.6904888,69.5760617 23.1874888,70.5100617 C24.8034888,73.5500617 26.3924888,77.0030617 26.7924888,80.5410617 C25.9444888,79.2500617 25.0514888,78.1070617 24.0904888,77.1250617 C22.1174888,75.1020617 19.7474888,73.5710617 17.3334888,72.2810617 Z M41.4214888,80.2130617 C41.0364888,81.9640617 40.6454888,83.7340617 40.2314888,85.5315617 C38.7054888,92.1475617 36.5414888,100.146562 33.0334888,105.608562 C33.3074888,101.382562 32.9514888,97.1265617 31.9814888,93.0025617 L31.9864888,92.9885617 C32.4244888,90.0686617 33.1574888,87.2115617 34.1474888,84.4540617 L34.1584888,84.4290617 L34.1694888,84.3900617 C36.3544888,78.3240617 39.8174888,72.7520617 44.3344888,68.1070617 C43.2104888,72.1380617 42.3304888,76.0860617 41.4214888,80.2130617 Z M45.3744888,67.0760617 C45.5384888,69.4450617 45.6264888,71.8360617 45.6364888,74.2090617 C45.6574888,79.4360617 45.2654888,83.5770617 44.4034888,87.2356617 C42.7514888,94.2595617 39.0374888,100.705562 33.8304888,105.673562 C37.2814888,100.128662 39.4114888,92.2365617 40.9234888,85.6905617 C41.3384888,83.8930617 41.7264888,82.1190617 42.1144888,80.3660617 C43.1104888,75.8400617 44.0594888,71.5360617 45.3464888,67.1030617 L45.3744888,67.0760617 Z M27.3724888,66.5770617 C29.0674888,68.0690617 30.8194888,69.6130617 31.7864888,71.5610617 C33.4874888,74.9880617 32.6074888,79.2000617 31.4514888,83.5830617 C31.0024888,84.8450617 30.6044888,86.1255617 30.2614888,87.4235617 C29.8224888,86.2895617 29.3424888,85.1690617 28.8044888,84.0740617 C28.4054888,83.2620617 27.9934888,82.5110617 27.5724888,81.7930617 C27.4604888,77.6750617 25.6634888,73.6580617 23.8134888,70.1790617 C23.3124888,69.2380617 22.8034888,68.3480617 22.3064888,67.4820617 C20.6844888,64.6490617 19.2764888,62.1610617 18.7114888,58.9460617 L27.3724888,66.5770617 Z M17.6654888,133.214662 C14.0304888,130.031562 10.9734888,126.063662 8.05448881,122.206662 C7.20448881,121.083562 6.31648881,119.882562 5.53548881,118.622562 C6.20348881,119.411562 6.85848881,120.227662 7.49848881,121.041562 C8.49548881,122.310562 9.52648881,123.622562 10.5824888,124.734562 C13.7774888,128.097662 17.1604888,131.356562 20.6384888,134.415562 L20.7904888,134.548562 C22.7224888,136.232662 24.8064888,137.732662 27.0924888,138.021562 C26.0534888,138.464662 23.5284888,138.259562 17.6654888,133.214662 Z M23.7174888,131.140562 L23.7204888,131.142562 L24.0544888,131.486562 C25.0914888,132.555662 27.7134888,135.274662 27.8384888,136.908562 C27.7934888,137.060562 27.7744888,137.211562 27.7804888,137.365662 C25.4444888,137.326662 23.2714888,135.771562 21.2564888,134.014562 L21.1074888,133.885562 C17.6444888,130.837562 14.2754888,127.593562 11.0964888,124.246562 C10.0634888,123.157662 9.08748881,121.918562 8.05648881,120.604562 C6.92348881,119.162662 5.76248881,117.705562 4.50948881,116.438662 C11.7954888,119.167662 17.7714888,124.938662 23.7174888,131.140562 Z M57.7984888,113.391662 C58.8274888,112.910562 59.8894888,112.412662 60.9034888,111.780562 C61.7584888,111.246562 62.5674888,110.606562 63.3294888,109.889562 C69.2004888,107.771562 75.2234888,105.994562 81.2954888,104.640562 C83.3314888,104.185562 85.4434888,103.799562 87.4384888,104.029662 C88.5884888,104.440562 89.7124888,104.924562 90.7904888,105.502562 C90.6164888,105.784562 90.4264888,106.059562 90.2364888,106.334662 C83.4484888,110.017562 76.1794888,112.639562 68.5844888,114.111562 C65.9794888,114.616562 62.8434888,115.055662 59.7254888,114.758562 C59.0124888,114.317562 58.2964888,113.885562 57.5604888,113.504562 L57.7984888,113.391662 Z M54.9174888,111.486562 L54.9154888,111.484562 C54.9594888,108.020562 56.8444888,104.863562 58.8394888,101.527562 C59.2354888,100.866562 59.6294888,100.208562 60.0054888,99.5506617 C62.8764888,94.5435617 64.8994888,89.1685617 66.0434888,83.5450617 C67.0724888,85.1710617 67.5244888,87.6416617 67.3924888,90.9295617 C67.2204888,95.2456617 66.6354888,98.5775617 65.5554888,101.420662 C64.2334888,104.899662 62.0484888,107.725562 59.4014888,109.376562 C58.5344888,109.920662 57.5934888,110.359562 56.5984888,110.826662 C56.0784888,111.068662 55.5494888,111.317562 55.0224888,111.585562 L54.9174888,111.486562 Z M85.0874888,103.305662 C83.7394888,103.409562 82.3994888,103.668562 81.1424888,103.948562 C75.5074888,105.204562 69.9144888,106.816562 64.4454888,108.729562 C65.3354888,107.720562 66.1424888,106.594662 66.8364888,105.356562 L66.8824888,105.343562 C72.4294888,102.439562 79.0384888,101.779662 85.0874888,103.305662 Z M78.0164888,115.702562 C75.1634888,116.227662 72.2664888,116.709662 69.3454888,117.011662 C67.6974888,117.183662 65.9774888,117.291562 64.2924888,117.122562 C63.3024888,116.809562 62.3754888,116.438662 61.6234888,116.037662 C61.3964888,115.875562 61.1714888,115.709662 60.9414888,115.553562 C63.7074888,115.650562 66.4194888,115.253662 68.7204888,114.806562 C75.8934888,113.417662 82.7814888,111.013562 89.2504888,107.662662 C86.5414888,111.006662 82.6824888,113.755562 78.0164888,115.702562 Z M86.0154888,124.757562 L85.8914888,124.752562 C84.5974888,124.682562 83.2574888,124.384562 81.9584888,124.096562 L67.2454888,120.839662 L67.1274888,120.837562 L66.9544888,120.663562 C68.5744888,120.915562 70.1104888,120.962562 71.2814888,120.720562 C75.6594888,119.813662 79.6404888,118.323562 83.0884888,116.367562 C85.3684888,118.412662 86.4554888,121.563662 86.0154888,124.757562 Z M72.7554888,134.117562 C73.1404888,134.922562 74.3034888,137.630562 73.1074963,138.661562 C72.0924888,139.534562 70.0374888,138.624562 69.2004888,138.190562 C60.8254888,133.858562 54.9014888,124.984562 54.1204888,115.580562 C54.1024888,115.357662 54.1074963,115.165562 54.1104888,115.019662 C55.6084888,115.642562 57.0634888,116.406562 58.4714888,117.293562 L58.5574888,117.371562 C59.0064888,117.762562 59.5774888,118.136662 60.2234888,118.487562 C65.2734888,122.161562 69.6034888,127.517562 72.7554888,134.117562 Z M74.1364888,117.083562 C73.0254888,117.412662 71.8824888,117.700562 70.7064888,117.944562 C69.8974888,118.111562 68.7514888,118.068662 67.5034888,117.877562 C68.1494888,117.839662 68.7904888,117.783562 69.4194888,117.718562 C71.0024888,117.553562 72.5724888,117.328562 74.1364888,117.083562 Z M39.3904888,145.945562 L41.9944888,144.957562 C40.5374888,145.856562 39.0384888,146.693662 37.5654888,147.504562 C35.9994888,148.368562 34.3804888,149.258562 32.8404888,150.224562 C31.2194888,151.237562 29.8024888,152.609562 28.4344888,153.939562 C28.0634888,154.299562 27.6874888,154.644662 27.3144888,154.995662 C27.5874888,153.445562 29.5344888,151.136662 30.9744888,150.053562 C33.4394888,148.198562 36.4654888,147.052562 39.3904888,145.945562 Z M28.2024888,155.148562 C28.4454888,154.916562 28.6864888,154.682562 28.9284888,154.446662 C30.2694888,153.144662 31.6574888,151.796562 33.2134888,150.824562 C34.7394888,149.870662 36.3484888,148.983562 37.9074888,148.126562 C39.7134888,147.131662 41.5664888,146.112562 43.3324888,144.960562 C39.2704888,149.586562 34.0204888,153.127562 28.2024888,155.148562 Z M37.4884888,152.810562 C34.0694888,155.241562 29.6054888,157.265562 28.0554888,156.445562 C27.8264888,156.323562 27.6804888,156.202562 27.5654888,156.083562 C33.6454888,154.143562 39.1524888,150.587562 43.4394888,145.871562 C42.1144888,148.557562 40.0724888,150.974562 37.4884888,152.810562 Z M19.7064888,56.0460617 C19.5404888,55.9080617 19.2284888,55.6210617 18.7874888,55.4750617 C17.5794888,55.0700617 16.5814888,55.8830617 16.2564888,56.1500617 C12.7094888,59.0290617 8.70648881,62.8740617 7.82348881,67.7550617 L5.86848881,66.8480617 C5.21448881,66.5450617 4.22848881,66.0890617 3.10248881,66.3360617 C1.99248881,66.5770617 0.60148881,67.5000617 0.27448881,70.5100617 C-0.94851119,81.8970617 1.95248881,92.1626617 8.23448881,98.6765617 C10.8014888,101.344662 13.8934888,103.373662 16.8764888,105.337562 C17.8824888,105.999562 18.8884888,106.659562 19.8724888,107.345562 C23.7614888,110.053562 26.6564888,112.661562 28.1494888,116.612562 L28.1874888,116.715562 C30.0744888,121.798562 30.3954888,127.436562 29.1704888,133.110662 C28.3044888,131.865662 27.1884888,130.647562 26.0864888,129.513562 L25.7624888,129.178562 L25.7644888,129.179562 C18.8004888,121.916562 11.7844888,115.208562 2.52048881,112.835562 C2.05148881,112.715562 1.55248881,112.841562 1.20048881,113.173562 C0.84748881,113.502562 0.68648881,113.989562 0.77548881,114.465562 C1.46548881,118.192562 3.76548881,121.233562 5.79448881,123.914562 C8.75948881,127.832562 11.8224888,131.881662 15.6464888,135.213562 L15.8154888,135.361562 C18.9844888,138.087562 23.3484888,141.376562 26.8954888,140.962562 C26.0144888,143.709662 25.1354888,146.537662 24.6064888,149.449562 C22.3234888,162.001562 27.2154888,175.752562 36.8254888,184.131662 C37.1744888,184.435562 37.5314888,184.733562 37.8924888,185.022562 C38.5024888,185.513562 39.3944888,185.414562 39.8854888,184.805662 C40.3744888,184.192562 40.3204888,183.278562 39.6654888,182.813662 C32.5184888,177.081662 27.9594888,168.218562 27.0494888,159.079562 C30.8284888,160.668562 37.2164888,156.480562 39.1304888,155.120662 C43.6394888,151.916562 46.7524888,147.157662 47.6774888,142.070562 C47.7684888,141.566562 47.5884888,141.044562 47.1894888,140.727662 C46.7974888,140.402562 46.2594888,140.311562 45.7824888,140.492562 L38.3864888,143.295662 C35.2744888,144.472662 32.0604888,145.691562 29.2714888,147.787662 L29.2704888,147.788562 C28.8544888,148.101562 28.2044888,148.667662 27.5144888,149.396562 C28.0704888,146.594662 28.9574888,143.801562 29.8284888,141.093562 C30.3164888,139.575562 30.7904888,138.053562 31.2274888,136.520562 C33.6634888,132.120662 36.4294888,127.599562 39.9684888,123.629562 C43.4054888,119.780562 47.2734888,116.881662 51.2774888,115.139562 C51.2714888,115.356562 51.2774888,115.582562 51.2964888,115.813662 C52.1554888,126.167662 58.6634888,135.934562 67.8994888,140.710562 C70.7914888,142.201662 73.2974888,142.237562 74.9584888,140.808662 C76.8474888,139.180662 76.9734888,136.370662 75.3114888,132.895562 C73.8254888,129.783562 72.0764888,126.941562 70.1314888,124.380562 L81.3454888,126.862562 C82.7534888,127.176562 84.2094888,127.498662 85.7364888,127.583562 C86.1634888,127.606562 87.2984888,127.669562 88.0934888,126.842562 C88.6644888,126.262562 88.7814888,125.509562 88.8304888,125.191562 C89.4144888,121.481562 88.1574888,117.549562 85.5534888,114.824562 C89.2074888,112.304562 92.0984888,109.195562 93.9764888,105.638562 C94.3264888,104.980562 94.0854888,104.161562 93.4644888,103.770562 C86.0734888,99.2445617 76.6004888,98.4625617 68.5214888,101.520562 C69.5104888,98.5935617 70.0564888,95.2345617 70.2234888,91.0426617 C70.4594888,85.2140617 68.9814888,81.3130617 65.8264888,79.4740617 C65.4214888,79.2360617 64.9244888,79.2160617 64.5004888,79.4170617 C64.0764888,79.6200617 63.7804888,80.0190617 63.7104888,80.4830617 C62.7614888,86.7205617 60.6864888,92.6626617 57.5474888,98.1416617 C57.1784888,98.7835617 56.7934888,99.4265617 56.4084888,100.074562 C54.2554888,103.672562 52.0314888,107.395562 52.0834888,111.747562 L52.0834888,111.781562 C47.0124888,113.550662 42.1064888,116.980562 37.8554888,121.742562 C35.9124888,123.920662 34.2084888,126.242562 32.6584888,128.607662 C32.9354888,124.303562 32.3914888,120.084662 30.9974888,116.149662 C31.2544888,115.373662 31.4814888,114.589662 31.6914888,113.801562 C34.4214888,112.916562 36.9944888,111.137562 39.7554888,108.205562 C50.2734888,97.0265617 53.8494888,79.8090617 48.6534888,65.3660617 C48.5024888,64.9420617 48.0874888,63.8130617 46.9554888,63.4440617 C45.5854888,62.9980617 44.4994888,63.9990617 44.1434888,64.3280617 C43.9454888,64.5110617 43.7574888,64.7020617 43.5624888,64.8870617 C43.6734888,63.0650617 43.5074888,61.2560617 43.0074888,59.9090617 C41.9604888,57.0880617 40.0784888,54.7160617 38.3774888,52.7680617 C36.2494888,50.3390617 34.4924888,50.6370617 33.6314888,51.0360617 C32.9074888,51.3730617 32.4474888,51.9390617 32.0564888,52.5000617 C31.6384888,53.1050617 31.2484888,53.7420617 30.8664888,54.3880617 L27.2434888,50.9250617 C26.0064888,49.7090617 24.9094888,49.9520617 24.3934888,50.2110617 C23.9354888,50.4380617 23.6694888,50.7890617 23.5144888,50.9870617 C22.1714888,52.7910617 21.2844888,54.9140617 20.9304888,57.1250617 L19.7064888,56.0460617 Z"
                      id="Fill-1"></path>
                <path d="M1212.91617,6.62593152 C1212.43378,9.84373303 1211.88053,13.4805971 1210.36984,16.7007011 C1209.45865,18.6290795 1208.07613,20.3732545 1206.44994,22 C1205.12449,17.9993344 1207.07282,12.1462744 1207.86092,10.217896 C1209.03096,7.17393636 1210.36747,5.54028328 1212.06826,5.07862374 C1212.50962,4.95658905 1212.81783,5.00379115 1212.86893,5.04063181 C1212.89379,5.06135468 1213.1187,5.2766423 1212.91617,6.62593152 Z M1219,21.6048087 C1217.18871,24.6904166 1213.7465,26.451287 1210.54258,25.8995225 C1209.51724,25.7223042 1208.67445,25.3615835 1208,24.8035346 L1208.08526,24.7017284 C1210.28668,22.9408581 1212.82719,21.7254679 1215.47023,21.1749603 C1216.60379,20.9374125 1218.08069,20.8293219 1219,21.6048087 Z M1215.8799,65.7799405 C1217.40656,63.1537272 1219.57053,60.9281983 1221.48622,59.0955411 C1223.58078,57.0921186 1225.89266,55.126644 1228.60847,54.3208106 C1230.88917,53.6444463 1233.98615,53.9748156 1235.48961,55.9157358 C1235.69977,56.1858351 1235.86143,56.4949983 1236,56.818671 C1234.88915,59.2986736 1232.62011,61.3378117 1230.60049,62.766436 C1226.25871,65.8301656 1221.23333,67.951896 1216.37539,69.9988468 L1214,71 C1214.28764,68.9251463 1215.11547,67.091373 1215.8799,65.7799405 Z M1236.38004,61.9548707 C1235.5601,63.8192425 1234.03052,65.536396 1231.70328,67.1981955 C1227.81181,69.9800313 1223.25102,71.6371197 1218.51298,71.9904435 C1218.16306,72.0151762 1217.75421,71.9869103 1217.32541,71.9621776 C1217.22738,71.9562889 1217.10595,71.9539334 1217,71.9480447 L1217.9915,71.4910793 C1222.7185,69.3087161 1227.60582,67.0545105 1231.86481,63.7638884 C1233.69073,62.3529488 1235.70381,60.3920019 1236.92704,58 C1237.11642,59.2554771 1236.93818,60.6699499 1236.38004,61.9548707 Z M1229.28193,79.2776745 C1231.25042,80.1852713 1233.89173,81.8400956 1235.31174,84.5617239 C1236.03336,85.9434557 1236.25415,87.7553954 1235.65105,89 C1235.23272,87.847201 1234.37514,86.6618633 1233.06785,85.4844279 C1228.67768,81.5309782 1223.16963,79.0952254 1217.84157,76.7361711 C1216.55288,76.1667441 1215.27127,75.5891825 1214,75 C1215.24454,75.1162096 1217.24789,75.7449034 1218.5424,76.1504748 C1219.43356,76.431702 1220.22154,76.6757421 1220.77107,76.7954379 C1223.64838,77.4113487 1226.62076,78.0516635 1229.28193,79.2776745 Z M1226.30923,89.2764628 C1222.76456,87.4846924 1217.96956,84.2504775 1215.2694,78.9990162 L1215.1068,78.6853406 C1214.81412,78.1274379 1214.14679,76.8449563 1214,76 C1215.34565,76.6516581 1216.70924,77.2801667 1218.07721,77.9028879 C1223.16052,80.2247815 1228.41741,82.6253834 1232.56101,86.4751433 C1233.58146,87.4268187 1234.69723,88.7428671 1235,90.172348 L1234.93047,90.2475838 C1234.48641,90.6052434 1233.85844,90.8413682 1233.06451,90.9432259 C1231.18508,91.1851381 1229.03877,90.6584872 1226.30923,89.2764628 Z M1123.59424,125.91911 C1122.00593,125.783181 1119.96318,125.328562 1119.24717,123.932719 C1119.09299,123.632304 1119.01552,123.28163 1119,122.91268 C1125.85422,120.778937 1133.49761,118.476139 1141.05001,119.105525 C1141.3659,119.206044 1141.68744,119.300852 1142,119.404797 C1137.09209,124.018389 1130.20129,126.489099 1123.59424,125.91911 Z M1118.71854,120.503238 C1119.51011,119.499298 1120.77745,118.704608 1122.59276,118.075716 C1127.47176,116.389144 1132.84654,116.897974 1138,118.147753 C1131.08801,118.254093 1124.24528,120.171641 1118,122 C1118.03298,121.862787 1118.06113,121.725575 1118.11073,121.589505 C1118.24854,121.211027 1118.45221,120.840553 1118.71854,120.503238 Z M1134.81559,108.307018 C1133.21203,106.405742 1131.4673,103.599043 1132.15344,101 C1135.3308,105.93126 1138.96313,110.619139 1143,115 C1139.85092,113.246093 1137.05954,110.978628 1134.81559,108.307018 Z M1135.09216,98.0075393 C1137.24601,98.1234804 1139.46857,99.4965862 1141.03242,101.681279 C1142.53111,103.773902 1143.35924,106.348475 1144.14116,109.02535 C1144.80461,111.285064 1145.39579,113.976715 1144.65996,115.977266 L1144.65178,116 C1144.47289,115.918159 1144.3011,115.823815 1144.12457,115.738564 C1139.54202,110.695128 1135.483,105.208388 1132,99.4101988 C1132.14809,99.1487631 1132.33528,98.8918741 1132.58407,98.6827255 C1133.15867,98.1962277 1134.0721,97.9529788 1135.09216,98.0075393 Z M1137.90373,70.9799143 C1134.33877,71.0917511 1131.38511,70.7372284 1128.87399,69.8995707 C1125.92469,68.9165251 1123.48856,67.1729892 1122,65 C1127.79222,67.8261162 1134.21014,69.2553907 1140.66517,69.1100028 C1142.44094,69.0697416 1143.8724,68.7968597 1145,68.3003043 C1144.55757,68.9657333 1143.90939,69.5629419 1143.08912,69.9756197 C1141.52456,70.7651876 1139.58998,70.9251143 1137.90373,70.9799143 Z M1135.94411,63.2342527 C1139.81273,63.7068006 1143.31591,64.9763793 1146,66.8518695 C1144.87848,67.566992 1143.22541,67.9429301 1140.98351,67.9901849 C1134.41247,68.129849 1127.88037,66.7762618 1122,64.104791 C1122.18787,64.0428347 1122.4194,63.9777281 1122.75963,63.9168219 C1127.96744,62.9885278 1132.15682,62.773256 1135.94411,63.2342527 Z M1140.10739,48.8804208 C1139.95416,48.2487667 1140.00101,47.906275 1140.03083,48.0224141 C1141.93581,48.0579668 1143.57778,49.8261244 1144.61907,51.3039344 C1145.85545,53.0483901 1148.48771,59.924295 1147.92122,60.9849525 C1147.91898,60.9885078 1147.68163,61.0655387 1147.01079,60.8332607 C1144.05589,59.8188218 1141.14571,53.099349 1140.10739,48.8804208 Z M1204.49302,9.53137827 L1204.47226,9.59085089 C1203.39641,12.6296727 1201.30632,19.8761818 1203.74627,24.7792413 C1202.5704,25.8417424 1201.33614,26.8699324 1200.1145,27.8866853 C1199.36201,28.5134351 1198.62341,29.1367539 1197.89834,29.7600726 C1197.19988,24.1513477 1195.54682,18.5586347 1192.49443,13.3296196 C1192.4107,13.1878003 1192.29369,13.0825795 1192.1791,12.976215 C1191.62047,11.9525998 1190.63972,10.7494231 1189.27687,9.24659595 C1187.1847,6.89285293 1184.90993,4.95427448 1182.52067,3.48918954 C1178.03558,0.724856739 1172.98383,-0.455445888 1168.30259,0.158723212 C1165.74459,0.492684808 1164.99658,1.86055491 1164.75237,2.61768702 C1164.50804,3.44801619 1164.67093,4.20972312 1164.86249,4.85134112 C1166.69897,10.9186913 1172.91845,15.6387581 1179.98791,16.3318428 C1181.4665,16.4759495 1182.93591,16.4622251 1184.35829,16.4473569 C1186.18674,16.4290577 1187.91758,16.4107584 1189.58773,16.7161274 C1190.00526,16.7927556 1190.35983,16.8019052 1190.67172,16.7744563 C1198.02119,31.1828405 1194.7715,48.3475516 1190.84263,60.0545067 C1190.99646,56.7560641 1186.19695,50.9666339 1186.14889,50.9094487 C1182.51608,46.7006177 1176.64646,45.4322498 1172.35867,44.5081369 C1171.68304,44.3605991 1170.98791,44.6602496 1170.62658,45.2469698 C1170.27442,45.8211092 1170.32134,46.5896784 1170.75849,47.1192134 C1171.87231,48.4722153 1172.85536,49.9087077 1173.89805,51.4298341 C1175.20917,53.3478259 1176.56605,55.3298651 1178.19961,57.1128998 L1178.20191,57.1140435 C1178.27876,57.1975339 1186.00883,65.2755159 1189.89514,62.0720007 C1190.02259,61.9656362 1190.15909,61.8238169 1190.28974,61.6545487 C1189.75417,63.1630944 1189.21504,64.5709942 1188.69656,65.8462242 C1186.62378,70.9357075 1184.21835,75.6031639 1181.66953,80.5473967 C1177.84975,87.9553968 1173.69387,96.0379537 1170.03457,106.892849 C1170.54743,97.7569409 1170.39257,88.5878652 1168.68915,79.5592363 C1166.66455,68.823286 1162.46394,58.5859906 1157.61867,48.9560021 C1158.57763,49.8332232 1159.99427,50.0013477 1161.8467,49.4363579 C1167.12213,47.8305973 1170.15168,42.8246045 1171.76551,38.9085617 C1172.40685,37.3451182 1172.94483,35.7359265 1173.4851,34.130166 C1174.38671,31.4138687 1175.24129,28.8645523 1176.59255,26.5416893 L1176.72102,26.268344 C1176.88265,25.8108624 1176.83344,25.3007703 1176.57305,24.8798872 C1176.26104,24.3697952 1175.69209,24.0758633 1175.09561,24.1113181 C1171.75301,24.3034604 1168.43783,26.0098669 1165.23988,29.1836457 C1162.24141,32.1584201 1159.8393,35.8514406 1158.2943,39.8589798 L1158.13026,40.2844377 C1157.15754,42.768563 1156.34311,45.1589046 1156.62059,46.9888311 C1153.90441,41.7277923 1151.02753,36.6566083 1148.23439,31.7912911 C1149.01899,31.3120791 1150.1374,30.2369972 1151.6309,27.7597341 C1152.13332,26.9259739 1152.513,26.0430343 1152.8273,25.1566636 C1153.03951,24.556219 1153.22075,23.9592054 1153.38937,23.3713415 C1155.40136,16.3329865 1155.31762,10.7322676 1153.12899,6.25237863 C1152.98663,5.9641652 1152.69195,5.36028944 1152.08744,4.95656189 C1150.69947,4.01071861 1148.92608,4.60201362 1147.67461,6.42965277 C1144.70138,10.7905965 1142.98305,14.5728259 1142.27874,18.3459057 C1141.6662,21.6180432 1141.9002,24.873025 1143.0334,28.0548098 C1141.63867,26.8299027 1140.22535,25.8188683 1139.162,25.1658133 C1132.94252,21.3527038 1125.21819,21.5059602 1119.01133,21.634055 C1118.39638,21.6454921 1117.84234,22.001184 1117.57747,22.5558805 C1117.30894,23.1094333 1117.38236,23.7624883 1117.75986,24.2474189 C1118.37928,25.0434369 1118.95397,25.8726224 1119.5321,26.7006642 C1120.40836,27.9656009 1121.31581,29.271711 1122.38593,30.4806062 C1125.44175,33.9334489 1129.89025,36.5834112 1135.24713,38.1468547 L1135.9582,38.3630148 C1140.11764,39.6462508 1144.74726,40.8597209 1147.03683,39.0343691 C1147.4429,38.7084135 1147.73197,38.2921052 1147.93833,37.8277613 C1154.0088,48.5579931 1160.11357,60.2146253 1163.65002,72.5060132 C1158.79901,70.7641518 1154.07762,68.6288563 1149.58909,66.0955517 L1149.49503,65.9949058 C1148.89167,65.4150478 1148.26192,64.9015246 1147.62173,64.4223126 C1149.37688,64.5549823 1150.28996,63.7326591 1150.70061,63.1367892 C1150.85776,62.9080484 1150.98383,62.6564335 1151.0803,62.3853756 C1152.47056,58.4578958 1147.68035,50.5388886 1147.14351,49.8595284 C1144.90774,47.0219985 1142.33495,45.4951536 1139.69895,45.4528365 C1139.22406,45.4436869 1138.51505,45.4791417 1137.83609,45.8782944 C1136.48139,46.6663065 1136.02244,48.3006597 1136.59036,50.3764826 L1136.59139,50.3776263 C1136.61674,50.4691227 1138.58972,57.4697354 1142.38542,61.5516154 C1140.15549,60.6904062 1137.99324,60.2226312 1136.20494,59.9847407 C1132.05239,59.4323317 1127.52497,59.678228 1121.95118,60.7601721 C1119.12374,61.305719 1118.30232,62.7147624 1118.11419,63.8001376 C1117.90439,65.0216136 1118.48367,66.0612406 1118.94009,66.7348823 C1120.86272,69.5804181 1123.97704,71.8277966 1127.70736,73.071003 C1130.65536,74.0511574 1134.05519,74.466322 1138.1068,74.3382271 C1140.19334,74.2741797 1142.61713,74.0591633 1144.7897,72.9680696 C1146.51147,72.104573 1147.82832,70.7652955 1148.54869,69.2304446 C1153.55341,72.0130767 1158.82884,74.342802 1164.25109,76.1738722 C1164.37957,76.217333 1164.50804,76.2127582 1164.63651,76.2230515 C1164.95185,77.5291616 1165.24561,78.8398465 1165.49453,80.159681 C1166.40061,84.9643819 1166.85027,89.8367901 1166.98906,94.7364184 C1164.9944,92.1790961 1160.94176,90.2954154 1160.89014,90.2725413 C1159.20049,89.5302774 1157.68176,89.2111839 1156.25134,89.2969617 C1154.75658,89.3861707 1153.4192,89.9111308 1152.24344,90.3731873 L1148.82284,91.7101774 C1148.36745,91.8885952 1148.02218,92.2740235 1147.87076,92.7212118 C1147.7205,93.1855557 1147.78703,93.6887855 1148.05085,94.0970878 C1149.09929,95.7188602 1150.28881,97.5602238 1152.14479,98.8114361 L1152.14708,98.8114361 C1154.38389,100.317694 1157.04512,100.595615 1159.59165,100.669955 C1159.89333,100.679105 1160.28793,100.713416 1160.73299,100.753446 C1163.23122,100.967318 1165.24561,101.062246 1166.54182,100.153001 C1166.72306,100.027194 1166.88009,99.8956676 1167.02244,99.7629979 C1166.92024,108.46773 1165.99466,117.223928 1165.01849,125.839451 C1159.41729,122.626786 1153.51085,119.915064 1147.39461,117.793493 C1148.76423,114.829012 1148.04397,111.21262 1147.19857,108.222977 C1146.3635,105.260784 1145.47095,102.392374 1143.73783,99.8750809 C1141.65702,96.8579895 1138.57366,94.9525785 1135.49145,94.7775918 C1133.63318,94.6735147 1131.94468,95.2007623 1130.7345,96.2575449 C1129.82143,97.0615688 1129.15153,98.1801115 1128.81658,99.5159578 C1128.0056,102.641701 1129.05621,106.219208 1131.85062,109.861905 C1132.90937,111.244643 1134.08169,112.533598 1135.3538,113.719619 C1130.8148,112.92017 1126.15191,112.873278 1121.72406,114.445871 C1119.34742,115.291068 1117.6245,116.440491 1116.45907,117.955899 C1114.88057,120.019141 1114.54688,122.784618 1115.63432,124.831848 C1116.77911,126.993449 1119.16848,128.24123 1122.7359,128.534018 C1130.82054,129.211091 1139.27097,126.11394 1145.04435,120.419438 C1151.76281,122.650804 1158.24497,125.590124 1164.33357,129.163055 L1164.62963,129.265989 C1164.2098,132.952147 1163.7957,136.636018 1163.45043,140.307308 C1163.23122,142.629027 1163.03519,145.034237 1162.88148,147.500063 C1162.01658,146.426125 1161.05532,145.448258 1160.0803,144.615641 C1157.14836,142.107498 1153.64965,140.157483 1149.96063,138.979468 C1138.85699,135.439703 1127.03517,138.961168 1119.10998,141.914212 C1118.60985,142.100636 1118.22099,142.561549 1118.10169,143.036186 C1117.97207,143.554284 1118.10398,144.100975 1118.45729,144.500127 C1123.08691,149.764597 1127.87254,155.208629 1134.20317,158.836458 C1139.78957,162.045692 1146.46547,163.700632 1153.51326,163.630866 C1157.36631,163.590836 1160.46458,162.846285 1162.63027,161.508151 C1163.05469,174.67676 1165.64595,188.456107 1173.35434,200.262564 C1173.84643,201.012834 1174.85128,201.225563 1175.60376,200.738345 C1175.91462,200.535909 1176.13486,200.244265 1176.24946,199.918309 C1176.41016,199.461971 1176.36543,198.935867 1176.07866,198.495541 C1168.02614,186.164124 1165.83521,171.40691 1165.81342,157.590964 C1165.86504,157.420552 1165.92113,157.251284 1165.96025,157.07401 C1166.24128,155.799924 1166.17704,154.508682 1165.87639,153.243745 C1165.98892,149.405474 1166.23773,145.675855 1166.55329,142.121223 C1169.58158,143.705253 1174.56107,142.548968 1176.11766,142.122367 C1178.02525,141.601981 1179.68967,140.533762 1180.92393,139.662259 C1183.67693,137.721393 1186.05827,135.498032 1188.00372,133.058512 C1191.0584,129.220241 1193.06797,124.829561 1194.674,120.292486 C1195.61232,117.642524 1196.41413,114.941095 1197.20332,112.275121 C1198.33664,108.451718 1199.5101,104.508226 1201.05063,100.851804 C1201.30287,100.188456 1201.13437,99.4118808 1200.56656,98.9566865 C1199.9975,98.5049234 1199.19695,98.4843367 1198.60609,98.9075073 C1195.77864,100.926145 1192.56555,102.600528 1189.45707,104.225731 C1184.53724,106.793347 1179.44764,109.449028 1175.48779,113.609823 C1173.4461,115.754269 1171.59815,118.419099 1169.84427,121.758715 C1169.45644,122.494117 1169.06069,123.270692 1168.66495,124.064423 C1172.50894,106.642378 1177.81075,95.2556601 1182.77303,85.5133599 L1182.98753,85.4104265 C1190.94255,79.4208481 1200.76604,75.6317565 1210.69518,74.6836258 C1210.25929,76.6061924 1211.35246,78.6820153 1212.12227,80.1070706 L1212.27942,80.3998588 C1215.45225,86.3539824 1220.95709,89.9660286 1225.01432,91.9492115 C1227.14445,92.9865512 1230.37005,94.3201101 1233.75853,93.8980833 C1235.16256,93.7219529 1236.3429,93.2679024 1237.26975,92.5439377 C1238.17594,91.8325537 1238.78389,90.9255964 1239.13949,89.9191368 C1239.88968,87.8009968 1239.52032,85.2571701 1238.47877,83.2625502 C1236.65491,79.7708216 1233.40867,77.7213039 1231.00553,76.6141983 C1228.4566,75.4453327 1225.7909,74.7888466 1223.1767,74.2135634 C1226.71659,73.3489231 1230.08098,71.8712574 1233.09781,69.8354641 C1235.99763,67.8820175 1237.94194,65.7844642 1239.03969,63.4250027 C1240.52402,60.246649 1240.26363,56.6565618 1238.42486,54.1998854 C1238.24362,53.9585639 1238.02682,53.7481223 1237.8169,53.5308185 L1237.8169,53.5068007 C1237.80543,53.300934 1237.63681,53.1545399 1237.43493,53.1408154 C1235.11897,51.0798607 1231.46436,50.3593271 1228.03115,51.4115348 C1224.6632,52.4408685 1222.00094,54.7522945 1219.62407,57.1014627 C1217.56058,59.1338249 1215.22283,61.6236687 1213.5068,64.6647779 C1212.245,66.8972883 1211.46958,69.1972772 1211.20908,71.4412247 C1211.09333,71.4252128 1210.98092,71.3909017 1210.85818,71.401195 C1202.07039,72.1629019 1193.35945,75.0736289 1185.77723,79.6575949 C1187.90507,75.505949 1189.92049,71.4560928 1191.70765,67.0665565 C1192.25366,65.7249916 1192.82147,64.2496133 1193.38457,62.6598646 C1196.13194,54.900976 1198.74374,44.4372273 1198.2264,33.7264384 L1198.47761,33.5743258 C1199.64534,32.5015313 1200.91298,31.4470362 1202.19886,30.3753854 C1203.38609,29.3849377 1204.58582,28.3876277 1205.74334,27.3480007 C1206.94778,28.3590351 1208.47214,29.0098027 1210.30632,29.283148 C1214.98997,29.9785201 1220.02566,27.6762437 1222.54695,23.690435 C1222.64434,23.539466 1222.81755,23.2684082 1222.94384,22.9138599 C1223.03446,22.6565265 1223.10087,22.3557323 1223.09514,22.020627 C1223.08596,21.3183927 1222.78428,20.6630502 1222.2073,20.0797611 C1221.17504,19.0229786 1219.15273,17.904436 1215.37872,18.5860836 C1214.36355,18.7725074 1213.35985,19.0241223 1212.37921,19.342072 C1212.54428,19.0184037 1212.7004,18.6901607 1212.84837,18.352768 C1214.43811,14.7546749 1214.98997,10.7265491 1215.43733,7.49672869 C1215.57028,6.5508854 1215.88011,4.32981205 1214.25125,2.97795381 C1213.29917,2.1933728 1211.93644,1.98178754 1210.51853,2.40267065 C1207.03255,3.4239984 1205.41058,6.96147517 1204.49302,9.53137827 Z"
                      id="Fill-1"></path>
            </g>
        </g>
    </g>
</svg>