<?xml version="1.0" encoding="UTF-8"?>
<svg width="100px" height="100px" viewBox="0 0 100 100" version="1.1" xmlns="http://www.w3.org/2000/svg"
     xmlns:xlink="http://www.w3.org/1999/xlink">
    <title>assets/icons/contract</title>
    <g id="00-Assets" stroke="none" stroke-width="1" fill="none" fill-rule="evenodd">
        <g id="assets/icons/contract" fill="#344A3F" fill-rule="nonzero">
            <path d="M63.5524711,14 C65.2429029,14 66.8322181,14.658125 68.0274743,15.8534375 L68.0274743,15.8534375 L73.9939109,21.8197344 C75.1893078,23.0149062 75.8476199,24.6039687 75.8476199,26.2942813 L75.8476199,26.2942813 L75.8476199,43.0105156 C75.8924952,42.9656009 75.9524542,42.9055916 76.0256728,42.8323132 L76.6095055,42.2480183 C76.6689855,42.188492 76.7308684,42.1265612 76.794926,42.062454 L77.8903967,40.9661438 C77.9705017,40.8859778 78.0516413,40.8047765 78.1335876,40.7227678 L79.1410695,39.714521 C79.2258208,39.6297055 79.3104666,39.5449955 79.394779,39.4606191 L80.1384309,38.7164027 C81.1015453,37.7525562 81.9181391,36.9353366 82.1941926,36.6590469 C84.6624762,34.1912187 88.6774626,34.1910781 91.1449023,36.6584844 C93.6186706,39.1317969 93.6181081,43.1348281 91.1447617,45.6078594 L91.1447617,45.6078594 L75.8476199,60.9168594 L75.8476199,79.671875 C75.8476199,83.1612031 73.0086227,86 69.5190483,86 L69.5190483,86 L27.3285715,86 C23.8389972,86 21,83.1612031 21,79.671875 L21,79.671875 L21,20.328125 C21,16.8387969 23.8389972,14 27.3285715,14 L27.3285715,14 Z M58.9714291,18.21875 L27.3285715,18.21875 C26.1653801,18.21875 25.2190477,19.1650156 25.2190477,20.328125 L25.2190477,20.328125 L25.2190477,79.671875 C25.2190477,80.8349844 26.1653801,81.78125 27.3285715,81.78125 L27.3285715,81.78125 L69.5190483,81.78125 C70.6823804,81.78125 71.6285722,80.8349844 71.6285722,79.671875 L71.6285722,79.671875 L71.6285722,65.136875 L71.3726166,65.3928125 C71.1411315,65.6244219 70.8587366,65.7989375 70.5480741,65.9024375 L70.5480741,65.9024375 L61.5980676,68.8855156 C60.8411704,69.1379375 60.0050958,68.941625 59.4393215,68.3758906 C58.8742504,67.811 58.6769396,66.9752656 58.9296606,66.2172969 L58.9296606,66.2172969 L61.9130898,57.2679219 C62.0165971,56.9572813 62.1912657,56.6749062 62.4227508,56.4434375 L62.4227508,56.4434375 L65.8096839,53.0563109 C66.100396,52.7653876 66.5266039,52.338858 67.0183719,51.8467135 L68.0001912,50.8641381 C68.0684911,50.7957853 68.1371325,50.7270908 68.2059787,50.6581912 L69.0332224,49.8303046 C69.3064194,49.5568947 69.5741517,49.2889535 69.8276771,49.0352298 L70.3704474,48.4920347 C70.4272719,48.4351657 70.4827987,48.3795954 70.5368912,48.3254605 L71.4151404,47.4465216 C71.5517369,47.3098177 71.6285722,47.2329219 71.6285722,47.2329219 L71.6285722,47.2329219 L71.6285722,30.875 L61.080953,30.875 C59.9159333,30.875 58.9714291,29.9305625 58.9714291,28.765625 L58.9714291,28.765625 L58.9714291,18.21875 Z M60.875,73 C62.0485667,73 63,74.1193333 63,75.5 C63,76.8806667 62.0485667,78 60.875,78 L60.875,78 L48.125,78 C46.9514333,78 46,76.8806667 46,75.5 C46,74.1193333 46.9514333,73 48.125,73 L48.125,73 Z M51.9166667,60 C53.0672222,60 54,61.1193333 54,62.5 C54,63.8806667 53.0672222,65 51.9166667,65 L51.9166667,65 L31.0833333,65 C29.9327778,65 29,63.8806667 29,62.5 C29,61.1193333 29.9327778,60 31.0833333,60 L31.0833333,60 Z M66.8976134,57.9350469 L65.7580486,59.0743906 L64.2664746,63.5490781 L68.7413372,62.0576094 L69.880902,60.918125 L66.8976134,57.9350469 Z M80.0208206,44.8029219 C79.9860216,44.8377478 79.948216,44.8755827 79.9075426,44.9162878 L78.895643,45.928977 C78.8255473,45.9991275 78.7534158,46.0713153 78.6793872,46.1454019 L77.7088568,47.1166913 C77.62187,47.2037462 77.5335408,47.2921445 77.4440079,47.3817474 L76.320709,48.5059245 C76.2237651,48.6029442 76.1261722,48.7006133 76.0280689,48.7987932 L75.434435,49.3928907 C75.3348451,49.4925583 75.2350223,49.592459 75.1351052,49.692454 L74.5355806,50.2924461 C74.4358411,50.3922633 74.3362847,50.4918973 74.23705,50.5912093 L72.789996,52.0393877 C72.1421449,52.6877409 71.5440364,53.2863109 71.0432379,53.7874923 L70.2889256,54.5423768 C70.1286164,54.7028063 69.9911729,54.8403517 69.8803395,54.9512656 L69.8803395,54.9512656 L72.8636281,57.9343438 L83.0041092,47.786 Z M51.9166667,52 C53.0672222,52 54,53.1193333 54,54.5 C54,55.8806667 53.0672222,57 51.9166667,57 L51.9166667,57 L31.0833333,57 C29.9327778,57 29,55.8806667 29,54.5 C29,53.1193333 29.9327778,52 31.0833333,52 L31.0833333,52 Z M51.9166667,43 C53.0672222,43 54,44.1193333 54,45.5 C54,46.8806667 53.0672222,48 51.9166667,48 L51.9166667,48 L31.0833333,48 C29.9327778,48 29,46.8806667 29,45.5 C29,44.1193333 29.9327778,43 31.0833333,43 L31.0833333,43 Z M88.1617543,39.6415625 C87.3393213,38.8191875 86.0013206,38.8190469 85.1783251,39.6415625 L85.1783251,39.6415625 L83.0029841,41.8185781 L85.9862727,44.8016562 L88.1609105,42.6253437 C88.9884064,41.7977656 88.9840467,40.4642187 88.1617543,39.6415625 Z M59.9375,34 C61.07655,34 62,35.1193333 62,36.5 C62,37.8806667 61.07655,39 59.9375,39 L59.9375,39 L31.0625,39 C29.92345,39 29,37.8806667 29,36.5 C29,35.1193333 29.92345,34 31.0625,34 L31.0625,34 Z M65.0441857,18.8365156 C64.3571841,18.1497031 63.5891768,18.21875 63.1906174,18.21875 L63.1906174,18.21875 L63.1906174,26.65625 L71.6287128,26.65625 C71.6287128,26.2059687 71.6801852,25.4723281 71.010763,24.8028125 L71.010763,24.8028125 Z"
                  id="Combined-Shape"></path>
        </g>
    </g>
</svg>