<?xml version="1.0" encoding="UTF-8"?>
<svg width="100px" height="100px" viewBox="0 0 100 100" version="1.1" xmlns="http://www.w3.org/2000/svg" xmlns:xlink="http://www.w3.org/1999/xlink">
    <title>assets/icons/gardening-tools</title>
    <g id="00-Assets" stroke="none" stroke-width="1" fill="none" fill-rule="evenodd">
        <g id="assets/icons/gardening-tools" fill="#344A3F" fill-rule="nonzero">
            <path d="M15.7692308,6 L15.7692308,25.25 L18.5384615,25.25 L18.5384615,6 L21.3076923,6 L21.3076923,25.25 L24.0769231,25.25 L24.0769231,6 L26.8461538,6 L26.8461538,25.25 L29.6153846,25.25 L29.6153846,6 L32.3846154,6 L32.3846154,25.25 L35.1538462,25.25 L35.1538462,6 L37.9230769,6 L37.9230769,25.25 L40.6923077,25.25 L40.6923077,6 L43.4615385,6 L43.4615385,25.25 L46.2307692,25.25 L46.2307692,6 L49,6 L49,26.625 C49,27.3843915 48.3800866,28 47.6153846,28 L47.6153846,28 L35.1538462,28 L35.1538462,80.25 L36.2868077,80.25 C36.8373539,80.2500083 37.3355892,80.5739202 37.5558077,81.075 L37.5558077,81.075 L40.2140962,87.125 L42.0769231,87.125 C42.841625,87.125 43.4615385,87.7406085 43.4615385,88.5 L43.4615385,88.5 L43.4615385,92.625 C43.4615385,93.3843915 42.841625,94 42.0769231,94 L42.0769231,94 L19.9230769,94 C19.158375,94 18.5384615,93.3843915 18.5384615,92.625 L18.5384615,92.625 L18.5384615,88.5 C18.5384615,87.7406085 19.158375,87.125 19.9230769,87.125 L19.9230769,87.125 L21.7859038,87.125 L24.4441923,81.075 C24.6644108,80.5739202 25.1626461,80.2500083 25.7131923,80.25 L25.7131923,80.25 L26.8461538,80.25 L26.8461538,28 L14.3846154,28 C13.6199134,28 13,27.3843915 13,26.625 L13,26.625 L13,6 L15.7692308,6 Z M85.6111111,6 C86.3781733,6 87,6.61560847 87,7.375 L87,7.375 L87,11.5 C87,12.2593915 86.3781733,12.875 85.6111111,12.875 L85.6111111,12.875 L83.7425347,12.875 L81.0760417,18.925 C80.8551435,19.4260798 80.3553704,19.7499917 79.803125,19.75 L79.803125,19.75 L78.6666667,19.75 L78.6666667,65.125 L82.8333333,65.125 C85.1334489,65.1275574 86.9974167,66.9728856 87,69.25 L87,69.25 L87,81.625 C87,88.4595236 81.4035592,94 74.5,94 C67.5964408,94 62,88.4595236 62,81.625 L62,81.625 L62,69.25 C62.0025833,66.9728856 63.8665511,65.1275574 66.1666667,65.125 L66.1666667,65.125 L70.3333333,65.125 L70.3333333,19.75 L69.196875,19.75 C68.6446296,19.7499917 68.1448565,19.4260798 67.9239583,18.925 L67.9239583,18.925 L65.2574653,12.875 L63.3888889,12.875 C62.6218267,12.875 62,12.2593915 62,11.5 L62,11.5 L62,7.375 C62,6.61560847 62.6218267,6 63.3888889,6 L63.3888889,6 Z M40.6923077,89.875 L21.3076923,89.875 L21.3076923,91.25 L40.6923077,91.25 L40.6923077,89.875 Z M82.8333333,67.875 L66.1666667,67.875 C65.3999615,67.8758525 64.7786389,68.4909619 64.7777778,69.25 L64.7777778,69.25 L64.7777778,81.625 C64.7777778,86.9407407 69.1305649,91.25 74.5,91.25 C79.8694351,91.25 84.2222222,86.9407407 84.2222222,81.625 L84.2222222,81.625 L84.2222222,69.25 C84.2213611,68.4909619 83.6000385,67.8758525 82.8333333,67.875 L82.8333333,67.875 Z M35.3804038,83 L26.6197692,83 L24.8073077,87.125 L37.1926923,87.125 L35.3804038,83 Z M32.3846154,28 L29.6153846,28 L29.6153846,80.25 L32.3846154,80.25 L32.3846154,28 Z M74,69 L74,71.8 L69.0833333,71.8 C68.8532147,71.8 68.6666667,71.9958754 68.6666667,72.2375 L68.6666667,72.2375 L68.6666667,76 L66,76 L66,72.2375 C66.0015621,70.4501579 67.3811028,69.0016402 69.0833333,69 L69.0833333,69 L74,69 Z M75.8888889,19.75 L73.1111111,19.75 L73.1111111,65.125 L75.8888889,65.125 L75.8888889,19.75 Z M80.7118056,12.875 L68.2881944,12.875 L70.1060764,17 L78.8939236,17 L80.7118056,12.875 Z M84.2222222,8.75 L64.7777778,8.75 L64.7777778,10.125 L84.2222222,10.125 L84.2222222,8.75 Z" id="Combined-Shape"></path>
        </g>
    </g>
</svg>