<?xml version="1.0" encoding="UTF-8"?>
<svg width="100px" height="100px" viewBox="0 0 100 100" version="1.1" xmlns="http://www.w3.org/2000/svg"
>
    <title>assets/icons/join</title>
    <g id="00-Assets" stroke="none" stroke-width="1" fill="none" fill-rule="evenodd">
        <g id="assets/icons/join" fill="#344A3F" fill-rule="nonzero">
            <path d="M70.0394109,19.0028501 C70.413667,18.9792955 70.7839973,19.1166974 71.0496407,19.3836496 L71.0496407,19.3836496 L82.6162478,30.9502695 C82.8831997,31.2157823 83.02191,31.5834958 82.9971777,31.9603695 C82.9723145,32.3359346 82.7878036,32.6827108 82.4894456,32.9117139 L82.4894456,32.9117139 L78.9274698,35.6532082 C78.9928992,36.1622494 79.0609457,36.8309385 79.0583285,37.3923233 C79.0269224,43.2901348 78.669678,45.1823548 74.9519802,51.8312965 C73.9090358,53.694335 71.4884101,55.9941805 68.7890553,58.3229458 C68.0642286,58.9481898 66.2761743,60.446917 66.2670142,60.4534599 L66.2670142,60.4534599 L66.1505498,66.0306671 C66.1440069,66.374826 66.0041189,66.696739 65.7567958,66.938828 C65.5042384,67.1848428 65.168193,67.3183189 64.8148743,67.3117759 C64.4654814,67.3039244 64.1401665,67.1612882 63.8980778,66.9087304 C63.6572976,66.6561727 63.5287943,66.3250997 63.5366458,65.9757063 L63.5366458,65.9757063 L64.02946,42.4330089 C64.022917,41.5274652 63.2850044,40.7881123 62.3820788,40.7868037 C61.9358504,40.7868037 61.5410495,40.9543031 61.2217541,41.2709817 C60.9103102,41.5863517 60.753934,42.002483 60.753934,42.4434776 L60.753934,42.4434776 L60.753934,42.4683408 L60.3983907,59.8589678 C60.3845196,60.5729341 59.7847939,61.1421704 59.073969,61.1421704 C59.0653323,61.1421704 59.0561722,61.1420395 59.0475355,61.1419087 C58.3249334,61.1279068 57.7496782,60.5306667 57.7636801,59.8081946 L57.7636801,59.8081946 L58.0998563,36.2302961 C58.0985477,35.3182094 57.3525218,34.5749307 56.4430533,34.5736221 C55.9981335,34.5736221 55.5856666,34.7411216 55.2676798,35.0578002 C54.9563668,35.3718616 54.7672759,35.7893015 54.7672759,36.2302961 C54.7672759,36.2319972 54.7344303,36.2336984 54.7344303,36.2353996 L54.7344303,36.2353996 L54.7344303,59.8337121 C54.7344303,60.5564459 54.1810286,61.1423013 53.4584264,61.1423013 C52.7358242,61.1423013 52.1824225,60.5564459 52.1824225,59.8337121 L52.1824225,59.8337121 L52.1826842,33.1552423 C52.1826842,32.8686613 52.1146376,32.5912404 51.9850875,32.3426084 C51.910498,32.197355 51.8136625,32.0625703 51.6985067,31.9408715 C51.4237033,31.6542905 51.0860877,31.4841739 50.7131402,31.442299 C50.2682203,31.442299 49.6806644,31.6006383 49.3626776,31.9160083 C49.0459994,32.2353041 48.8785001,32.6409668 48.8785001,33.0885043 L48.8785001,33.0885043 L48.8782384,59.8337121 C48.8782384,60.5564459 48.2923837,61.1423013 47.5696507,61.1423013 C46.8469177,61.1423013 46.2610629,60.5564459 46.2610629,59.8337121 L46.2610629,59.8337121 L46.2611938,36.2271555 C46.2580532,35.3165082 45.5169999,34.5749307 44.6085783,34.5736221 C44.1636585,34.5736221 43.7593049,34.7411216 43.441318,35.0578002 C43.1298742,35.3731701 42.9571406,35.7893015 42.9571406,36.2302961 L42.9571406,36.2302961 L42.9571406,63.5799412 C42.9571406,63.9044713 42.8367505,64.2159156 42.6182163,64.4580046 C42.3996822,64.698785 42.1026328,64.8492728 41.7794116,64.8819875 C41.7349196,64.8859132 41.6904276,64.8885304 41.6472442,64.8885304 C41.0282822,64.8885304 40.4891441,64.4475359 40.3661368,63.8403505 L40.3661368,63.8403505 L38.6230979,55.2612397 C38.3247399,53.7825339 37.0161522,52.7094907 35.5112763,52.7094907 C35.4353782,52.7094907 35.3620973,52.7121079 35.2875078,52.7173423 C35.1147742,52.7251938 34.9747553,52.8756816 34.9747553,53.0510325 C34.9747553,53.0680442 36.1079923,60.6630959 36.5398262,62.9989276 C36.715177,63.9528891 36.8826762,64.7301911 36.991289,65.080893 C38.1232174,68.8352355 38.8573352,70.7889591 39.7026828,72.2859852 C40.6056084,73.8890069 41.7388454,75.1609557 43.6454577,77.087199 C43.8430545,77.2874131 44.7930892,78.0620979 44.9317995,78.1654765 L44.9317995,78.1654765 L59.1238262,78.1488574 C59.1239571,78.1487265 59.1242188,78.1485957 59.1244805,78.1484648 L59.4541225,77.9253026 C60.101862,77.4668234 60.6798305,76.9359634 61.1789633,76.3426117 C61.4275949,76.045562 61.7926909,75.8754454 62.1813415,75.8754454 C62.487551,75.8754454 62.785909,75.9840583 63.0214548,76.1816552 C63.5749874,76.6462044 63.6469598,77.4732328 63.1837197,78.0254574 C62.5268086,78.8079938 61.7599762,79.508089 60.9041598,80.1061142 L60.9041598,80.1061142 L61.4786299,84.5226028 C61.5270476,84.8955507 61.4132005,85.2724244 61.1645688,85.5550797 C60.9159371,85.8377349 60.5573841,86 60.1818194,86 L60.1818194,86 L43.8232948,86 C43.4477301,86 43.0891771,85.8377349 42.8405454,85.5550797 C42.5919137,85.2724244 42.4780666,84.8955507 42.5264843,84.5226028 L42.5264843,84.5226028 L43.1061887,80.065548 L43.0551538,80.0262903 C42.6835149,79.7357835 42.2032632,79.3484411 41.7845151,78.928384 C39.7130207,76.8346412 38.4698623,75.4318336 37.4216835,73.5697112 C36.3303213,71.6264562 35.5477859,69.3521282 34.4852126,65.8372576 C34.2993932,65.2143691 34.1188081,64.2931223 33.9657033,63.4752541 C33.8008212,62.5814877 32.9620165,57.311799 32.7735798,56.0581705 L32.7735798,56.0581705 L23.8897085,46.7959761 C20.6731998,43.5742295 19.3253544,39.6393018 20.0398433,35.6284759 L20.0398433,35.6284759 L16.5105822,32.9118447 C16.2122241,32.6828416 16.0277133,32.3347569 16.0028501,31.9591918 C15.9779869,31.5836267 16.1166972,31.2159131 16.3836491,30.9502695 L16.3836491,30.9502695 L27.9502563,19.3836496 C28.2158996,19.1166974 28.5849213,18.9779869 28.960486,19.0028501 C29.3360507,19.0277133 29.6828264,19.2122244 29.9118293,19.5105827 L29.9118293,19.5105827 L32.6533206,23.0725625 C33.1623613,23.0071331 33.8284324,22.9390864 34.3924338,22.9417036 C40.3438908,22.9731097 42.2307435,23.5083227 48.8103227,27.0375878 C49.380867,27.3437977 52.5031573,29.3040643 52.6183131,29.3694938 L52.6183131,29.3694938 L55.2040825,26.8897172 C58.4256946,23.673205 62.360618,22.3253581 66.3714395,23.0398478 L66.3714395,23.0398478 L69.0880676,19.5105827 C69.3170705,19.2122244 69.6638462,19.0277133 70.0394109,19.0028501 Z M58.3513669,80.7666901 L45.6528313,80.781608 L45.3139071,83.3825599 L58.6915997,83.3825599 L58.3513669,80.7666901 Z M64.5,70 C65.3284271,70 66,70.6715729 66,71.5 C66,72.3284271 65.3284271,73 64.5,73 C63.6715729,73 63,72.3284271 63,71.5 C63,70.6715729 63.6715729,70 64.5,70 Z M66.2454225,25.6817585 C62.9807577,24.9871594 59.7265617,26.0679232 57.0453963,28.7490916 L57.0453963,28.7490916 L57.0257675,28.7685896 L54.3876546,31.2992702 C54.5394507,31.6238004 54.6506807,31.9662582 54.7200359,32.3221944 C55.2670255,32.0787968 55.8493471,31.9550043 56.4499889,31.9550043 L56.4499889,31.9550043 C57.592386,31.9550043 58.6817853,32.4007098 59.4880062,33.2078476 C60.2927876,34.0152471 60.7540648,35.0890754 60.7540648,36.2301652 L60.7540648,36.2301652 L60.7540648,38.5018761 C61.2774999,38.2807245 61.8008042,38.1052427 62.3713484,38.1052427 L62.3713484,38.1052427 C63.5150541,38.1052427 64.5867875,38.5823543 65.3928775,39.3897538 C66.197659,40.1971534 66.6425788,41.3023878 66.6425788,42.4434776 L66.6425788,42.4434776 L66.6425788,42.470958 L66.3402951,56.9766693 C68.6682727,54.9980824 71.6909795,52.2984629 72.667186,50.5541135 C76.2697281,44.1119288 76.4135418,42.6279887 76.4412995,37.3793683 C76.4425925,36.8809266 76.3614601,36.181224 76.2947221,35.7075147 L76.2947221,35.7075147 Z M34.379217,25.5588664 C33.8809068,25.5575734 33.1812049,25.6385751 32.7074962,25.7053131 L32.7074962,25.7053131 L22.6817511,35.7546239 C21.9871527,39.0192922 23.0680462,42.2734919 25.7492117,44.9546603 C25.7557546,44.9612032 25.7622975,44.9677462 25.7688405,44.9742891 L25.7688405,44.9742891 L32.5394735,52.0328193 C32.6716409,51.6716486 32.8757805,51.3366498 33.1427324,51.0474516 C33.6530817,50.495227 34.3492504,50.1602281 35.1043055,50.106576 C35.2377814,50.0974158 35.3738746,50.0921815 35.5099677,50.0921815 C36.477014,50.0921815 37.4362089,50.3368877 38.2828651,50.8001282 C39.1098926,51.2515915 39.81653,51.9045775 40.3399651,52.6884225 L40.3399651,52.6884225 L40.3399651,36.2302961 C40.3399651,35.6558254 40.4525036,35.0956184 40.6749635,34.5669483 C40.8908805,34.0565986 41.1983986,33.5984615 41.5896664,33.2085019 C41.9783169,32.8172337 42.4350141,32.5093227 42.9453633,32.2920969 C43.4740327,32.0683281 44.0327997,31.9550043 44.6072697,31.9550043 L44.6072697,31.9550043 C45.2079115,31.9550043 45.7876159,32.0774882 46.3306798,32.3169601 C46.4864017,31.4598341 46.8946811,30.6833173 47.5110259,30.0682804 C47.675908,29.9020896 47.8512588,29.7516018 48.0394337,29.6168171 C47.8523056,29.5016613 47.6978923,29.41006 47.5735764,29.343322 C41.0948893,25.8690176 39.6397398,25.5863624 34.379217,25.5588664 Z M28.7473171,22.2872781 L19.2876671,31.7470695 L21.3774817,33.3565033 L30.3464113,24.3664955 L28.7473171,22.2872781 Z M70.2528416,22.287409 L68.6432786,24.377226 L77.6332765,33.3461655 L79.7124916,31.7472003 L70.2528416,22.287409 Z"
                  id="Combined-Shape"></path>
        </g>
    </g>
</svg>