<?xml version="1.0" encoding="UTF-8"?>
<svg width="100px" height="100px" viewBox="0 0 100 100" version="1.1" xmlns="http://www.w3.org/2000/svg"
     xmlns:xlink="http://www.w3.org/1999/xlink">
    <title>assets/icons/map</title>
    <g id="00-Assets" stroke="none" stroke-width="1" fill="none" fill-rule="evenodd">
        <g id="assets/icons/map" fill="#344A3F" fill-rule="nonzero">
            <path d="M50.0808205,12 C59.8171398,12 67.7382188,19.9377209 67.7382188,29.6944959 C67.7382188,33.4086854 66.6544833,37.2910284 64.509184,41.2996129 L64.509184,41.2996129 L67.3928747,39.7933008 C67.402281,39.7884195 67.4121911,39.7852213 67.4217654,39.7805083 C67.4437693,39.7697357 67.4657732,39.760478 67.4879451,39.751052 C67.5166678,39.7389328 67.5455585,39.7276553 67.5747851,39.7177243 L67.5747851,39.7177243 L67.6423086,39.6973573 C67.672543,39.6891096 67.7027774,39.6820401 67.7333477,39.6759805 C67.7558556,39.6714358 67.7785314,39.6673961 67.8012072,39.6641979 C67.8324494,39.6598216 67.8636916,39.6569601 67.8949339,39.6549402 C67.9176097,39.6535937 67.9401175,39.6519105 67.9627933,39.6517421 C67.9945394,39.6514055 68.0262856,39.6530887 68.0580317,39.6551086 L68.0580317,39.6551086 L68.1245474,39.6599899 C68.1573013,39.6638613 68.1898873,39.6702575 68.2223053,39.6766538 L68.2223053,39.6766538 L68.2842858,39.6889413 C68.3203992,39.698199 68.3560086,39.7101498 68.39145,39.7226056 L68.39145,39.7226056 L68.4399931,39.7385962 C68.4908876,39.7586265 68.5406064,39.7818549 68.5891495,39.8087864 C68.5896534,39.809123 68.5899893,39.8094597 68.5904932,39.809628 L68.5904932,39.809628 L74.8748829,43.3152668 L74.8750509,43.3152668 L83.0195286,47.8584413 L83.0195286,47.8584413 L85.596844,49.2960781 C85.9269029,49.4802222 86.1573563,49.8028951 86.2247118,50.1755597 L86.2247118,50.1755597 L87.0417127,54.6889413 C87.1658418,55.3761993 86.7108139,56.0346743 86.0248288,56.1592325 C85.3388437,56.2836223 84.6819172,55.8276384 84.5576202,55.1402121 L84.5576202,55.1402121 L83.8474475,51.2156203 L82.211766,50.3031476 L71.165121,52.7737755 L87.5894594,71.8917691 L85.4591094,60.1205184 C85.3348124,59.4332604 85.7898403,58.7747854 86.4758254,58.6502272 C87.1618105,58.5255008 87.818737,58.9818212 87.943034,59.6692476 L87.943034,59.6692476 L92.9815982,87.5093419 C92.993524,87.5743141 92.998899,87.6394546 93,87.7037536 C93,87.7247938 92.998731,87.7453291 92.9982271,87.7660327 C92.9970513,87.809628 92.9945318,87.8532234 92.9889888,87.8961454 C92.9859654,87.9197105 92.9819341,87.9431072 92.9775669,87.9663356 C92.9700083,88.0069012 92.9604341,88.0467935 92.9490122,88.0861808 C92.9426294,88.1083993 92.9365825,88.1302811 92.9290239,88.1518263 C92.9139067,88.1947484 92.895934,88.2361555 92.8764496,88.2772261 L92.8764496,88.2772261 L92.8542777,88.3257027 C92.8248832,88.3815856 92.7916253,88.4352803 92.7540003,88.4864501 C92.7479534,88.4945295 92.7407307,88.5014307 92.7346838,88.5093419 C92.7022658,88.551254 92.6673283,88.5916512 92.6290314,88.6295236 C92.6130743,88.6451776 92.5957735,88.6593166 92.5791446,88.6742973 C92.5583165,88.6931493 92.539,88.7131796 92.5168281,88.7305167 C92.506918,88.7380912 92.495832,88.7433092 92.4859218,88.7507154 C92.4571992,88.7720922 92.4267968,88.7909443 92.3962264,88.809628 C92.3656561,88.8286484 92.3350857,88.8469955 92.3033396,88.862986 C92.2924216,88.8685406 92.2828474,88.8759468 92.2717615,88.8811648 C92.2338005,88.8991752 92.1949996,88.9141559 92.1560309,88.9277899 C92.1523355,88.9289682 92.1486402,88.9308197 92.1449449,88.9321663 C92.0858198,88.9523649 92.0260229,88.966504 91.9657221,88.9774449 C91.9516127,88.980138 91.9375033,88.9823262 91.9233939,88.9843461 C91.8622532,88.9932671 91.8009445,89 91.7396359,89 L91.7396359,89 L91.6718604,88.9978749 L91.6718604,88.9978749 L91.6045888,88.9920889 C91.592831,88.9907423 91.5814091,88.9880491 91.5696513,88.9865343 C91.5368974,88.9819896 91.5041434,88.9774449 91.4717254,88.9703754 C91.4547606,88.9668406 91.4386355,88.9614543 91.4220066,88.9570779 C91.3951316,88.9501767 91.3680886,88.9436122 91.3417175,88.9348595 C91.3213932,88.9281266 91.3019088,88.9195422 91.2820885,88.9117994 C91.2619322,88.9040566 91.2417759,88.897492 91.2221236,88.8887393 L91.2221236,88.8887393 L70.8698317,79.7313584 L50.5180437,88.8889076 C50.4705084,88.9102845 50.4223014,88.9276216 50.3732544,88.9427706 L50.3732544,88.9427706 L50.3630083,88.9468103 C50.3618325,88.9471469 50.3608247,88.9471469 50.3596489,88.9474836 L50.3596489,88.9474836 L50.3272309,88.9550581 C50.2882622,88.9656623 50.2487895,88.9742468 50.2093168,88.9808113 C50.1995746,88.9823262 50.1901683,88.9855243 50.1805941,88.9868709 C50.1742112,88.9878808 50.1678284,88.9875442 50.1616136,88.9883858 C50.110719,88.9949503 50.0599924,88.9991584 50.0089298,89 L50.0089298,89 L50.0008673,89 L49.9847423,88.9989901 C49.9424141,88.9984851 49.89975,88.9959603 49.8575898,88.9910789 L49.8575898,88.9910789 L49.8318906,88.9877125 C49.8191249,88.9860293 49.8066952,88.9829995 49.7940975,88.9809796 C49.7677264,88.9766033 49.7411873,88.9718903 49.7149842,88.9658307 C49.6988592,88.9621276 49.683238,88.9579195 49.667449,88.9535432 L49.667449,88.9535432 L49.6311677,88.9432755 C49.6123552,88.9375526 49.5938786,88.930988 49.57557,88.9244235 C49.5564215,88.9175223 49.537609,88.9102845 49.5189644,88.9025417 C49.5072066,88.8976603 49.4952808,88.8941256 49.4838589,88.8889076 L49.4838589,88.8889076 L49.4769722,88.8858778 L49.4754605,88.8852045 L29.131567,79.7315267 L8.77910712,88.8890759 C8.61365772,88.9634742 8.43745831,89 8.26226671,89 C7.98511797,89 7.71048876,88.9086012 7.4842346,88.73119 C7.11537482,88.4418448 6.93665588,87.9713853 7.02030441,87.5095102 L7.02030441,87.5095102 L8.0817001,81.6448409 C8.20616508,80.9574146 8.86342753,80.5015991 9.54890875,80.6258206 C10.2348939,80.750547 10.6899217,81.4088537 10.5656247,82.0961118 L10.5656247,82.0961118 L9.93221386,85.5972059 L27.931261,77.4984009 L29.245114,60.4989059 L12.9082874,69.1530045 L11.4713132,77.0929137 C11.3470162,77.78034 10.6902577,78.2369971 10.0041046,78.111934 C9.31811943,77.9873759 8.86292362,77.3289009 8.98722063,76.6416428 L8.98722063,76.6416428 L13.7771907,50.1755597 C13.8443783,49.8028951 14.0748317,49.4802222 14.4050586,49.2960781 L14.4050586,49.2960781 L31.4107375,39.8099647 L31.4107375,39.8099647 L31.4110734,39.8097963 C31.4607922,39.7821916 31.5103431,39.7589631 31.5610697,39.7389328 C31.5787064,39.7320316 31.5966791,39.7273186 31.6143158,39.721259 C31.6480776,39.7096448 31.6818393,39.6980306 31.716273,39.6892779 C31.7381089,39.6837233 31.7602808,39.6805252 31.7822848,39.6761488 C31.813359,39.6700892 31.8444333,39.6638613 31.8758435,39.6601582 L31.8758435,39.6601582 L31.9453826,39.6549402 C31.9762889,39.6530887 32.0070272,39.6514055 32.0379335,39.6517421 C32.0609452,39.6520788 32.0841249,39.6535937 32.1073047,39.6551086 C32.1382109,39.6571284 32.1691172,39.6598216 32.1998555,39.6641979 C32.2226993,39.6673961 32.2455431,39.6714358 32.2682189,39.6759805 C32.2987892,39.6820401 32.3291916,39.6892779 32.359426,39.6975257 C32.3817659,39.7037536 32.4041058,39.7103181 32.4261097,39.7177243 C32.4558402,39.7278236 32.4852348,39.7392695 32.5142934,39.751557 C32.5357934,39.7606464 32.5576294,39.7697357 32.5787935,39.7801717 C32.5885357,39.7848847 32.5987818,39.7882511 32.608356,39.7933008 L32.608356,39.7933008 L35.7156133,41.4164282 C33.5283218,37.3664366 32.42443,33.4447063 32.42443,29.6944959 C32.42443,19.9377209 40.3445012,12 50.0808205,12 Z M51.2631538,80.165797 L51.2631538,85.7805083 L55.0367439,84.0824777 L51.2631538,80.165797 Z M31.6539565,62.0919037 L30.4588575,77.555462 L46.5645588,84.8022218 L31.6539565,62.0919037 Z M71.0851678,64.7480222 L72.0706416,77.4984009 L87.3008888,84.351456 L71.0851678,64.7480222 Z M32.3849573,52.6337317 L31.9720897,57.9742468 L48.7385808,83.5111934 L48.7385808,77.4021209 L37.4062206,59.5047972 C37.1450289,59.092072 37.1441891,58.565898 37.404037,58.1526679 C37.663885,57.7392695 38.1383972,57.5138866 38.6219798,57.5709477 L38.6219798,57.5709477 L48.7384128,58.7847164 L48.7384128,56.7658643 C48.2135099,56.3327723 47.3620753,55.6074735 46.3117656,54.6307019 L46.3117656,54.6307019 L32.3849573,52.6337317 Z M70.3899444,55.7488638 L70.4043897,55.9368793 L70.7473823,60.375526 L89.6383445,83.2127588 L88.478519,76.8042417 L70.3899444,55.7488638 Z M61.8068998,56.4433597 L51.2631538,61.0419121 L51.2631538,76.5234809 L57.4847232,82.9809796 L69.5428771,77.555462 L68.3041062,61.527184 L61.8068998,56.4433597 Z M40.9627949,60.3997643 L48.7385808,72.6801885 L48.7385808,61.3327723 L40.9627949,60.3997643 Z M29.7952123,53.3782192 L14.2799218,61.5722942 L14.2599335,61.6832183 L13.4808935,65.9878808 L29.4755674,57.5152331 L29.7952123,53.3782192 Z M30.5846663,43.1661336 L16.1544551,51.2157886 L14.8523599,58.4105369 L30.0258336,50.3969029 L30.2220213,47.8591146 L30.5846663,43.1661336 Z M67.2341441,47.6798519 L55.8463542,52.6931493 C53.7668988,54.8020535 52.0319477,56.2715031 51.2683609,56.8947989 L51.2683609,56.8947989 L51.2683609,58.2809291 L61.4882627,53.8234304 C61.9128882,53.6384447 62.4040294,53.7010604 62.7688579,53.9863659 L62.7688579,53.9863659 L68.040395,58.1110924 L67.2341441,47.6798519 Z M50.0818283,14.5298771 C41.7374676,14.5298771 34.9490031,21.3327723 34.9490031,29.6946642 C34.9490031,41.0417438 46.8942819,51.8966504 50.0818283,54.5906413 C53.2693748,51.8968187 65.2148215,41.0417438 65.2148215,29.6946642 C65.2148215,21.3327723 58.4261891,14.5298771 50.0818283,14.5298771 Z M33.1356105,42.9217303 L32.5803052,50.1060428 L43.3068013,51.6441676 C42.5312888,50.8209056 41.7252059,49.921562 40.9164354,48.9537115 C39.9914305,47.8466588 39.1426835,46.746844 38.3678428,45.6549402 L38.3678428,45.6549402 L33.1356105,42.9217303 Z M74.0735032,45.7633395 L69.6970726,46.7889244 L69.9795963,50.4465578 L78.8945475,48.4527857 L77.1772331,47.4946979 L74.0735032,45.7633395 Z M66.8662921,42.9217303 L61.8897085,45.5212927 C61.2784696,46.3893284 60.6198634,47.2620771 59.913554,48.1395388 L59.913554,48.1395388 L67.0275423,45.0075745 L66.8662921,42.9217303 Z M69.4172363,43.1659653 L69.500045,44.2373338 L70.7940777,43.9340178 L69.4172363,43.1659653 Z M50.4998385,21 C54.6354476,21 57.9998385,24.3643909 58,28.5 C58,32.6354476 54.6356091,36 50.5,36 C46.3643909,36 43,32.6354476 43,28.5 C43,26.5217349 43.7634673,24.655051 45.149916,23.2438961 C45.6194936,22.7655988 46.3878052,22.7589782 46.8659411,23.2287172 C47.344077,23.6982948 47.3508591,24.4666064 46.88112,24.9445808 C45.9432567,25.8992378 45.4268505,27.1618331 45.4268505,28.5 C45.4268505,31.2972807 47.7025578,33.572988 50.4998385,33.572988 C53.2971192,33.572988 55.5728265,31.2971192 55.5728265,28.5 C55.5728265,25.7027193 53.2971192,23.427012 50.4998385,23.427012 C49.8297055,23.427012 49.2863325,22.8838005 49.2863325,22.213506 C49.2863325,21.5432115 49.8297055,21 50.4998385,21 Z"
                  id="Combined-Shape"></path>
        </g>
    </g>
</svg>