<?xml version="1.0" encoding="UTF-8"?>
<svg width="100px" height="100px" viewBox="0 0 100 100" version="1.1" xmlns="http://www.w3.org/2000/svg" xmlns:xlink="http://www.w3.org/1999/xlink">
    <title>assets/icons/patch-flowered</title>
    <g id="00-Assets" stroke="none" stroke-width="1" fill="none" fill-rule="evenodd">
        <g id="assets/icons/patch-flowered" fill="#344A3F" fill-rule="nonzero">
            <path d="M71.0079688,72.8618866 L71.0079688,72.8501514 C71.0079688,68.3251148 74.7137187,64.6437551 79.2685625,64.6437551 L83.890625,64.6437551 L83.890625,60.4526128 L79.2685625,60.4526128 C76.103375,60.4526128 73.2102969,61.6299047 71.0079688,63.5662124 L71.0079688,52.3609141 C77.2819531,51.3547605 82.0889375,45.9377091 82.0889375,39.4252329 L82.0889375,29.2557055 L77.6620625,29.2557055 L73.7792656,22 L64.0176406,22 L60.1349844,29.2557055 L55.7081094,29.2557055 L55.7081094,39.4250932 C55.7081094,45.9374297 60.5150937,51.3546208 66.7890781,52.3607744 L66.7890781,63.5660727 C64.58675,61.6299047 61.6936719,60.4526128 58.528625,60.4526128 L53.9065625,60.4526128 L53.9065625,64.6437551 L58.528625,64.6437551 C63.0834688,64.6437551 66.7890781,68.3252545 66.7890781,72.8501514 L66.7890781,72.8618866 L33.2107812,72.8618866 L33.2107812,72.8501514 C33.2107812,68.3251148 36.9163906,64.6437551 41.4712344,64.6437551 L46.0932969,64.6437551 L46.0932969,60.4526128 L41.4712344,60.4526128 C38.3061875,60.4526128 35.4129687,61.6299047 33.2107812,63.5660727 L33.2107812,52.3607744 C39.4847656,51.3546208 44.29175,45.9375694 44.29175,39.4250932 L44.29175,29.2557055 L39.864875,29.2557055 L35.9820781,22 L26.2205937,22 L22.3377969,29.2557055 L17.9109219,29.2557055 L17.9109219,39.4250932 C17.9109219,45.9375694 22.7179062,51.3546208 28.9918906,52.3607744 L28.9918906,63.5660727 C26.7895625,61.6299047 23.8964844,60.4524731 20.7312969,60.4524731 L16.109375,60.4524731 L16.109375,64.6436154 L20.7314375,64.6436154 C25.2862813,64.6436154 28.9920313,68.3251148 28.9920313,72.8500117 L28.9920313,72.8617469 L14,72.8617469 L14,86 L86,86 L86,72.8617469 L71.0079688,72.8617469 L71.0079688,72.8618866 Z M77,40.0219533 C77,44.9725584 73.2080438,49 68.547197,49 C68.3634289,49 68.1808533,48.9936673 68,48.9814241 L68,40.4855052 C68,36.9093724 70.739165,34 74.1060829,34 L77,34 L77,40.0219533 Z M71.3770283,26 L73,29.2925785 C71.05733,29.6553758 69.3025622,30.6178877 67.9099691,32 C67.0526324,31.1456708 66.0674694,30.4661751 65,29.9816365 L66.9625188,26 L71.3770283,26 Z M64.0691263,39.1973664 L64.0691263,46 C61.62488,44.4768136 60,41.798227 60,38.7544092 L60,33 L60.3719654,33 C62.1519682,33 63.8145659,33.7225285 65,34.974212 C64.4024139,36.2622035 64.0691263,37.6924684 64.0691263,39.1973664 L64.0691263,39.1973664 Z M40,40.0219533 C40,44.9725584 36.2080438,49 31.547197,49 C31.3634289,49 31.1808533,48.9936673 31,48.9814241 L31,40.4855052 C31,36.9093724 33.739165,34 37.1060829,34 L40,34 L40,40.0219533 Z M33.3770283,26 L35,29.2925785 C33.05733,29.6553758 31.3025622,30.6178877 29.9099691,32 C29.0526324,31.1458135 28.0674694,30.4661751 27,29.9816365 L28.9626511,26 L33.3770283,26 Z M27.0691263,39.1973664 L27.0691263,46 C24.62488,44.4768136 23,41.798227 23,38.7544092 L23,33 L23.3719654,33 C25.1519682,33 26.8145659,33.7225285 28,34.974212 C27.4024139,36.2622035 27.0691263,37.6924684 27.0691263,39.1973664 L27.0691263,39.1973664 Z M82,82 L19,82 L19,77 L82,77 L82,82 Z" id="Shape"></path>
        </g>
    </g>
</svg>