<?xml version="1.0" encoding="UTF-8"?>
<svg width="100px" height="100px" viewBox="0 0 100 100" version="1.1" xmlns="http://www.w3.org/2000/svg"
>
    <title>assets/icons/patch-raw</title>
    <g id="00-Assets" stroke="none" stroke-width="1" fill="none" fill-rule="evenodd">
        <g id="assets/icons/patch-raw" fill="#344A3F" fill-rule="nonzero">
            <path d="M93,62.6413834 L93,45.5792504 L86.2018008,45.5792504 C85.0246758,39.6434282 79.7442422,35.1515854 73.4247539,35.1515854 C72.2798789,35.1515854 71.1563359,35.2969837 70.0677305,35.5851126 C67.6657773,33.3369402 64.5005742,32.075876 61.14775,32.075876 C60.3216797,32.075876 59.5011523,32.153244 58.6945664,32.3068127 C56.3173047,30.1893654 53.2263437,29 50,29 C46.7736562,29 43.6826953,30.1893654 41.3056016,32.306646 C40.4988477,32.1530773 39.6783203,32.0757093 38.852418,32.0757093 C35.4994258,32.0757093 32.3342227,33.3367735 29.9324375,35.5849459 C28.843832,35.296817 27.7202891,35.1514186 26.5754141,35.1514186 C20.2560937,35.1514186 14.9754922,39.6432615 13.7983672,45.5790836 L7,45.5790836 L7,62.6412167 L9.94314844,62.6412167 L9.94314844,68.9378669 L7,68.9378669 L7,86 L93,86 L93,68.9380337 L90.0568516,68.9380337 L90.0568516,62.6413834 L93,62.6413834 Z M26.5750604,40.8449085 C27.6545964,40.8449085 28.7003706,41.0440588 29.6839964,41.4364972 L31.4360797,42.1359787 L32.6289947,40.7379663 C34.1558318,38.9486245 36.4240835,37.9224543 38.8524095,37.9224543 C39.6880547,37.9224543 40.5141256,38.0449229 41.3076106,38.2866916 L42.8888696,38.7681694 L43.9808353,37.5868933 C45.5002818,35.9428345 47.6941233,35 50,35 C52.3058767,35 54.4997182,35.9428345 56.0191647,37.5868933 L57.1111304,38.7681694 L58.6923894,38.2866916 C59.4860423,38.0450814 60.3121133,37.9224543 61.1475905,37.9224543 C63.5759165,37.9224543 65.8441682,38.9487829 67.3710053,40.7379663 L68.5639203,42.1359787 L70.3160036,41.4364972 C71.2994614,41.0439003 72.3454036,40.8449085 73.4249396,40.8449085 C76.9474149,40.8449085 79.9423,43.008469 81,46 L19,46 C20.0577,43.008469 23.0525851,40.8449085 26.5750604,40.8449085 Z M12,51 L88,51 L88,58 L12,58 L12,51 Z M25,69 L25,62 L75,62 L75,69 L25,69 Z M15,62 L20,62 L20,69 L15,69 L15,62 Z M88,81 L12,81 L12,74 L88,74 L88,81 Z M85,69 L80,69 L80,62 L85,62 L85,69 Z"
                  id="Shape"></path>
        </g>
    </g>
</svg>