<?xml version="1.0" encoding="UTF-8"?>
<svg width="100px" height="100px" viewBox="0 0 100 100" version="1.1" xmlns="http://www.w3.org/2000/svg"
>
    <title>assets/icons/seed-bag</title>
    <g id="00-Assets" stroke="none" stroke-width="1" fill="none" fill-rule="evenodd">
        <g id="assets/icons/seed-bag" fill="#344A3F" fill-rule="nonzero">
            <path d="M19.974446,14.9794743 C22.6067562,12.3402703 26.8903941,12.3401277 29.523131,14.9793317 L29.523131,14.9793317 L30.1030158,15.5606724 C39.4959554,12.6846259 59.5039024,12.6846259 68.896842,15.5606724 L68.896842,15.5606724 L69.4767268,14.9794743 C72.1094637,12.3405555 76.3931016,12.3399851 79.025554,14.9794743 C81.6581487,17.6186784 81.6581487,21.9129281 79.025554,24.5521321 L79.025554,24.5521321 L78.1313338,25.44874 C79.4501202,30.4974351 80.2247223,39.3048107 80.2247223,49.5000178 C80.2247223,59.6952249 79.4499779,68.5026006 78.1313338,73.5512956 L78.1313338,73.5512956 L79.025554,74.4479035 C81.6581487,77.0871075 81.6581487,81.3813573 79.025554,84.0205613 C77.7093278,85.3402346 75.9803408,86 74.2512115,86 C72.5222245,86 70.7932375,85.3402346 69.476869,84.0207039 L69.476869,84.0207039 L68.8969842,83.4393632 C59.5040446,86.3154098 39.4960976,86.3154098 30.103158,83.4393632 L30.103158,83.4393632 L29.5232732,84.0205613 C26.8906785,86.6596228 22.6070407,86.659908 19.974446,84.0205613 C17.3418513,81.3813573 17.3418513,77.0871075 19.974446,74.4479035 L19.974446,74.4479035 L20.8686662,73.5512956 C19.5498798,68.5026006 18.7752777,59.6952249 18.7752777,49.5000178 C18.7752777,39.3048107 19.5500221,30.4974351 20.8686662,25.44874 L20.8686662,25.44874 L19.974446,24.5521321 C17.3418513,21.9129281 17.3418513,17.6186784 19.974446,14.9794743 Z M26.5060799,18.0042426 C25.537045,17.0329174 23.960532,17.0329174 22.9916393,18.0042426 C22.0227466,18.9755677 22.0227466,20.5558961 22.9916393,21.5273639 L22.9916393,21.5273639 L25.7043112,24.2469889 L25.2978087,25.4949393 C22.3016659,34.6931549 22.3016659,64.3070233 25.2978087,73.505239 L25.2978087,73.505239 L25.7043112,74.7531894 L22.9916393,77.4726717 C22.0227466,78.4439969 22.0227466,80.0243253 22.9916393,80.9957931 C23.9603897,81.9669757 25.537045,81.9671183 26.5060799,80.9956505 L26.5060799,80.9956505 L29.0015617,78.4937609 L30.2931816,78.9878364 C38.3707484,82.077198 60.6293938,82.077198 68.7069606,78.9878364 L68.7069606,78.9878364 L69.9985805,78.4937609 L72.4940623,80.9956505 C73.4630973,81.9668331 75.0396103,81.9669757 76.008503,80.9956505 C76.9773956,80.0243253 76.9773956,78.4439969 76.008503,77.4725291 L76.008503,77.4725291 L73.295831,74.7530468 L73.7023335,73.5050964 C76.6984763,64.3068807 76.6984763,34.6930123 73.7023335,25.4947967 L73.7023335,25.4947967 L73.295831,24.2468463 L76.008503,21.5273639 C76.9773956,20.5560387 76.9773956,18.9757103 76.008503,18.0042426 C75.0396103,17.0329174 73.462955,17.0327748 72.4940623,18.0043851 L72.4940623,18.0043851 L69.9985805,20.5061321 L68.7069606,20.0120567 C60.6293938,16.9226951 38.3707484,16.9226951 30.2931816,20.0120567 L30.2931816,20.0120567 L29.0015617,20.5061321 Z M69,30 L69,69 L30,69 L30,30 L69,30 Z M64.6961876,34.3038124 L34.3038124,34.3038124 L34.3038124,64.6961876 L64.6961876,64.6961876 L64.6961876,34.3038124 Z M60,39 L60,48.6842868 C60,54.9237289 54.9237289,60 48.6842868,60 L48.6842868,60 L39,60 L39,50.3157132 C39,44.0762711 44.0762711,39 50.3157132,39 L50.3157132,39 L60,39 Z M55.8512509,43.1487491 L50.3157132,43.1487491 C46.3638914,43.1487491 43.1487491,46.3638914 43.1487491,50.3157132 L43.1487491,50.3157132 L43.1487491,52.9176704 L48.0332097,48.0332097 L50.9667903,50.9667903 L46.0823296,55.8512509 L48.6842868,55.8512509 C52.6361086,55.8512509 55.8512509,52.6361086 55.8512509,48.6842868 L55.8512509,48.6842868 L55.8512509,43.1487491 Z"
                  id="Combined-Shape"></path>
        </g>
    </g>
</svg>