<svg width="100%" height="100%" viewBox="0 0 100 100" version="1.1" xmlns="http://www.w3.org/2000/svg" xml:space="preserve" style="fill-rule:evenodd;clip-rule:evenodd;stroke-linejoin:round;stroke-miterlimit:2;">
    <g id="Artboard1" transform="matrix(0.80916,0,0,0.80916,0,0)">
        <rect x="0" y="0" width="123.585" height="123.585" style="fill:none;"/>
        <g transform="matrix(1.23585,0,0,1.23585,2.22045e-16,0)">
            <path d="M10.371,17.251C10.054,17.683 9.873,18.265 9.849,18.891C9.813,19.824 10.125,20.847 10.724,21.532C10.809,21.63 11.111,21.858 11.601,22.139C12.501,22.656 14.14,23.491 15.961,24.353C15.961,24.353 20.391,26.465 20.391,26.465L29.11,38.092C34.315,45.019 36.446,47.859 37.268,49.139C37.44,49.407 37.571,49.672 37.617,49.768C37.499,50.056 37.45,50.272 37.449,50.479C37.447,50.781 37.546,51.082 37.844,51.596C37.888,51.676 37.935,51.763 37.98,51.846C37.443,52.273 36.396,53.098 35.345,53.886C35.342,53.888 35.34,53.89 35.338,53.891C33.601,55.229 31.99,56.555 31.751,56.835C31.744,56.842 31.738,56.85 31.732,56.858C30.707,58.162 30.602,60.072 31.51,61.563C31.709,61.9 33.319,63.355 35.136,64.785C36.003,65.474 36.867,66.201 37.439,66.689C36.46,67.171 34.908,68.243 34.109,69.042C32.937,70.214 31.746,72.126 31.232,73.647L30.972,74.452C30.972,74.452 30.018,74.613 30.018,74.613C27.397,75.053 25.096,76.532 23.817,78.546C23.816,78.547 23.815,78.548 23.815,78.549C23.707,78.72 23.615,78.856 23.528,78.961C23.462,79.041 23.422,79.092 23.343,79.092C23.024,79.092 22.019,79.31 21.081,79.608C18.338,80.475 15.659,82.706 14.4,85.181C13.88,86.185 13.349,87.764 13.227,88.55C13.01,88.56 12.675,88.572 12.296,88.572C10.489,88.572 10.22,88.747 9.757,89.235C9.755,89.237 9.754,89.238 9.752,89.24C9.344,89.677 9.156,90.179 9.16,90.663C9.164,91.162 9.367,91.656 9.8,92.062C9.8,92.062 10.244,92.487 10.244,92.487C10.375,92.612 10.548,92.681 10.728,92.681L92.203,92.681C92.399,92.681 92.587,92.598 92.72,92.453L93.121,92.014C93.917,91.181 93.922,90.112 93.21,89.31C93.207,89.308 93.205,89.305 93.203,89.302C93.037,89.122 92.876,88.6 92.77,88.135C92.336,86.075 91.248,84.115 89.6,82.487C87.329,80.217 84.725,79.092 81.794,79.092C81.794,79.092 81.117,79.092 81.117,79.092C81.117,79.092 81.057,78.604 81.057,78.604C80.399,73.181 76.128,68.885 70.663,68.166L70.286,68.113C70.245,68.105 70.212,68.108 70.187,68.087C70.064,67.986 70.007,67.794 69.854,67.465C69.587,66.873 69.02,65.918 68.613,65.328C68.272,64.834 67.888,64.123 67.786,63.73C67.783,63.721 67.781,63.712 67.778,63.703C67.642,63.256 65.641,58.197 63.287,52.478C60.688,46.122 59.532,43.357 58.761,42.021C58.148,40.959 57.726,40.667 57.14,40.36C57.139,40.359 57.138,40.358 57.136,40.358C56.412,39.984 54.684,39.921 53.82,40.248C53.549,40.344 51.833,41.52 50.049,42.858C48.976,43.662 47.878,44.464 47.332,44.861C47.257,44.794 47.177,44.722 47.103,44.652C46.428,43.954 46.039,43.843 45.387,43.917C45.304,43.843 45.098,43.653 44.871,43.393C43.854,42.227 41.699,39.365 36.518,32.472C36.518,32.472 27.76,20.788 27.76,20.788C27.76,20.788 26.975,16.023 26.975,16.023C26.515,13.222 25.975,10.685 25.835,10.385C25.832,10.377 25.828,10.37 25.824,10.363C25.505,9.737 24.884,9.202 24.16,8.886C23.444,8.573 22.635,8.478 21.953,8.667C21.731,8.715 21.566,8.687 21.339,8.542C21.333,8.538 21.327,8.535 21.321,8.531C20.551,8.074 19.036,7.969 18.147,8.329C18.144,8.33 18.142,8.331 18.14,8.332C17.639,8.541 14.501,10.861 12.555,12.421C11.656,13.142 11.007,13.728 10.897,13.896C10.304,14.798 10.103,15.844 10.316,16.794C10.318,16.799 10.319,16.804 10.32,16.81C10.359,16.965 10.369,17.172 10.371,17.251ZM34.087,78.086C34.17,77.999 34.28,77.836 34.38,77.605C34.531,77.259 34.704,76.699 34.824,76.148C34.824,76.147 34.824,76.146 34.824,76.145C35.304,73.887 36.448,72.1 38.173,70.998C38.174,70.998 38.174,70.997 38.175,70.997C39.43,70.19 40.616,69.819 42.374,69.694L44.026,69.558C44.232,69.541 44.42,69.433 44.54,69.264L45.567,67.811C48.494,63.64 53.101,61.749 57.967,62.773C57.968,62.773 57.968,62.773 57.968,62.773C61.619,63.54 64.996,66.37 66.401,69.857C66.401,69.858 66.402,69.859 66.402,69.859C66.898,71.079 67.262,71.622 67.714,71.892C68.052,72.093 68.459,72.172 69.063,72.172C72.938,72.172 76.106,74.728 76.871,78.462C76.871,78.462 76.871,78.462 76.871,78.463C76.992,79.054 77.027,79.92 76.977,80.483C76.823,81.727 76.964,82.053 77.377,82.57C77.38,82.573 77.382,82.576 77.384,82.579C77.683,82.94 77.872,83.126 78.512,83.224C78.924,83.287 79.626,83.297 80.981,83.297C83.402,83.297 83.463,83.275 84.652,83.861C85.31,84.2 86.249,84.853 86.735,85.317C87.47,86.071 88.35,87.532 88.668,88.572L17.423,88.572C17.521,88.24 17.738,87.725 17.937,87.313C17.937,87.313 17.937,87.312 17.938,87.312C19.034,85.031 21.267,83.499 23.902,83.216C23.904,83.216 23.906,83.215 23.909,83.215C25.094,83.076 25.697,82.895 26.101,82.572C26.406,82.327 26.623,81.999 26.834,81.493C26.835,81.49 26.836,81.488 26.836,81.486C27.189,80.612 28.374,79.479 29.332,79.059C29.334,79.058 29.335,79.058 29.337,79.057C29.998,78.761 30.626,78.669 31.705,78.634C31.705,78.634 31.706,78.634 31.707,78.634C32.567,78.604 33.162,78.531 33.509,78.423C33.789,78.335 33.973,78.209 34.087,78.086ZM42.075,77.826C42.091,77.781 42.279,77.251 42.462,76.936C42.888,76.224 43.823,75.655 44.626,75.655C45.823,75.655 46.719,74.739 46.719,73.6C46.719,71.963 45.227,71.072 42.81,71.849L42.81,71.849C41.375,72.299 40.667,72.769 39.639,73.904C38.526,75.126 37.967,76.547 37.967,78.031C37.967,78.856 38.074,79.279 38.301,79.592C38.464,79.819 38.7,80.005 39.078,80.2C40.441,80.919 42.06,79.738 42.075,77.826ZM34.087,78.086L34.099,78.074L34.073,78.1L34.087,78.086ZM55.995,65.441C55.312,66.169 55.267,67.042 55.623,67.729C55.959,68.377 56.686,68.883 57.667,68.883C58.249,68.883 58.86,69.372 58.974,69.929C58.975,69.935 58.976,69.94 58.977,69.946C59.164,70.76 59.576,71.32 60.067,71.613C60.618,71.943 61.293,71.982 61.998,71.608C63.171,70.994 63.509,69.663 62.49,67.673C61.796,66.279 60.198,65.198 58.744,64.863C57.62,64.604 56.591,64.803 55.995,65.441L55.995,65.441ZM40.505,55.207C40.893,55.73 41.537,56.602 42.265,57.573C43.709,59.522 44.418,60.426 44.895,60.842C45.38,61.265 45.719,61.337 46.135,61.337C46.17,61.337 46.214,61.335 46.266,61.326C44.999,62.218 43.843,63.295 42.951,64.446C42.949,64.447 42.948,64.449 42.947,64.45C42.73,64.735 42.462,65.023 42.277,65.213C39.842,63.327 36.596,60.692 35.302,59.573C35.211,59.495 35.122,59.415 35.046,59.346C35.68,58.772 39.146,56.157 40.505,55.207ZM55.314,44.229C55.375,44.324 55.453,44.455 55.527,44.599C56.031,45.587 56.931,47.751 58.856,52.465L58.856,52.465C60.074,55.473 61.161,58.144 61.8,59.714L61.66,59.658C59.074,58.628 57.396,58.327 54.79,58.448C54.788,58.448 54.787,58.448 54.785,58.449C52.182,58.589 50.75,58.929 48.562,59.978C50.541,58.622 53.271,56.586 53.76,56.032C53.766,56.025 53.772,56.018 53.778,56.011C54.045,55.684 54.265,55.112 54.265,54.756C54.265,54.652 54.224,54.431 54.07,54.136C53.761,53.548 52.884,52.256 51.788,50.762C51.786,50.76 51.785,50.757 51.783,50.755C51.012,49.731 50.276,48.683 49.888,48.123C50.418,47.719 51.379,46.995 52.457,46.183C53.611,45.315 54.4,44.754 54.937,44.429C55.069,44.349 55.209,44.279 55.314,44.229ZM45.129,48.831C45.579,49.398 46.466,50.526 47.297,51.635C47.297,51.635 47.298,51.635 47.298,51.636C48.102,52.705 48.873,53.782 49.29,54.37C48.419,55.026 47.135,55.935 46.484,56.394C45.33,54.898 43.241,52 42.487,50.861C43.124,50.311 44.413,49.324 45.129,48.831ZM49.854,53.937C49.822,53.957 49.792,53.98 49.764,54.005L49.8,53.977C49.817,53.963 49.836,53.949 49.854,53.937L49.854,53.937ZM49.468,48.449L49.348,48.547C49.39,48.519 49.431,48.486 49.468,48.449ZM25.384,24.613C26.483,26.016 29.72,30.276 33.483,35.267L33.483,35.267C37.179,40.185 40.343,44.447 41.481,46.014C41.538,46.093 41.593,46.169 41.643,46.24C41.521,46.359 41.362,46.507 41.22,46.616C41.22,46.616 40.886,46.87 40.886,46.87L39.935,45.638C39.181,44.671 35.334,39.529 31.371,34.252C31.371,34.252 24.576,25.198 24.576,25.198C24.576,25.198 24.919,24.943 24.919,24.943C25.067,24.835 25.235,24.716 25.384,24.613ZM22.708,15.574C22.821,16.167 22.957,16.904 23.079,17.627C23.079,17.629 23.079,17.631 23.08,17.633C23.318,18.979 23.516,20.171 23.604,20.745L21.465,22.328C20.965,22.113 19.679,21.554 18.479,20.981C18.478,20.98 18.477,20.98 18.475,20.979C17.727,20.627 17.127,20.329 16.694,20.107C16.893,19.979 17.115,19.831 17.354,19.666C18.941,18.568 21.386,16.705 22.611,15.657L22.708,15.574ZM19.445,12.358L19.621,12.566C19.67,12.628 19.72,12.696 19.768,12.762C18.677,13.646 15.865,15.724 14.779,16.447L14.55,16.118C15.55,15.259 18.338,13.113 19.445,12.358Z" style="fill:rgb(52,74,63);fill-rule:nonzero;"/>
        </g>
    </g>
</svg>
