<?xml version="1.0" encoding="UTF-8"?>
<svg width="100px" height="100px" viewBox="0 0 100 100" version="1.1" xmlns="http://www.w3.org/2000/svg"
>
    <title>assets/icons/sow</title>
    <g id="00-Assets" stroke="none" stroke-width="1" fill="none" fill-rule="evenodd">
        <g id="assets/icons/sow" fill="#344A3F" fill-rule="nonzero">
            <path d="M86,73 L86,86 L14,86 L14,73 L86,73 Z M81.78125,77.1472215 L18.21875,77.1472215 L18.21875,81.853055 L81.78125,81.853055 L81.78125,77.1472215 Z M46,65 L46,69 L42,69 L42,65 L46,65 Z M59,62 L59,66 L55,66 L55,62 L59,62 Z M51,55 L51,59 L47,59 L47,55 L51,55 Z M59,49 L59,53 L55,53 L55,49 L59,49 Z M46,47 L46,51 L42,51 L42,47 L46,47 Z M68.8533463,14 L82,27.4751319 L66.0963143,43.775834 L52.5282017,43.775834 C49.1337869,43.775834 46.2937828,41.2959055 45.6427818,38.0107269 L45.6427818,38.0107269 L38.9301854,44.8907513 C37.6031936,46.2508699 35.8388784,47 33.9622491,47 C32.0856198,47 30.3213047,46.2508699 28.9941725,44.8907513 L28.9941725,44.8907513 L25,40.7968691 L43.1640082,22.1794183 L60.8731441,22.1794183 L68.8533463,14 Z M68.8533463,20.1051367 L62.6176639,26.4964854 L44.9086684,26.4964854 L30.9565817,40.7968691 L31.9724633,41.8382549 C32.5039901,42.3830506 33.2105866,42.6830768 33.9622491,42.6830768 C34.7137713,42.6830768 35.4203678,42.3830506 35.9518946,41.8382549 L35.9518946,41.8382549 L46.7358794,30.7850608 L61.745404,30.7850608 L61.745404,35.101984 L49.7141703,35.101984 L49.7141703,36.5746304 C49.7141703,38.164985 50.9765815,39.4589107 52.5282017,39.4589107 L52.5282017,39.4589107 L64.3516542,39.4589107 L76.0436991,27.474988 L68.8533463,20.1051367 Z"
                  id="Combined-Shape"></path>
        </g>
    </g>
</svg>