<?xml version="1.0" encoding="UTF-8"?>
<svg width="251px" height="131px" viewBox="0 0 251 131" version="1.1" xmlns="http://www.w3.org/2000/svg" xmlns:xlink="http://www.w3.org/1999/xlink">
    <title>assets/logos/buerger-beete</title>
    <g id="00-Assets" stroke="none" stroke-width="1" fill="none" fill-rule="evenodd">
        <g id="Group-Copy">
            <rect id="Rectangle" fill="#05A054" x="0" y="0" width="65" height="131" rx="9"></rect>
            <path d="M33.964,59.408 C36.5026667,59.408 38.9506667,59.1473333 41.308,58.626 C43.6653333,58.1046667 45.762,57.2773333 47.598,56.144 C49.434,55.0106667 50.896,53.56 51.984,51.792 C53.072,50.024 53.616,47.916 53.616,45.468 C53.616,43.5186667 53.242,41.83 52.494,40.402 C51.746,38.974 50.7826667,37.784 49.604,36.832 C48.4253333,35.88 47.0993333,35.1546667 45.626,34.656 C44.1526667,34.1573333 42.6906667,33.8173333 41.24,33.636 L41.24,33.636 L41.24,33.364 C42.6906667,33.092 44.0393333,32.6386667 45.286,32.004 C46.5326667,31.3693333 47.6206667,30.576 48.55,29.624 C49.4793333,28.672 50.2046667,27.5726667 50.726,26.326 C51.2473333,25.0793333 51.508,23.7306667 51.508,22.28 C51.508,19.968 51.032,18.0753333 50.08,16.602 C49.128,15.1286667 47.8586667,13.984 46.272,13.168 C44.6853333,12.352 42.872,11.7853333 40.832,11.468 C38.792,11.1506667 36.684,10.992 34.508,10.992 C32.5133333,10.992 30.7453333,11.06 29.204,11.196 C27.6626667,11.332 26.0306667,11.4 24.308,11.4 L24.308,11.4 L13.36,11.4 L13.36,13.984 C14.176,14.4373333 15.0826667,14.834 16.08,15.174 C17.0773333,15.514 18.0293333,15.7746667 18.936,15.956 L18.936,15.956 L18.936,54.444 C18.0293333,54.5346667 17.0886667,54.7613333 16.114,55.124 C15.1393333,55.4866667 14.2213333,55.9173333 13.36,56.416 L13.36,56.416 L13.36,59 L21.452,59 C22.1773333,59 23.0726667,59.0226667 24.138,59.068 C25.2033333,59.1133333 26.3026667,59.1586667 27.436,59.204 L27.436,59.204 L30.836,59.34 C31.9693333,59.3853333 33.012,59.408 33.964,59.408 Z M30.904,32.616 L28.728,32.616 L28.728,15.684 C29.3173333,15.5933333 29.9746667,15.5253333 30.7,15.48 C31.4253333,15.4346667 32.2866667,15.412 33.284,15.412 C35.6413333,15.412 37.568,16.0806667 39.064,17.418 C40.56,18.7553333 41.308,20.852 41.308,23.708 C41.308,25.6573333 40.764,27.3913333 39.676,28.91 C38.588,30.4286667 37.16,31.5506667 35.392,32.276 C34.712,32.3666667 33.9866667,32.446 33.216,32.514 C32.4453333,32.582 31.6746667,32.616 30.904,32.616 L30.904,32.616 Z M33.896,54.988 C32.4906667,54.988 31.4366667,54.9426667 30.734,54.852 C30.0313333,54.7613333 29.3626667,54.648 28.728,54.512 L28.728,54.512 L28.728,37.036 L32.332,37.036 C33.8733333,37.036 35.3013333,37.1606667 36.616,37.41 C37.9306667,37.6593333 39.064,38.1126667 40.016,38.77 C40.968,39.4273333 41.716,40.3113333 42.26,41.422 C42.804,42.5326667 43.076,43.9493333 43.076,45.672 C43.076,48.4826667 42.26,50.738 40.628,52.438 C38.996,54.138 36.752,54.988 33.896,54.988 Z" id="B" fill="#FFFFFF" fill-rule="nonzero"></path>
            <path d="M182.142261,22.552 C182.459594,22.7786667 182.776928,23.1073333 183.094261,23.538 C183.411594,23.9686667 183.683594,24.4333333 183.910261,24.932 C184.136928,25.4306667 184.318261,25.9293333 184.454261,26.428 C184.590261,26.9266667 184.658261,27.3346667 184.658261,27.652 L184.658261,27.652 L183.774261,29.284 L176.634261,29.284 L176.819667,29.5310313 C177.248563,30.1285104 177.651428,30.8735 178.028261,31.766 C178.458928,32.786 178.674261,33.9986667 178.674261,35.404 C178.674261,36.9 178.356928,38.3053333 177.722261,39.62 C177.087594,40.9346667 176.124261,42.102 174.832261,43.122 C173.540261,44.142 171.908261,44.9466667 169.936261,45.536 C167.964261,46.1253333 165.663594,46.42 163.034261,46.42 C162.263594,46.42 161.572261,46.4086667 160.960261,46.386 C160.348261,46.3633333 159.815594,46.3066667 159.362261,46.216 C159.180928,46.488 158.988261,46.8166667 158.784261,47.202 C158.580261,47.5873333 158.478261,47.9613333 158.478261,48.324 C158.478261,49.0946667 159.022261,49.7066667 160.110261,50.16 C161.198261,50.6133333 162.580928,51.0213333 164.258261,51.384 C165.935594,51.7466667 167.737594,52.1546667 169.664261,52.608 C171.590928,53.0613333 173.392928,53.662 175.070261,54.41 C176.747594,55.158 178.152928,56.1326667 179.286261,57.334 C180.419594,58.5353333 181.008928,60.088 181.054261,61.992 C181.099594,63.8053333 180.646261,65.4146667 179.694261,66.82 C178.742261,68.2253333 177.438928,69.4153333 175.784261,70.39 C174.129594,71.3646667 172.180261,72.1126667 169.936261,72.634 C169.165026,72.8131758 168.376387,72.9615614 167.570346,73.0791567 C164.281695,73.2850239 161.602251,71.1576337 158.900034,71.1576337 C156.302619,71.1576337 154.584562,72.4003715 152.800685,72.0587004 C151.713649,71.6888844 150.773402,71.2575362 149.978261,70.764 C148.663594,69.948 147.700261,69.0186667 147.088261,67.976 C146.476261,66.9333333 146.170261,65.8453333 146.170261,64.712 C146.170261,63.4426667 146.419594,62.3546667 146.918261,61.448 C147.416928,60.5413333 148.119594,59.748 149.026261,59.068 C149.932928,58.388 150.986928,57.8213333 152.188261,57.368 C153.389594,56.9146667 154.715594,56.5066667 156.166261,56.144 C155.486261,55.9626667 154.828928,55.736 154.194261,55.464 C153.559594,55.192 152.992928,54.8633333 152.494261,54.478 C151.995594,54.0926667 151.587594,53.6393333 151.270261,53.118 C150.952928,52.5966667 150.794261,51.996 150.794261,51.316 C150.794261,50.7266667 150.975594,50.1486667 151.338261,49.582 C151.700928,49.0153333 152.176928,48.494 152.766261,48.018 C153.355594,47.542 153.990261,47.1113333 154.670261,46.726 C155.350261,46.3406667 156.030261,46.012 156.710261,45.74 C153.854261,45.1053333 151.587594,43.87 149.910261,42.034 C148.232928,40.198 147.394261,37.852 147.394261,34.996 C147.394261,31.596 148.799594,28.944 151.610261,27.04 C154.420928,25.136 158.228928,24.184 163.034261,24.184 C165.980928,24.184 168.428928,24.49 170.378261,25.102 C172.327594,25.714 173.800928,26.4733333 174.798261,27.38 C176.928928,25.068 179.376928,23.4586667 182.142261,22.552 Z M159.226261,56.96 C158.047594,57.8666667 157.208928,58.7733333 156.710261,59.68 C156.211594,60.5866667 155.962261,61.6746667 155.962261,62.944 C155.962261,65.0293333 156.676261,66.65 158.104261,67.806 C159.532261,68.962 161.538261,69.54 164.122261,69.54 C166.660928,69.54 168.542261,69.0073333 169.766261,67.942 C170.990261,66.8766667 171.602261,65.6186667 171.602261,64.168 C171.602261,62.944 171.228261,61.958 170.480261,61.21 C169.732261,60.462 168.768928,59.85 167.590261,59.374 C166.411594,58.898 165.085594,58.49 163.612261,58.15 C162.138928,57.81 160.676928,57.4133333 159.226261,56.96 Z M87.028,24.184 C87.028,27.584 86.96,30.9273333 86.824,34.214 C86.688,37.5006667 86.62,40.7306667 86.62,43.904 C86.62,47.6213333 86.994,50.296 87.742,51.928 C88.49,53.56 89.884,54.376 91.924,54.376 C93.3293333,54.376 94.6326667,53.8433333 95.834,52.778 C97.0353333,51.7126667 98.0213333,50.0013333 98.792,47.644 L98.792,47.644 L98.792,29.828 L94.372,29.284 L94.372,26.632 C95.052,26.36 95.902,26.088 96.922,25.816 C97.942,25.544 99.0073333,25.306 100.118,25.102 C101.228667,24.898 102.328,24.7166667 103.416,24.558 C104.504,24.3993333 105.456,24.2746667 106.272,24.184 L106.272,24.184 L108.584,24.184 L108.584,54.172 L113.072,54.716 L113.072,57.096 C112.437333,57.368 111.644,57.64 110.692,57.912 C109.74,58.184 108.742667,58.4446667 107.7,58.694 C106.657333,58.9433333 105.626,59.1473333 104.606,59.306 C103.586,59.4646667 102.668,59.5893333 101.852,59.68 L101.852,59.68 L99.54,59.68 L99.064,51.588 L98.792,51.588 C98.5653333,52.54 98.1573333,53.5033333 97.568,54.478 C96.9786667,55.4526667 96.2193333,56.3366667 95.29,57.13 C94.3606667,57.9233333 93.2613333,58.5693333 91.992,59.068 C90.7226667,59.5666667 89.3173333,59.816 87.776,59.816 C86.0533333,59.816 84.5233333,59.6006667 83.186,59.17 C81.8486667,58.7393333 80.704,57.98 79.752,56.892 C78.8,55.804 78.0746667,54.342 77.576,52.506 C77.0773333,50.67 76.828,48.3466667 76.828,45.536 C76.828,42.68 76.896,40.028 77.032,37.58 C77.168,35.132 77.236,32.548 77.236,29.828 L77.236,29.828 L72.748,29.284 L72.748,26.632 C73.4733333,26.36 74.3686667,26.088 75.434,25.816 C76.4993333,25.544 77.5986667,25.306 78.732,25.102 C79.8653333,24.898 80.9646667,24.7166667 82.03,24.558 C83.0953333,24.3993333 83.9906667,24.2746667 84.716,24.184 L84.716,24.184 Z M203.485391,24.184 C205.797391,24.184 207.962058,24.5013333 209.979391,25.136 C211.996725,25.7706667 213.674058,26.8133333 215.011391,28.264 C216.348725,29.7146667 217.278058,31.6186667 217.799391,33.976 C218.320725,36.3333333 218.286725,39.212 217.697391,42.612 L217.697391,42.612 L196.821391,42.612 L196.83102,43.0382784 C196.941561,46.4206528 197.856351,49.13456 199.575391,51.18 C201.366058,53.3106667 204.006725,54.376 207.497391,54.376 C208.993391,54.376 210.546058,54.1493333 212.155391,53.696 C213.764725,53.2426667 215.022725,52.6533333 215.929391,51.928 L215.929391,51.928 L217.221391,53.288 L217.092527,53.5453086 C216.727622,54.2325844 216.192576,54.9288148 215.487391,55.634 C214.694058,56.4273333 213.719391,57.13 212.563391,57.742 C211.407391,58.354 210.070058,58.8526667 208.551391,59.238 C207.032725,59.6233333 205.389391,59.816 203.621391,59.816 C200.810725,59.816 198.317391,59.3966667 196.141391,58.558 C193.965391,57.7193333 192.152058,56.518 190.701391,54.954 C189.250725,53.39 188.151391,51.52 187.403391,49.344 C186.655391,47.168 186.281391,44.72 186.281391,42 C186.281391,36.1973333 187.800058,31.7773333 190.837391,28.74 C193.874725,25.7026667 198.090725,24.184 203.485391,24.184 Z M141.562436,24.1789421 L141.89513,24.184 C142.393797,24.8186667 142.824464,25.714 143.18713,26.87 C143.549797,28.026 143.844464,29.1253333 144.07113,30.168 L144.07113,30.168 L144.07113,32.82 L134.75513,32.82 L134.570439,32.9173827 C134.068974,33.1949794 133.495871,33.6158519 132.85113,34.18 C132.125797,34.8146667 131.468464,35.8573333 130.87913,37.308 L130.87913,37.308 L130.87913,54.716 L131.42313,54.77992 C132.148464,54.87784 132.873797,55.0265333 133.59913,55.226 C134.505797,55.4753333 135.412464,55.8493333 136.31913,56.348 L136.31913,56.348 L136.31913,59 L116.59913,59 L116.59913,56.348 L116.946069,56.1606531 C117.634396,55.7998367 118.289416,55.5222857 118.91113,55.328 C119.636464,55.1013333 120.361797,54.8973333 121.08713,54.716 L121.08713,54.716 L121.08713,29.828 L116.59913,29.284 L116.59913,26.632 L116.879099,26.5140625 C117.550953,26.2413542 118.352964,25.986 119.28513,25.748 C120.350464,25.476 121.449797,25.238 122.58313,25.034 C123.716464,24.83 124.815797,24.66 125.88113,24.524 C126.413797,24.456 126.903964,24.3936667 127.35163,24.337 L127.35163,24.337 L128.287162,24.2190625 C128.383141,24.2070208 128.476464,24.1953333 128.56713,24.184 L128.56713,24.184 L130.87913,24.184 L130.87913,33.228 L131.15113,33.228 L131.295099,32.851875 C131.64962,31.9692917 132.134297,31.052 132.74913,30.1 C133.451797,29.012 134.27913,28.0146667 135.23113,27.108 C136.18313,26.2013333 137.225797,25.476 138.35913,24.932 C139.492464,24.388 140.67113,24.1386667 141.89513,24.184 Z M247.955828,24.1789421 L248.288522,24.184 C248.787188,24.8186667 249.217855,25.714 249.580522,26.87 C249.943188,28.026 250.237855,29.1253333 250.464522,30.168 L250.464522,30.168 L250.464522,32.82 L241.148522,32.82 L240.96383,32.9173827 C240.462365,33.1949794 239.889262,33.6158519 239.244522,34.18 C238.519188,34.8146667 237.861855,35.8573333 237.272522,37.308 L237.272522,37.308 L237.272522,54.716 L237.816522,54.77992 C238.541855,54.87784 239.267188,55.0265333 239.992522,55.226 C240.899188,55.4753333 241.805855,55.8493333 242.712522,56.348 L242.712522,56.348 L242.712522,59 L222.992522,59 L222.992522,56.348 L223.339461,56.1606531 C224.027787,55.7998367 224.682807,55.5222857 225.304522,55.328 C226.029855,55.1013333 226.755188,54.8973333 227.480522,54.716 L227.480522,54.716 L227.480522,29.828 L222.992522,29.284 L222.992522,26.632 L223.27249,26.5140625 C223.944345,26.2413542 224.746355,25.986 225.678522,25.748 C226.743855,25.476 227.843188,25.238 228.976522,25.034 C230.109855,24.83 231.209188,24.66 232.274522,24.524 C232.940355,24.439 233.539782,24.3628542 234.072803,24.2955625 L234.072803,24.2955625 L234.680553,24.2190625 C234.776532,24.2070208 234.869855,24.1953333 234.960522,24.184 L234.960522,24.184 L237.272522,24.184 L237.272522,33.228 L237.544522,33.228 L237.68849,32.851875 C238.043011,31.9692917 238.527688,31.052 239.142522,30.1 C239.845188,29.012 240.672522,28.0146667 241.624522,27.108 C242.576522,26.2013333 243.619188,25.476 244.752522,24.932 C245.885855,24.388 247.064522,24.1386667 248.288522,24.184 Z M163.034261,28.06 C160.767594,28.06 159.226261,28.6493333 158.410261,29.828 C157.594261,31.0066667 157.186261,32.8426667 157.186261,35.336 C157.186261,37.6933333 157.582928,39.484 158.376261,40.708 C159.169594,41.932 160.722261,42.544 163.034261,42.544 C165.255594,42.544 166.785594,41.9206667 167.624261,40.674 C168.462928,39.4273333 168.882261,37.648 168.882261,35.336 C168.882261,32.888 168.451594,31.0633333 167.590261,29.862 C166.728928,28.6606667 165.210261,28.06 163.034261,28.06 Z M203.213391,28.06 C202.306725,28.06 201.502058,28.2186667 200.799391,28.536 C200.096725,28.8533333 199.484725,29.4313333 198.963391,30.27 C198.442058,31.1086667 198.022725,32.242 197.705391,33.67 C197.388058,35.098 197.161391,36.9 197.025391,39.076 L197.025391,39.076 L207.973391,39.076 C208.290725,35.54 208.086725,32.82 207.361391,30.916 C206.636058,29.012 205.253391,28.06 203.213391,28.06 Z M84.648,9.428 C86.0986667,9.428 87.2886667,9.85866667 88.218,10.72 C89.1473333,11.5813333 89.612,12.7373333 89.612,14.188 C89.612,15.548 89.1473333,16.6586667 88.218,17.52 C87.2886667,18.3813333 86.0986667,18.812 84.648,18.812 C83.152,18.812 81.9506667,18.3813333 81.044,17.52 C80.1373333,16.6586667 79.684,15.548 79.684,14.188 C79.684,12.7373333 80.1373333,11.5813333 81.044,10.72 C81.9506667,9.85866667 83.152,9.428 84.648,9.428 Z M100.832,9.428 C102.328,9.428 103.540667,9.85866667 104.47,10.72 C105.399333,11.5813333 105.864,12.7373333 105.864,14.188 C105.864,15.548 105.399333,16.6586667 104.47,17.52 C103.540667,18.3813333 102.328,18.812 100.832,18.812 C99.3813333,18.812 98.2026667,18.3813333 97.296,17.52 C96.3893333,16.6586667 95.936,15.548 95.936,14.188 C95.936,12.7373333 96.3893333,11.5813333 97.296,10.72 C98.2026667,9.85866667 99.3813333,9.428 100.832,9.428 Z" id="Combined-Shape" fill="#FFFFFF" fill-rule="nonzero"></path>
            <path d="M33.964,119.408 C36.5026667,119.408 38.9506667,119.147333 41.308,118.626 C43.6653333,118.104667 45.762,117.277333 47.598,116.144 C49.434,115.010667 50.896,113.56 51.984,111.792 C53.072,110.024 53.616,107.916 53.616,105.468 C53.616,103.518667 53.242,101.83 52.494,100.402 C51.746,98.974 50.7826667,97.784 49.604,96.832 C48.4253333,95.88 47.0993333,95.1546667 45.626,94.656 C44.1526667,94.1573333 42.6906667,93.8173333 41.24,93.636 L41.24,93.636 L41.24,93.364 C42.6906667,93.092 44.0393333,92.6386667 45.286,92.004 C46.5326667,91.3693333 47.6206667,90.576 48.55,89.624 C49.4793333,88.672 50.2046667,87.5726667 50.726,86.326 C51.2473333,85.0793333 51.508,83.7306667 51.508,82.28 C51.508,79.968 51.032,78.0753333 50.08,76.602 C49.128,75.1286667 47.8586667,73.984 46.272,73.168 C44.6853333,72.352 42.872,71.7853333 40.832,71.468 C38.792,71.1506667 36.684,70.992 34.508,70.992 C32.5133333,70.992 30.7453333,71.06 29.204,71.196 C27.6626667,71.332 26.0306667,71.4 24.308,71.4 L24.308,71.4 L13.36,71.4 L13.36,73.984 C14.176,74.4373333 15.0826667,74.834 16.08,75.174 C17.0773333,75.514 18.0293333,75.7746667 18.936,75.956 L18.936,75.956 L18.936,114.444 C18.0293333,114.534667 17.0886667,114.761333 16.114,115.124 C15.1393333,115.486667 14.2213333,115.917333 13.36,116.416 L13.36,116.416 L13.36,119 L21.452,119 C22.1773333,119 23.0726667,119.022667 24.138,119.068 C25.2033333,119.113333 26.3026667,119.158667 27.436,119.204 L27.436,119.204 L30.836,119.34 C31.9693333,119.385333 33.012,119.408 33.964,119.408 Z M30.904,92.616 L28.728,92.616 L28.728,75.684 C29.3173333,75.5933333 29.9746667,75.5253333 30.7,75.48 C31.4253333,75.4346667 32.2866667,75.412 33.284,75.412 C35.6413333,75.412 37.568,76.0806667 39.064,77.418 C40.56,78.7553333 41.308,80.852 41.308,83.708 C41.308,85.6573333 40.764,87.3913333 39.676,88.91 C38.588,90.4286667 37.16,91.5506667 35.392,92.276 C34.712,92.3666667 33.9866667,92.446 33.216,92.514 C32.4453333,92.582 31.6746667,92.616 30.904,92.616 L30.904,92.616 Z M33.896,114.988 C32.4906667,114.988 31.4366667,114.942667 30.734,114.852 C30.0313333,114.761333 29.3626667,114.648 28.728,114.512 L28.728,114.512 L28.728,97.036 L32.332,97.036 C33.8733333,97.036 35.3013333,97.1606667 36.616,97.41 C37.9306667,97.6593333 39.064,98.1126667 40.016,98.77 C40.968,99.4273333 41.716,100.311333 42.26,101.422 C42.804,102.532667 43.076,103.949333 43.076,105.672 C43.076,108.482667 42.26,110.738 40.628,112.438 C38.996,114.138 36.752,114.988 33.896,114.988 Z" id="B" fill="#FFFFFF" fill-rule="nonzero"></path>
            <path d="M91.448,119.816 C93.216,119.816 94.8593333,119.623333 96.378,119.238 C97.8966667,118.852667 99.234,118.354 100.39,117.742 C101.546,117.13 102.520667,116.427333 103.314,115.634 C104.107333,114.840667 104.685333,114.058667 105.048,113.288 L105.048,113.288 L103.756,111.928 C102.849333,112.653333 101.591333,113.242667 99.982,113.696 C98.3726667,114.149333 96.82,114.376 95.324,114.376 C91.8333333,114.376 89.1926667,113.310667 87.402,111.18 C85.6113333,109.049333 84.6933333,106.193333 84.648,102.612 L84.648,102.612 L105.524,102.612 C106.113333,99.212 106.147333,96.3333333 105.626,93.976 C105.104667,91.6186667 104.175333,89.7146667 102.838,88.264 C101.500667,86.8133333 99.8233333,85.7706667 97.806,85.136 C95.7886667,84.5013333 93.624,84.184 91.312,84.184 C85.9173333,84.184 81.7013333,85.7026667 78.664,88.74 C75.6266667,91.7773333 74.108,96.1973333 74.108,102 C74.108,104.72 74.482,107.168 75.23,109.344 C75.978,111.52 77.0773333,113.39 78.528,114.954 C79.9786667,116.518 81.792,117.719333 83.968,118.558 C86.144,119.396667 88.6373333,119.816 91.448,119.816 Z M95.8,99.076 L84.852,99.076 C84.988,96.9 85.2146667,95.098 85.532,93.67 C85.8493333,92.242 86.2686667,91.1086667 86.79,90.27 C87.3113333,89.4313333 87.9233333,88.8533333 88.626,88.536 C89.3286667,88.2186667 90.1333333,88.06 91.04,88.06 C93.08,88.06 94.4626667,89.012 95.188,90.916 C95.9133333,92.82 96.1173333,95.54 95.8,99.076 L95.8,99.076 Z M127.50313,119.816 C129.27113,119.816 130.914463,119.623333 132.43313,119.238 C133.951797,118.852667 135.28913,118.354 136.44513,117.742 C137.60113,117.13 138.575797,116.427333 139.36913,115.634 C140.162463,114.840667 140.740463,114.058667 141.10313,113.288 L141.10313,113.288 L139.81113,111.928 C138.904463,112.653333 137.646463,113.242667 136.03713,113.696 C134.427797,114.149333 132.87513,114.376 131.37913,114.376 C127.888463,114.376 125.247797,113.310667 123.45713,111.18 C121.666463,109.049333 120.748463,106.193333 120.70313,102.612 L120.70313,102.612 L141.57913,102.612 C142.168463,99.212 142.202463,96.3333333 141.68113,93.976 C141.159797,91.6186667 140.230463,89.7146667 138.89313,88.264 C137.555797,86.8133333 135.878463,85.7706667 133.86113,85.136 C131.843797,84.5013333 129.67913,84.184 127.36713,84.184 C121.972463,84.184 117.756463,85.7026667 114.71913,88.74 C111.681797,91.7773333 110.16313,96.1973333 110.16313,102 C110.16313,104.72 110.53713,107.168 111.28513,109.344 C112.03313,111.52 113.132463,113.39 114.58313,114.954 C116.033797,116.518 117.84713,117.719333 120.02313,118.558 C122.19913,119.396667 124.692463,119.816 127.50313,119.816 Z M131.85513,99.076 L120.90713,99.076 C121.04313,96.9 121.269797,95.098 121.58713,93.67 C121.904463,92.242 122.323797,91.1086667 122.84513,90.27 C123.366463,89.4313333 123.978463,88.8533333 124.68113,88.536 C125.383797,88.2186667 126.188463,88.06 127.09513,88.06 C129.13513,88.06 130.517797,89.012 131.24313,90.916 C131.968463,92.82 132.172463,95.54 131.85513,99.076 L131.85513,99.076 Z M158.86626,119.816 C160.180927,119.816 161.438927,119.68 162.64026,119.408 C163.841593,119.136 164.95226,118.796 165.97226,118.388 C166.99226,117.98 167.898927,117.549333 168.69226,117.096 C169.485593,116.642667 170.08626,116.212 170.49426,115.804 L170.49426,115.804 L170.01826,113.56 C169.156927,113.877333 168.21626,114.092667 167.19626,114.206 C166.17626,114.319333 165.25826,114.376 164.44226,114.376 C162.81026,114.376 161.642927,113.832 160.94026,112.744 C160.237593,111.656 159.88626,109.706667 159.88626,106.896 L159.88626,106.896 L159.88626,89.284 L168.86226,89.284 L168.86226,85 L159.88626,85 L159.88626,76.364 L157.57426,76.364 C155.80626,76.6813333 154.20826,77.1006667 152.78026,77.622 C151.35226,78.1433333 150.456927,78.54 150.09426,78.812 L150.09426,78.812 L150.09426,84.32 C148.19026,84.7733333 146.376927,85.544 144.65426,86.632 L144.65426,86.632 L144.65426,89.284 L150.09426,89.284 L150.09426,110.024 C150.09426,113.469333 150.819593,115.962667 152.27026,117.504 C153.720927,119.045333 155.919593,119.816 158.86626,119.816 Z M190.22939,119.816 C191.99739,119.816 193.640723,119.623333 195.15939,119.238 C196.678057,118.852667 198.01539,118.354 199.17139,117.742 C200.32739,117.13 201.302057,116.427333 202.09539,115.634 C202.888723,114.840667 203.466723,114.058667 203.82939,113.288 L203.82939,113.288 L202.53739,111.928 C201.630723,112.653333 200.372723,113.242667 198.76339,113.696 C197.154057,114.149333 195.60139,114.376 194.10539,114.376 C190.614723,114.376 187.974057,113.310667 186.18339,111.18 C184.392723,109.049333 183.474723,106.193333 183.42939,102.612 L183.42939,102.612 L204.30539,102.612 C204.894723,99.212 204.928723,96.3333333 204.40739,93.976 C203.886057,91.6186667 202.956723,89.7146667 201.61939,88.264 C200.282057,86.8133333 198.604723,85.7706667 196.58739,85.136 C194.570057,84.5013333 192.40539,84.184 190.09339,84.184 C184.698723,84.184 180.482723,85.7026667 177.44539,88.74 C174.408057,91.7773333 172.88939,96.1973333 172.88939,102 C172.88939,104.72 173.26339,107.168 174.01139,109.344 C174.75939,111.52 175.858723,113.39 177.30939,114.954 C178.760057,116.518 180.57339,117.719333 182.74939,118.558 C184.92539,119.396667 187.418723,119.816 190.22939,119.816 Z M194.58139,99.076 L183.63339,99.076 C183.76939,96.9 183.996057,95.098 184.31339,93.67 C184.630723,92.242 185.050057,91.1086667 185.57139,90.27 C186.092723,89.4313333 186.704723,88.8533333 187.40739,88.536 C188.110057,88.2186667 188.914723,88.06 189.82139,88.06 C191.86139,88.06 193.244057,89.012 193.96939,90.916 C194.694723,92.82 194.898723,95.54 194.58139,99.076 L194.58139,99.076 Z" id="eete" fill="#FFFFFF" fill-rule="nonzero"></path>
        </g>
    </g>
</svg>