<?xml version="1.0" encoding="UTF-8"?>
<svg width="66px" height="66px" viewBox="0 0 66 66" version="1.1" xmlns="http://www.w3.org/2000/svg"
     xmlns:xlink="http://www.w3.org/1999/xlink">
    <title>assets/logos/buerger-beete-favicon</title>
    <g id="00-Assets" stroke="none" stroke-width="1" fill="none" fill-rule="evenodd">
        <g id="Group-Copy">
            <rect id="Rectangle" fill="#05A054" x="0" y="0" width="66" height="66" rx="9"></rect>
            <path d="M33.964,58.408 C36.5026667,58.408 38.9506667,58.1473333 41.308,57.626 C43.6653333,57.1046667 45.762,56.2773333 47.598,55.144 C49.434,54.0106667 50.896,52.56 51.984,50.792 C53.072,49.024 53.616,46.916 53.616,44.468 C53.616,42.5186667 53.242,40.83 52.494,39.402 C51.746,37.974 50.7826667,36.784 49.604,35.832 C48.4253333,34.88 47.0993333,34.1546667 45.626,33.656 C44.1526667,33.1573333 42.6906667,32.8173333 41.24,32.636 L41.24,32.636 L41.24,32.364 C42.6906667,32.092 44.0393333,31.6386667 45.286,31.004 C46.5326667,30.3693333 47.6206667,29.576 48.55,28.624 C49.4793333,27.672 50.2046667,26.5726667 50.726,25.326 C51.2473333,24.0793333 51.508,22.7306667 51.508,21.28 C51.508,18.968 51.032,17.0753333 50.08,15.602 C49.128,14.1286667 47.8586667,12.984 46.272,12.168 C44.6853333,11.352 42.872,10.7853333 40.832,10.468 C38.792,10.1506667 36.684,9.992 34.508,9.992 C32.5133333,9.992 30.7453333,10.06 29.204,10.196 C27.6626667,10.332 26.0306667,10.4 24.308,10.4 L24.308,10.4 L13.36,10.4 L13.36,12.984 C14.176,13.4373333 15.0826667,13.834 16.08,14.174 C17.0773333,14.514 18.0293333,14.7746667 18.936,14.956 L18.936,14.956 L18.936,53.444 C18.0293333,53.5346667 17.0886667,53.7613333 16.114,54.124 C15.1393333,54.4866667 14.2213333,54.9173333 13.36,55.416 L13.36,55.416 L13.36,58 L21.452,58 C22.1773333,58 23.0726667,58.0226667 24.138,58.068 C25.2033333,58.1133333 26.3026667,58.1586667 27.436,58.204 L27.436,58.204 L30.836,58.34 C31.9693333,58.3853333 33.012,58.408 33.964,58.408 Z M30.904,31.616 L28.728,31.616 L28.728,14.684 C29.3173333,14.5933333 29.9746667,14.5253333 30.7,14.48 C31.4253333,14.4346667 32.2866667,14.412 33.284,14.412 C35.6413333,14.412 37.568,15.0806667 39.064,16.418 C40.56,17.7553333 41.308,19.852 41.308,22.708 C41.308,24.6573333 40.764,26.3913333 39.676,27.91 C38.588,29.4286667 37.16,30.5506667 35.392,31.276 C34.712,31.3666667 33.9866667,31.446 33.216,31.514 C32.4453333,31.582 31.6746667,31.616 30.904,31.616 L30.904,31.616 Z M33.896,53.988 C32.4906667,53.988 31.4366667,53.9426667 30.734,53.852 C30.0313333,53.7613333 29.3626667,53.648 28.728,53.512 L28.728,53.512 L28.728,36.036 L32.332,36.036 C33.8733333,36.036 35.3013333,36.1606667 36.616,36.41 C37.9306667,36.6593333 39.064,37.1126667 40.016,37.77 C40.968,38.4273333 41.716,39.3113333 42.26,40.422 C42.804,41.5326667 43.076,42.9493333 43.076,44.672 C43.076,47.4826667 42.26,49.738 40.628,51.438 C38.996,53.138 36.752,53.988 33.896,53.988 Z"
                  id="B" fill="#FFFFFF" fill-rule="nonzero"></path>
        </g>
    </g>
</svg>