<?xml version="1.0" encoding="UTF-8"?>
<svg width="136px" height="93px" viewBox="0 0 136 93" version="1.1" xmlns="http://www.w3.org/2000/svg" xmlns:xlink="http://www.w3.org/1999/xlink">
    <title>assets/logos/stadt-potsdam</title>
    <g id="00-Assets" stroke="none" stroke-width="1" fill="none" fill-rule="evenodd">
        <g id="assets/logos/stadt-potsdam" fill="#32487A" fill-rule="nonzero">
            <path d="M77.6143275,45.9852853 C76.950446,45.9985744 76.3853341,46.2698735 75.8639808,46.7901559 C75.3313754,47.3242289 73.8135748,48.3071238 72.5008149,48.959044 C70.2253643,50.0886209 69.9253049,50.1362612 66.6621587,49.9770423 C63.936619,49.8441509 62.4238194,49.5169371 59.2731955,48.3848528 C53.7846087,46.4165555 52.821918,46.328797 51.5716705,47.5799822 C50.4264437,48.7283645 50.3576801,49.1847086 51.1465863,50.3130319 C51.4866536,50.7994646 51.5554172,51.1830945 51.3241214,51.2608235 C50.6077296,51.5002787 51.7829623,53.2416577 53.6620844,54.7335518 C56.1375746,56.6893121 59.2631935,57.71734 66.2895849,58.8707372 C67.1472547,59.0124044 69.7152633,58.6212524 71.9532064,58.0056893 C72.7846211,57.7775173 73.8910902,57.4866606 74.4036917,57.3663061 C74.9237947,57.2457009 75.778964,56.812174 76.2915655,56.4072313 C76.8116685,56.0022886 77.7793601,55.4506639 78.4294889,55.1761053 C79.0846186,54.9015466 79.7422488,54.2784614 79.8922785,53.7845065 C80.046059,53.2968201 80.4861461,52.6173188 80.8724726,52.2800755 C81.2587991,51.9428322 81.581363,51.4689364 81.581363,51.2257201 C81.581363,50.9825037 81.8026568,50.704184 82.0777113,50.5976201 C83.0979133,50.2052143 82.3302613,48.265752 80.7399464,47.2126502 C79.4771963,46.377691 78.4769983,45.9639725 77.6268299,45.9815242 L77.6268062,45.9815141 L77.6143275,45.9852853 Z M37.106306,47.1136085 C36.838753,47.1136085 36.1236114,47.5335955 35.5059891,48.0488632 C34.0932093,49.2373637 33.7806474,51.2583161 34.5495497,54.2044935 C35.6885252,58.5798805 37.7001736,61.0371179 42.9387109,64.4722354 C48.3147755,68.0076484 56.6914343,70.1765365 64.4429692,70.0762411 C66.1308035,70.0540507 67.4560659,69.925798 67.3685486,69.7916529 C67.2870324,69.6575078 68.7938308,69.4368579 70.7067096,69.2939369 C72.6320909,69.151016 74.8825365,68.8576519 75.7076999,68.6432705 C76.5391145,68.4288891 77.6455836,68.1856727 78.1581851,68.0991679 C78.6782881,68.0115348 79.3584228,67.8346388 79.6709847,67.7080159 C79.9822964,67.5826466 80.5949177,67.4246814 81.046257,67.3645041 C82.212738,67.2077925 84.0343488,66.2085996 85.1220641,65.1203945 C85.6409169,64.6001121 86.2210318,64.1726029 86.4098191,64.1726029 C86.5986065,64.1726029 87.3862625,63.5758453 88.1601658,62.8436888 C88.9315685,62.1140398 89.8104926,61.5147747 90.110552,61.5147747 C90.4131119,61.5147747 90.8231931,61.0972951 91.019482,60.5795201 C91.2157708,60.0617451 91.9321627,59.3860048 92.6197989,59.087626 C93.3011838,58.7892472 93.6162462,58.5360013 93.3161868,58.5197033 C92.8786001,58.4947548 92.8861016,58.3905729 93.3869508,58.0107041 C94.297131,57.3186658 94.5146741,55.5660036 93.7295186,55.2651174 C93.1894117,55.0544971 93.2594255,54.891517 94.165855,54.1041981 C95.7286645,52.7502102 95.7661719,51.7848669 94.307133,50.8947452 C92.3067369,49.672395 91.4190611,49.9218798 88.343452,52.5370825 C84.8177539,55.5459446 82.4672884,57.150671 79.9542908,58.2915312 C77.7538551,59.2944852 70.9650107,60.7236947 65.8264932,61.2753195 C64.2511813,61.4433143 57.8624162,60.5469241 54.9618418,59.7458146 C48.9356485,58.0909404 43.7096136,54.6558228 40.8340442,50.4684898 C39.5337867,48.575414 37.9334698,47.1211307 37.1333113,47.1211307 L37.1333238,47.1211495 L37.106306,47.1136085 Z M18.7276666,47.5210586 C18.411354,47.5363537 18.0637852,47.600292 17.7124656,47.6777702 C14.8243937,48.3133923 13.9367179,53.3193866 15.9871239,57.3562766 C18.7126637,62.7095437 26.1141293,71.1468945 31.2401444,74.7826029 C34.9908871,77.440431 41.7547265,80.5871993 44.4927687,80.975844 C45.0128717,81.0480567 45.9430559,81.3130873 46.5681797,81.5638258 C47.1920532,81.8145643 48.206004,82.0866156 48.8311278,82.1518076 C49.4550013,82.2168743 50.4689521,82.366189 51.0940759,82.5040952 C52.7193977,82.8651587 53.8321181,83.0544662 56.2951058,83.3265175 C57.4903425,83.4594089 58.4455316,83.6687756 58.4455316,83.7966522 C58.4462805,84.0198095 66.522131,84.078733 68.835089,83.875008 C69.830286,83.7872495 69.8890477,83.7295797 69.2251662,83.4437378 C68.6087942,83.177955 68.58754,83.1127629 69.107893,83.0914502 C69.4592126,83.076782 69.8392878,83.2356248 69.9680633,83.4437378 C70.3768943,84.1081948 71.2808233,83.85871 71.2183109,83.0914502 C71.1693012,82.4382764 70.935755,82.3831139 69.4179544,82.582451 C68.461515,82.7076949 67.8426425,82.6470162 68.0176771,82.46498 C68.451513,81.9986064 71.693405,81.8619539 71.693405,82.3082684 C71.693405,82.513874 72.5273201,82.6292137 73.5687763,82.5828271 C74.6077321,82.5364405 75.4816551,82.6219423 75.4816551,82.7784031 C75.4816551,82.934864 74.9065413,83.1031095 74.2314076,83.1306907 C73.5275182,83.1604033 73.3287288,83.2401381 73.7625647,83.3262668 C74.1776469,83.4091359 76.5631193,83.0291416 79.0386095,82.5038445 C83.3769686,81.5811268 84.6772261,81.1749304 83.2144364,81.1749304 C82.247995,81.1749304 82.6755797,80.8514777 84.1908798,80.430237 C85.3873667,80.0980085 85.4411273,80.0829642 84.7384882,80.6258131 C84.0183456,81.1799452 84.0095939,81.2163022 85.0898078,80.9781007 C87.4027658,80.4665941 90.2283253,79.1727834 89.7407287,78.8217495 C89.4356683,78.6086218 89.5644438,78.5559667 90.0920483,78.7042785 C91.0847449,78.9838519 97.9185981,75.6703426 100.206551,73.8023407 C101.719351,72.5762294 102.994603,71.8841911 103.53221,71.9970234 C103.688491,72.0301209 103.806014,71.891964 103.806014,71.6836003 C103.806014,71.4752366 104.053563,71.3313127 104.353622,71.3313127 C104.653682,71.3313127 105.007502,71.1457662 105.135027,70.9401606 C105.272554,70.718257 105.069889,70.6818999 104.666184,70.8226896 C103.544712,71.2138417 106.516551,68.5409692 108.104365,67.726069 C108.908274,67.3148579 109.979736,66.4473027 110.492338,65.7703087 C111.00619,65.0945684 111.780093,64.4163207 112.21768,64.2784146 C113.755484,63.7894745 116.280984,60.2665984 116.280984,58.5991874 C116.282052,57.9635652 116.437265,57.2702733 116.632304,57.0696825 C116.827342,56.871599 117.093645,55.8786746 117.21867,54.8381097 C117.443715,52.9575709 117.423711,52.9324971 115.818393,51.7414892 C112.580251,49.3469364 110.304801,50.0740781 108.2794,54.0984311 C106.679083,57.2577363 98.5774786,65.1309255 95.5268745,66.5225242 C95.0067715,66.7569647 94.0390799,67.3236337 93.3764487,67.8138275 C92.0761912,68.774156 84.3871686,72.0763822 83.4119755,72.0889191 C83.0894116,72.0900098 82.6718289,72.2243179 82.4742898,72.4023422 C80.5489086,74.1324379 66.0960466,75.2858351 58.0944621,74.3204918 C52.0057564,73.5920964 42.5913922,70.2209172 38.2155256,67.224592 C34.70233,64.8300393 28.9011812,58.7496305 26.1006266,54.4369281 C22.4624062,48.920681 20.9371042,47.3159545 18.7116635,47.4287868 L18.711726,47.4285386 L18.7276666,47.5210586 Z M88.7415309,78.7380028 C88.8728069,78.7430176 88.9915804,78.7925385 89.0540928,78.8554738 C89.1791175,78.9808431 88.9445711,79.0673479 88.5464923,79.0510499 C88.1064051,79.0328713 88.050144,78.9369638 88.3514536,78.8153557 C88.4877306,78.7606947 88.6102549,78.7317344 88.7415309,78.7369999 L88.7415309,78.7370626 L88.7415309,78.7380028 Z M87.1787214,79.2871202 C87.4237699,79.2607926 87.5275405,79.3208445 87.4525256,79.4438317 C87.3515056,79.6080654 86.9336729,79.8437596 86.5148399,79.9528309 C86.096007,80.0627797 85.8272038,79.9988414 85.9284738,79.8353599 C86.0294938,79.6711262 86.4860843,79.4755501 86.9049172,79.3652252 C87.0096879,79.3377693 87.0962051,79.2956453 87.1787214,79.2868694 L87.1787214,79.2868067 L87.1787214,79.2871202 Z M81.440085,81.0172159 C81.5196008,81.0166893 81.606368,81.0336392 81.6751316,81.0563311 C81.9576875,81.1511102 81.7563977,81.3145917 81.2450464,81.4474831 C80.6161719,81.6117169 80.4961481,81.5718494 80.7762036,81.2907716 C80.9412363,81.1252842 81.2012877,81.0174666 81.440085,81.0162129 L81.440085,81.0162756 L81.440085,81.0172159 Z M52.4343413,81.4083679 C52.5656173,81.4133827 52.6843908,81.4629036 52.7469032,81.5258389 C52.8719279,81.6512082 52.6373815,81.737713 52.2393027,81.721415 C51.7992155,81.7033618 51.7029464,81.6073289 52.0042561,81.4857208 C52.1405331,81.4311851 52.3030653,81.4019741 52.4343413,81.407365 L52.4343413,81.4074277 L52.4343413,81.4083679 Z M53.9221359,81.79952 C54.0534119,81.8045348 54.1721854,81.8149404 54.2346978,81.8778758 C54.3597225,82.003245 54.1641838,82.0897498 53.7658549,82.0734518 C53.3257678,82.0553987 53.2294987,81.9593658 53.5308084,81.8377576 C53.6670854,81.7830966 53.7908599,81.7931262 53.9208856,81.7986424 L53.9208856,81.7985797 L53.9221359,81.79952 Z M56.2225914,82.1518076 C56.3938754,82.1518076 56.6001662,82.1775083 56.7301919,82.2301634 C56.9902434,82.3352228 56.7418193,82.4257394 56.2225914,82.4257394 C55.7024884,82.4257394 55.4936971,82.3349721 55.7537486,82.2301634 C55.8837743,82.1776337 56.0513075,82.1518076 56.2225914,82.1518076 Z M61.886213,82.1518076 C62.1950241,82.1518076 62.5113367,82.1850305 62.7463833,82.2301634 C63.2139759,82.3204293 62.8221483,82.386875 61.886213,82.386875 C60.9510278,82.386875 60.5984579,82.3204293 61.0660505,82.2301634 C61.2998468,82.1850305 61.578652,82.1518076 61.886213,82.1518076 Z M61.886213,82.9353654 C62.0174889,82.9416339 62.0975048,82.9507859 62.1600172,83.0137212 C62.2850419,83.1390905 62.0895032,83.2255953 61.6911743,83.2092973 C61.2510872,83.1912441 61.1548181,83.0952112 61.4561278,82.9736031 C61.5924048,82.9189421 61.754937,82.9289716 61.886213,82.9344879 L61.886213,82.9344252 L61.886213,82.9353654 Z M64.8993096,82.9353654 C65.2418774,82.9361051 65.5656916,82.929097 65.7982376,82.9744807 C66.2633297,83.0644958 65.7824845,83.1336996 64.7430287,83.1311922 C63.7040729,83.1274311 63.3052439,83.0616123 63.8828583,82.9744807 C64.1704153,82.9308522 64.5567418,82.9344879 64.8980594,82.9353654 L64.8993096,82.9353654 Z M89.7792364,25.2655087 C83.7530431,25.2579865 81.6026172,25.3655533 81.3400652,25.6328406 C80.9724924,26.0001725 81.0837645,26.5229623 81.8826727,28.1026149 C82.4390328,29.2046106 82.8978737,30.271503 82.8978737,30.4971676 C82.8978737,30.7153101 83.1354207,31.2293241 83.4292289,31.6342668 C83.904323,32.2874406 84.6119631,32.4015266 89.7554817,32.6046248 C95.4316057,32.8302894 103.883279,32.7337551 115.135507,32.3325735 C120.336537,32.147027 126.450248,31.3985726 126.96285,30.8782902 C127.241655,30.5987167 125.881385,29.561913 125.212503,29.5368391 C124.932447,29.5301946 124.218556,29.1870589 123.624688,28.7670719 C122.697005,28.1051223 122.199406,28.0299007 119.886448,28.2455358 C116.273233,28.5815254 116.335745,27.8318173 119.957212,27.3102812 L122.695254,26.9078459 L120.144749,27.0971535 C118.306885,27.2262838 117.281682,27.1118217 116.469022,26.6947182 C115.85515,26.3762803 114.768685,26.1142585 114.043541,26.1142585 C113.323399,26.1142585 112.668269,25.9663228 112.605757,25.7832837 C112.536493,25.6002446 105.566863,25.3871168 97.1026866,25.3093879 C94.1521023,25.2824335 91.7141195,25.2645057 89.7012209,25.2619795 L89.7012597,25.2619795 L89.7792364,25.2655087 Z M31.6427241,24.7640316 C26.7292511,24.7809565 22.5534242,24.8535453 21.3031766,24.9884426 C19.9529093,25.1338709 17.7399711,25.2855677 16.3897037,25.3319544 C14.0767457,25.4106863 11.4512257,25.9763523 13.0890501,26.042798 C14.1067516,26.0837938 13.8704548,26.6809275 12.6402112,27.1911804 C12.0313406,27.4444263 11.4449745,27.9057851 11.3274512,28.2091787 C11.2113032,28.5125723 10.568551,28.9388278 9.91467147,29.1682535 C8.85321128,29.5393465 8.78819841,29.6459104 9.34830932,30.0558679 C9.69587815,30.3103674 11.2111782,30.6313127 12.7114753,30.7779948 C14.2117724,30.9246768 16.0746413,31.1352971 16.8372923,31.2393536 C22.4884113,32.016643 25.9390947,32.0592685 45.5929865,31.5828654 C52.6068754,31.4123632 53.7821082,31.0701051 53.7821082,29.2384603 C53.7821082,28.7031336 54.1221755,27.8343247 54.5372577,27.3077738 C55.8000078,25.7030474 55.533705,25.4397719 52.3618269,25.1012749 C50.0863763,24.8593123 39.8593512,24.7301819 31.6077172,24.7577632 L31.6077172,24.7577532 L31.6427241,24.7640316 Z M68.5250276,20 C68.3174865,20 68.1474528,20.3585561 68.1474528,20.7935874 C68.1474528,21.4981626 67.9824201,21.5608472 66.6471557,21.374047 C65.4506688,21.2060522 64.9343165,21.3364362 64.0966507,22.0247135 C63.517786,22.4986092 62.3212991,23.0953669 61.4336233,23.3536275 C58.3955217,24.2337197 54.407232,29.2209086 55.1573805,31.1892059 C55.2652769,31.4712867 55.8925261,31.7533676 56.5451553,31.8173059 C59.1206653,32.0680444 81.1750325,31.920234 81.3000573,31.6518185 C81.3548182,31.4951069 81.2051635,30.5573449 80.9574895,29.5706888 C80.3748741,27.2388207 77.056717,23.8037032 74.7312565,23.1141723 C73.8723365,22.8609264 72.955905,22.3958064 72.7058555,22.083637 C72.420799,21.7388716 71.5868839,21.5157143 70.5804346,21.5157143 C69.1801573,21.5157143 68.9301078,21.4002492 68.9301078,20.758484 C68.9301078,20.3422581 68.7600741,20.0012537 68.552533,20.0012537 L68.5524705,20.0012537 L68.5250276,20 Z M110.658371,45.4499585 L110.658371,45.7107266 L112.683772,45.7107266 L112.683772,45.4499585 C112.467479,45.4499585 112.266189,45.3793756 112.082403,45.2380845 C111.898616,45.0967933 111.806098,44.8845432 111.806098,44.6024624 L111.806098,35.3000637 L115.431816,45.7182487 L115.903159,45.7182487 L119.603892,35.2373791 L119.603892,45.4549733 L118.726218,45.4549733 L118.726218,45.7157414 L123.102085,45.7157414 L123.102085,45.4549733 L122.224411,45.4549733 L122.224411,34.9741037 L123.102085,34.9741037 L123.102085,34.7133356 L119.463865,34.7133356 L116.81334,42.0975847 L114.150312,34.7133356 L110.662122,34.7133356 L110.662122,34.9741037 L111.539795,34.9741037 L111.539795,44.6024624 C111.539795,44.8845432 111.450278,45.0964172 111.270992,45.2380845 C111.091707,45.3797518 110.888416,45.4499585 110.660871,45.4499585 L110.660853,45.4499686 L110.658371,45.4499585 Z M98.5309694,34.6682027 L95.2803257,44.5723738 C95.2045607,44.8005458 95.0665334,44.9986292 94.8664938,45.166624 C94.6664541,45.3346188 94.3926499,45.4198699 94.0450811,45.4198699 L94.0450811,45.680638 L96.4955663,45.680638 L96.4955663,45.4198699 C96.3005277,45.4198699 96.1429965,45.4008138 96.024223,45.3627015 C95.9049494,45.3245893 95.8129312,45.2756953 95.7479183,45.2160195 C95.6829054,45.1563437 95.6396469,45.0911517 95.6178925,45.0204435 C95.5962633,44.9498606 95.5853861,44.8875521 95.5853861,44.8323896 C95.5853861,44.7670722 95.5881367,44.7100292 95.5935127,44.6618874 C95.5990138,44.6131188 95.6178925,44.5451686 95.650274,44.4575355 L96.3329091,42.2761105 L99.5960553,42.2761105 L100.636261,45.4228788 L99.7585875,45.4228788 L99.7585875,45.6836468 L104.134454,45.6836468 L104.134454,45.4228788 L103.25678,45.4228788 L99.6810721,34.5784383 L98.5596001,34.5784383 L98.5309694,34.6682027 Z M97.9296003,37.3887155 L99.4799073,42.1025995 L96.4042983,42.1025995 L97.9296003,37.3887155 Z M82.9266294,34.7684981 L78.2006936,34.7684981 L78.2006936,35.0292662 L79.0783674,35.0292662 L79.0783674,45.5101358 L78.2006936,45.5101358 L78.2006936,45.7709038 L82.9266294,45.7709038 C83.6855297,45.7709038 84.3519116,45.6129386 84.914523,45.2982617 C85.4783847,44.9835849 85.9472275,44.567359 86.3148003,44.0508377 C86.6886244,43.5343163 86.9699301,42.9450808 87.1599677,42.2831312 C87.3500053,41.6199278 87.4450241,40.9416802 87.4450241,40.2646862 C87.4450241,39.5801701 87.3502554,38.9106983 87.1599677,38.2462412 C86.9699301,37.5893063 86.6886244,37.0025782 86.3148003,36.4910717 C85.9409763,35.9745503 85.4721335,35.5595781 84.914523,35.2449013 C84.3506614,34.9302244 83.6905307,34.7722592 82.9266294,34.7722592 L82.9266294,34.7684981 Z M81.6913848,45.5126432 L81.6913848,35.0317735 L82.5202989,35.0317735 C82.8128569,35.0317735 83.0866611,35.0997237 83.3417116,35.2348717 C83.5967621,35.3700198 83.8155554,35.617248 83.9993418,35.9770577 C84.1831282,36.3356138 84.3294072,36.8295686 84.4381787,37.4564149 C84.5464502,38.0870223 84.6007109,38.8856244 84.6007109,39.8635046 L84.6007109,40.6458087 C84.6007109,41.6562849 84.5465752,42.4761998 84.4381787,43.1030461 C84.3299073,43.7336535 84.1831282,44.2276083 83.9993418,44.5824033 C83.8155554,44.9409594 83.6005128,45.182922 83.3567146,45.3082913 C83.1129163,45.4332844 82.8503643,45.4963452 82.5678083,45.4963452 L81.6901346,45.4963552 L81.6913848,45.5126432 Z M70.3891467,34.6556658 L69.966563,35.2912879 C69.739018,35.1395911 69.4352078,34.9816258 69.0563828,34.8186458 C68.6775578,34.6556658 68.1949622,34.5741758 67.6060956,34.5741758 C67.0097275,34.5741858 66.487124,34.6801128 66.0432861,34.8926137 C65.593197,35.1044877 65.2168725,35.3790464 64.9130623,35.7162897 C64.6092522,36.053533 64.3792066,36.4384166 64.2229257,36.8734479 C64.0653945,37.3084792 63.9878791,37.7422568 63.9878791,38.1772881 C63.9878791,38.948309 64.1716655,39.5939607 64.5404886,40.1205116 C64.9093116,40.6420477 65.5106807,41.0219165 66.3408451,41.2613718 C66.5358837,41.315782 66.7471755,41.3701923 66.9747206,41.4243518 C67.2022656,41.4787621 67.4273102,41.5304142 67.6498543,41.5798097 C67.8723983,41.6287037 68.0749385,41.6748396 68.2587248,41.7177158 C68.4425112,41.7610936 68.5837892,41.7990805 68.6813085,41.8315511 C69.1901593,41.9732184 69.5339774,42.1850924 69.7127628,42.4671732 C69.8915482,42.7492541 69.9803158,43.1190934 69.9803158,43.5754375 C69.9803158,43.79358 69.9343066,44.0242594 69.8427885,44.2687294 C69.7506453,44.5131995 69.6102425,44.7388641 69.4202048,44.9444697 C69.2301672,45.151329 68.9863689,45.3243385 68.68881,45.4660058 C68.3912511,45.6076731 68.0411818,45.6778798 67.6411025,45.6778798 C67.0997453,45.6778798 66.6359035,45.5800918 66.2533277,45.3845158 C65.8682515,45.1889398 65.5406866,44.9331865 65.2706331,44.6185096 C64.9993294,44.3038328 64.7780356,43.9502915 64.6042512,43.5591395 C64.4304668,43.1679874 64.290439,42.7768353 64.1816675,42.3856832 C64.1384089,42.2339864 64.0895243,42.1575112 64.0353885,42.1575112 C64.0030071,42.15753 63.9786273,42.1738092 63.9624991,42.2062798 C63.9462459,42.2387505 63.9382443,42.3094587 63.9382443,42.4181539 L63.9382443,45.6150698 C63.9382443,45.6803872 63.9463709,45.7401884 63.9624991,45.7943479 C63.9787523,45.8487581 64.0138843,45.8759633 64.068145,45.8759633 C64.14391,45.8759633 64.2306772,45.7998641 64.3281965,45.6477912 L64.8320463,44.8817851 C64.9405678,44.9902295 65.0733441,45.1074497 65.2308753,45.2315653 C65.3884065,45.3565584 65.5771938,45.473528 65.7997379,45.5813455 C66.022282,45.6899153 66.2823335,45.7819363 66.5798924,45.8584116 C66.8774513,45.9345107 67.2325216,45.9724976 67.6451033,45.9724976 C68.2839798,45.9724976 68.8428405,45.8665606 69.3204351,45.6540597 C69.7967794,45.4421856 70.1931079,45.1626122 70.50692,44.8153394 C70.8207322,44.4680665 71.057029,44.070646 71.2145602,43.6255852 C71.3720914,43.1805243 71.450857,42.7241802 71.450857,42.2590603 C71.450857,41.2598673 71.2045582,40.453743 70.7107104,39.8394337 C70.2181128,39.2251243 69.4892185,38.8264501 68.5227771,38.6421573 C68.2839798,38.5987796 67.9914219,38.5362203 67.6451033,38.4541034 C67.2987848,38.372488 66.9949746,38.288616 66.7349231,38.2008575 C66.3986065,38.0811299 66.1573087,37.8886881 66.0110298,37.6216516 C65.8647508,37.3558688 65.7909862,37.0211329 65.7909862,36.6186976 C65.7909862,36.4018087 65.8289937,36.1874273 65.9047587,35.9755533 C65.9806487,35.7636792 66.0947963,35.5756254 66.2460763,35.4126453 C66.3973563,35.2496653 66.5873939,35.1192813 66.8149389,35.0214933 C67.042484,34.9237052 67.3075365,34.8748112 67.6113466,34.8748112 C67.8601459,34.87483 68.1176969,34.9101654 68.3839997,34.9807483 C68.6490521,35.0513311 68.9066031,35.1788317 69.1566527,35.3631245 C69.4054519,35.5474173 69.6392482,35.8081853 69.855541,36.1454286 C70.0718339,36.4826719 70.2506193,36.9114348 70.3918973,37.4367319 C70.4242787,37.5884287 70.4730383,37.664904 70.5381762,37.664904 C70.5920619,37.6649228 70.6216928,37.640457 70.6271939,37.591563 C70.6326949,37.542669 70.6353205,37.4855006 70.6353205,37.4198071 L70.6353205,34.6867574 C70.6353105,34.5779368 70.6081901,34.5237773 70.5539293,34.5237773 C70.5000437,34.5237773 70.445908,34.5726713 70.3913972,34.6704594 L70.3914597,34.6704782 L70.3891467,34.6556658 Z M53.8858787,45.4374216 L53.8858787,34.956552 L54.5522607,34.956552 C55.1048701,34.956562 55.5787139,35.2223348 55.9775429,35.7551541 C56.3726211,36.2879735 56.6526766,37.0088467 56.8152088,37.9240422 L57.1402732,37.9240422 L56.8964749,35.0405494 C56.8855977,34.9427614 56.8503407,34.8612714 56.790829,34.7960793 C56.7313172,34.7308873 56.614544,34.6982913 56.4407596,34.6982913 L48.6517172,34.6982913 C48.5104393,34.6982913 48.41292,34.7308873 48.3591593,34.7960793 C48.3051486,34.8612714 48.2726422,34.9427614 48.26164,35.0405494 L48.0178417,37.9240422 L48.3429061,37.9240422 C48.5054383,37.0113541 48.7842435,36.2942419 49.1793217,35.7551541 C49.5743999,35.2223348 50.049494,34.956552 50.604604,34.956552 L51.2709859,34.956552 L51.2709859,45.4374216 L50.3933121,45.4374216 L50.3933121,45.6981897 L54.7691786,45.6981897 L54.7691786,45.4374216 L53.8915048,45.4374216 L53.8858787,45.4374216 Z M31.1313728,40.1719129 C31.1313728,40.8890251 31.2423948,41.5885855 31.4639387,42.2655795 C31.6864828,42.9450808 32.0165481,43.5568828 32.455385,44.0959706 C32.8942219,44.6338047 33.4393299,45.0650749 34.0932093,45.3872739 C34.7433381,45.713234 35.4934866,45.876214 36.3561575,45.876214 C37.212577,45.876214 37.9689768,45.713234 38.6191056,45.3872739 C39.2692343,45.0613139 39.813092,44.6300436 40.2569299,44.0959706 C40.6957668,43.5581365 41.0258321,42.9500956 41.2483762,42.2655795 C41.4709203,41.5860781 41.5821923,40.8865177 41.5821923,40.1719129 C41.5821923,39.466084 41.4710453,38.7677773 41.2483762,38.0907833 C41.0258321,37.4062672 40.6957668,36.79948 40.2569299,36.2603922 C39.818093,35.7275729 39.2742353,35.2988101 38.6191056,34.9690889 C37.9689768,34.6431289 37.2188283,34.4801488 36.3561575,34.4801488 C35.5009881,34.4801488 34.7433381,34.6431289 34.0932093,34.9690889 C33.4430806,35.295049 32.8979727,35.7238118 32.455385,36.2603922 C31.955286,36.8872385 31.7052365,37.5140848 31.455187,38.2663003 C31.2051374,38.8931466 31.0801127,39.6453621 31.0801127,40.2722084 L31.1313728,40.1719129 Z M36.3449052,34.781035 C36.7999953,34.781035 37.1663179,34.8680413 37.4426226,35.0418031 C37.7189273,35.2155649 37.9302192,35.4868639 38.0764981,35.8567032 C38.2227771,36.2265425 38.3202964,36.6991846 38.3690561,37.2733758 C38.4176907,37.8488207 38.4419455,38.5396053 38.4419455,39.3545054 L38.4419455,40.9843057 C38.4419455,41.8857106 38.4176907,42.6391799 38.3690561,43.2284154 C38.3204214,43.8201582 38.2227771,44.2902929 38.0764981,44.632551 C37.9302192,44.9798238 37.7189273,45.2242939 37.4426226,45.3659611 C37.1663179,45.5076284 36.7999953,45.5778352 36.3449052,45.5778352 C35.8898151,45.5778352 35.5247428,45.5072523 35.2484381,45.3659611 C34.9721334,45.22467 34.7608415,44.9798238 34.6145626,44.632551 C34.4682836,44.2852782 34.3707643,43.8151435 34.3220046,43.2284154 C34.273245,42.6366725 34.2488652,41.8869643 34.2488652,40.9843057 L34.2488652,39.3545054 C34.2488652,38.5396053 34.273245,37.8500744 34.3220046,37.2733758 C34.3707643,36.6979309 34.4682836,36.2252888 34.6145626,35.8567032 C34.7608415,35.4868639 34.9721334,35.2160663 35.2484381,35.0418031 C35.5247428,34.8675398 35.8898151,34.781035 36.3449052,34.781035 Z M21.0918848,34.6556658 L16.0033772,34.6556658 L16.0033772,34.9164338 L16.881051,34.9164338 L16.881051,45.3973035 L16.0033772,45.3973035 L16.0033772,45.6580715 L20.3792437,45.6580715 L20.3792437,45.3973035 L19.5015699,45.3973035 L19.5015699,40.5831241 L21.0893843,40.5831241 C21.5557267,40.5831341 21.9945636,40.5315973 22.4021443,40.4289199 C22.8134757,40.3258664 23.173547,40.1606297 23.4823582,39.931204 C23.7911693,39.7030319 24.0374681,39.4046531 24.2225047,39.0348138 C24.4062911,38.6649745 24.4988094,38.2148989 24.4988094,37.6808259 C24.4988094,37.1492602 24.4066662,36.6929162 24.2225047,36.314301 C24.0387183,35.9344322 23.7924196,35.621009 23.4823582,35.376539 C23.173547,35.1320689 22.8134757,34.9502835 22.4021443,34.8311827 C21.9908128,34.7118312 21.5519759,34.6519047 21.0893843,34.6519047 L21.0893843,34.6519047 L21.0918848,34.6556658 Z M20.0841853,40.3223561 L19.4990694,40.3223561 L19.4990694,34.9064043 L19.9379063,34.9064043 C20.3167313,34.9064043 20.6317937,34.9689635 20.880593,35.0944582 C21.1293922,35.2194513 21.3306821,35.3991055 21.481962,35.6322923 C21.633242,35.8654791 21.7420135,36.1563357 21.8070264,36.5036086 C21.8720393,36.8508814 21.9045457,37.2420335 21.9045457,37.6770648 C21.9045457,38.524561 21.77452,39.1814958 21.5144685,39.6328252 C21.254417,40.0891692 20.7780727,40.3173413 20.0891862,40.3173413 L20.0841853,40.3223561 Z" id="Shape"></path>
        </g>
    </g>
</svg>